<?xml version="1.0" encoding="UTF-8" standalone="no"?>
<!DOCTYPE svg PUBLIC "-//W3C//DTD SVG 1.1//EN"
 "http://www.w3.org/Graphics/SVG/1.1/DTD/svg11.dtd">
<!-- Generated by graphviz version 2.43.0 (0)
 -->
<!-- Title: sprintf Pages: 1 -->
<svg width="706pt" height="202pt"
 viewBox="0.00 0.00 706.00 202.28" xmlns="http://www.w3.org/2000/svg" xmlns:xlink="http://www.w3.org/1999/xlink">
<g id="graph0" class="graph" transform="scale(1 1) rotate(0) translate(4 198.28)">
<title>sprintf</title>
<!-- Node1 -->
<g id="Node000001" class="node">
<title>Node1</title>
<g id="a_Node000001"><a xlink:title=" ">
<polygon fill="#999999" stroke="#666666" points="48,-79.01 0,-79.01 0,-60.01 48,-60.01 48,-79.01"/>
<text text-anchor="middle" x="24" y="-67.01" font-family="Helvetica,sans-Serif" font-size="10.00">sprintf</text>
</a>
</g>
</g>
<!-- Node2 -->
<g id="Node000002" class="node">
<title>Node2</title>
<g id="a_Node000002"><a xlink:href="printf_8h.html#a984687e0cb1dfa69b33161177d270337" target="_top" xlink:title=" ">
<polygon fill="white" stroke="#666666" points="138,-79.01 84,-79.01 84,-60.01 138,-60.01 138,-79.01"/>
<text text-anchor="middle" x="111" y="-67.01" font-family="Helvetica,sans-Serif" font-size="10.00">vsprintf</text>
</a>
</g>
</g>
<!-- Node1&#45;&gt;Node2 -->
<g id="edge1_Node000001_Node000002" class="edge">
<title>Node1&#45;&gt;Node2</title>
<g id="a_edge1_Node000001_Node000002"><a xlink:title=" ">
<path fill="none" stroke="#63b8ff" d="M48.23,-69.51C56.05,-69.51 64.99,-69.51 73.58,-69.51"/>
<polygon fill="#63b8ff" stroke="#63b8ff" points="73.8,-73.01 83.8,-69.51 73.8,-66.01 73.8,-73.01"/>
</a>
</g>
</g>
<!-- Node3 -->
<g id="Node000003" class="node">
<title>Node3</title>
<g id="a_Node000003"><a xlink:href="printf_8c.html#aa0585acb8fbf31a90ffbf65ba543abe1" target="_top" xlink:title=" ">
<polygon fill="white" stroke="#666666" points="213,-79.01 174,-79.01 174,-60.01 213,-60.01 213,-79.01"/>
<text text-anchor="middle" x="193.5" y="-67.01" font-family="Helvetica,sans-Serif" font-size="10.00">print</text>
</a>
</g>
</g>
<!-- Node2&#45;&gt;Node3 -->
<g id="edge2_Node000002_Node000003" class="edge">
<title>Node2&#45;&gt;Node3</title>
<g id="a_edge2_Node000002_Node000003"><a xlink:title=" ">
<path fill="none" stroke="#63b8ff" d="M138.36,-69.51C146.55,-69.51 155.61,-69.51 163.94,-69.51"/>
<polygon fill="#63b8ff" stroke="#63b8ff" points="163.98,-73.01 173.98,-69.51 163.98,-66.01 163.98,-73.01"/>
</a>
</g>
</g>
<!-- Node4 -->
<g id="Node000004" class="node">
<title>Node4</title>
<g id="a_Node000004"><a xlink:href="printf_8c.html#a7db7a232586308b02fc3760686d33e28" target="_top" xlink:title=" ">
<polygon fill="white" stroke="#666666" points="609,-146.01 549,-146.01 549,-127.01 609,-127.01 609,-146.01"/>
<text text-anchor="middle" x="579" y="-134.01" font-family="Helvetica,sans-Serif" font-size="10.00">printchar</text>
</a>
</g>
</g>
<!-- Node3&#45;&gt;Node4 -->
<g id="edge3_Node000003_Node000004" class="edge">
<title>Node3&#45;&gt;Node4</title>
<g id="a_edge3_Node000003_Node000004"><a xlink:title=" ">
<path fill="none" stroke="#63b8ff" d="M203.62,-79.09C225.56,-101.36 284.1,-156.19 346,-175.51 416.87,-197.63 441.9,-200.9 513,-179.51 530.48,-174.25 547.58,-162.6 559.85,-152.75"/>
<polygon fill="#63b8ff" stroke="#63b8ff" points="562.11,-155.42 567.52,-146.32 557.61,-150.06 562.11,-155.42"/>
</a>
</g>
</g>
<!-- Node6 -->
<g id="Node000006" class="node">
<title>Node6</title>
<g id="a_Node000006"><a xlink:href="printf_8c.html#a4e12f38d03cb05b93d73df6a33fcf44d" target="_top" xlink:title=" ">
<polygon fill="white" stroke="#666666" points="310,-79.01 249,-79.01 249,-60.01 310,-60.01 310,-79.01"/>
<text text-anchor="middle" x="279.5" y="-67.01" font-family="Helvetica,sans-Serif" font-size="10.00">printfloat</text>
</a>
</g>
</g>
<!-- Node3&#45;&gt;Node6 -->
<g id="edge5_Node000003_Node000006" class="edge">
<title>Node3&#45;&gt;Node6</title>
<g id="a_edge5_Node000003_Node000006"><a xlink:title=" ">
<path fill="none" stroke="#63b8ff" d="M213.14,-69.51C220.65,-69.51 229.61,-69.51 238.46,-69.51"/>
<polygon fill="#63b8ff" stroke="#63b8ff" points="238.69,-73.01 248.69,-69.51 238.69,-66.01 238.69,-73.01"/>
</a>
</g>
</g>
<!-- Node8 -->
<g id="Node000008" class="node">
<title>Node8</title>
<g id="a_Node000008"><a xlink:href="printf_8c.html#adfff6d9f2c0e097309c2eecbaefffadc" target="_top" xlink:title=" ">
<polygon fill="white" stroke="#666666" points="388,-32.01 346,-32.01 346,-13.01 388,-13.01 388,-32.01"/>
<text text-anchor="middle" x="367" y="-20.01" font-family="Helvetica,sans-Serif" font-size="10.00">printi</text>
</a>
</g>
</g>
<!-- Node3&#45;&gt;Node8 -->
<g id="edge14_Node000003_Node000008" class="edge">
<title>Node3&#45;&gt;Node8</title>
<g id="a_edge14_Node000003_Node000008"><a xlink:title=" ">
<path fill="none" stroke="#63b8ff" d="M213.02,-62.53C223.49,-58.72 236.88,-54.06 249,-50.51 278.33,-41.91 312.36,-33.99 336.13,-28.79"/>
<polygon fill="#63b8ff" stroke="#63b8ff" points="336.93,-32.2 345.97,-26.66 335.45,-25.35 336.93,-32.2"/>
</a>
</g>
</g>
<!-- Node9 -->
<g id="Node000009" class="node">
<title>Node9</title>
<g id="a_Node000009"><a xlink:href="printf_8c.html#a82b717dcaae3a36d5c6a088c211f0b26" target="_top" xlink:title=" ">
<polygon fill="white" stroke="#666666" points="490.5,-70.01 446.5,-70.01 446.5,-51.01 490.5,-51.01 490.5,-70.01"/>
<text text-anchor="middle" x="468.5" y="-58.01" font-family="Helvetica,sans-Serif" font-size="10.00">prints</text>
</a>
</g>
</g>
<!-- Node3&#45;&gt;Node9 -->
<g id="edge19_Node000003_Node000009" class="edge">
<title>Node3&#45;&gt;Node9</title>
<g id="a_edge19_Node000003_Node000009"><a xlink:title=" ">
<path fill="none" stroke="#63b8ff" d="M205.93,-59.86C216.5,-51.35 232.97,-39.16 249,-31.51 289.5,-12.2 301.57,-9.79 346,-3.51 364.48,-0.9 370.23,2.2 388,-3.51 412.56,-11.4 435.96,-29.99 450.93,-43.81"/>
<polygon fill="#63b8ff" stroke="#63b8ff" points="448.69,-46.51 458.34,-50.9 453.53,-41.45 448.69,-46.51"/>
</a>
</g>
</g>
<!-- Node10 -->
<g id="Node000010" class="node">
<title>Node10</title>
<g id="a_Node000010"><a xlink:href="printf_8c.html#a44b3fa8064b83d7df40fc6a87f821298" target="_top" xlink:title=" ">
<polygon fill="white" stroke="#666666" points="388,-146.01 346,-146.01 346,-127.01 388,-127.01 388,-146.01"/>
<text text-anchor="middle" x="367" y="-134.01" font-family="Helvetica,sans-Serif" font-size="10.00">printl</text>
</a>
</g>
</g>
<!-- Node3&#45;&gt;Node10 -->
<g id="edge15_Node000003_Node000010" class="edge">
<title>Node3&#45;&gt;Node10</title>
<g id="a_edge15_Node000003_Node000010"><a xlink:title=" ">
<path fill="none" stroke="#63b8ff" d="M213.18,-76.81C242.86,-88.4 301.03,-111.13 336.42,-124.95"/>
<polygon fill="#63b8ff" stroke="#63b8ff" points="335.17,-128.22 345.76,-128.6 337.71,-121.7 335.17,-128.22"/>
</a>
</g>
</g>
<!-- Node5 -->
<g id="Node000005" class="node">
<title>Node5</title>
<g id="a_Node000005"><a xlink:href="printf_8c.html#af4de2514b7778805db3815e8dd6cf09a" target="_top" xlink:title=" ">
<polygon fill="white" stroke="#666666" points="698,-146.01 645,-146.01 645,-127.01 698,-127.01 698,-146.01"/>
<text text-anchor="middle" x="671.5" y="-134.01" font-family="Helvetica,sans-Serif" font-size="10.00">putchar</text>
</a>
</g>
</g>
<!-- Node4&#45;&gt;Node5 -->
<g id="edge4_Node000004_Node000005" class="edge">
<title>Node4&#45;&gt;Node5</title>
<g id="a_edge4_Node000004_Node000005"><a xlink:title=" ">
<path fill="none" stroke="#63b8ff" d="M609.13,-136.51C617.29,-136.51 626.25,-136.51 634.74,-136.51"/>
<polygon fill="#63b8ff" stroke="#63b8ff" points="634.78,-140.01 644.78,-136.51 634.78,-133.01 634.78,-140.01"/>
</a>
</g>
</g>
<!-- Node6&#45;&gt;Node4 -->
<g id="edge7_Node000006_Node000004" class="edge">
<title>Node6&#45;&gt;Node4</title>
<g id="a_edge7_Node000006_Node000004"><a xlink:title=" ">
<path fill="none" stroke="#63b8ff" d="M284.3,-79.06C292.37,-97.87 313.21,-139.26 346,-155.51 410.61,-187.51 497.84,-165.68 544.79,-149.51"/>
<polygon fill="#63b8ff" stroke="#63b8ff" points="546.2,-152.72 554.45,-146.06 543.85,-146.13 546.2,-152.72"/>
</a>
</g>
</g>
<!-- Node7 -->
<g id="Node000007" class="node">
<title>Node7</title>
<g id="a_Node000007"><a xlink:href="printf_8c.html#a81ec43c10454c3c5036f9876f067d219" target="_top" xlink:title=" ">
<polygon fill="white" stroke="#666666" points="513,-108.01 424,-108.01 424,-89.01 513,-89.01 513,-108.01"/>
<text text-anchor="middle" x="468.5" y="-96.01" font-family="Helvetica,sans-Serif" font-size="10.00">_write_number</text>
</a>
</g>
</g>
<!-- Node6&#45;&gt;Node7 -->
<g id="edge6_Node000006_Node000007" class="edge">
<title>Node6&#45;&gt;Node7</title>
<g id="a_edge6_Node000006_Node000007"><a xlink:title=" ">
<path fill="none" stroke="#63b8ff" d="M310.13,-74.1C337.85,-78.4 379.92,-84.93 413.58,-90.15"/>
<polygon fill="#63b8ff" stroke="#63b8ff" points="413.32,-93.65 423.74,-91.72 414.39,-86.73 413.32,-93.65"/>
</a>
</g>
</g>
<!-- Node6&#45;&gt;Node8 -->
<g id="edge8_Node000006_Node000008" class="edge">
<title>Node6&#45;&gt;Node8</title>
<g id="a_edge8_Node000006_Node000008"><a xlink:title=" ">
<path fill="none" stroke="#63b8ff" d="M297.8,-60C309.78,-53.42 325.94,-44.53 339.52,-37.07"/>
<polygon fill="#63b8ff" stroke="#63b8ff" points="341.35,-40.05 348.43,-32.17 337.98,-33.92 341.35,-40.05"/>
</a>
</g>
</g>
<!-- Node6&#45;&gt;Node9 -->
<g id="edge13_Node000006_Node000009" class="edge">
<title>Node6&#45;&gt;Node9</title>
<g id="a_edge13_Node000006_Node000009"><a xlink:title=" ">
<path fill="none" stroke="#63b8ff" d="M310.13,-68.08C344.57,-66.43 401.15,-63.7 436.26,-62.01"/>
<polygon fill="#63b8ff" stroke="#63b8ff" points="436.6,-65.5 446.42,-61.52 436.27,-58.51 436.6,-65.5"/>
</a>
</g>
</g>
<!-- Node8&#45;&gt;Node4 -->
<g id="edge10_Node000008_Node000004" class="edge">
<title>Node8&#45;&gt;Node4</title>
<g id="a_edge10_Node000008_Node000004"><a xlink:title=" ">
<path fill="none" stroke="#63b8ff" d="M388.45,-20.22C418.19,-17.92 474.05,-17.6 513,-41.51 541.96,-59.29 561.13,-95.37 570.74,-117.59"/>
<polygon fill="#63b8ff" stroke="#63b8ff" points="567.55,-119.05 574.58,-126.98 574.03,-116.4 567.55,-119.05"/>
</a>
</g>
</g>
<!-- Node8&#45;&gt;Node7 -->
<g id="edge9_Node000008_Node000007" class="edge">
<title>Node8&#45;&gt;Node7</title>
<g id="a_edge9_Node000008_Node000007"><a xlink:title=" ">
<path fill="none" stroke="#63b8ff" d="M375.86,-32.28C385.98,-44.36 404.59,-65 424,-78.51 427.04,-80.63 430.35,-82.62 433.73,-84.46"/>
<polygon fill="#63b8ff" stroke="#63b8ff" points="432.23,-87.62 442.74,-88.96 435.36,-81.36 432.23,-87.62"/>
</a>
</g>
</g>
<!-- Node8&#45;&gt;Node9 -->
<g id="edge11_Node000008_Node000009" class="edge">
<title>Node8&#45;&gt;Node9</title>
<g id="a_edge11_Node000008_Node000009"><a xlink:title=" ">
<path fill="none" stroke="#63b8ff" d="M388.14,-30.2C402.15,-35.55 421.09,-42.79 436.96,-48.84"/>
<polygon fill="#63b8ff" stroke="#63b8ff" points="435.77,-52.14 446.36,-52.44 438.27,-45.6 435.77,-52.14"/>
</a>
</g>
</g>
<!-- Node9&#45;&gt;Node4 -->
<g id="edge12_Node000009_Node000004" class="edge">
<title>Node9&#45;&gt;Node4</title>
<g id="a_edge12_Node000009_Node000004"><a xlink:title=" ">
<path fill="none" stroke="#63b8ff" d="M490.52,-68.16C497.88,-71.23 506.04,-75.09 513,-79.51 530.88,-90.86 548.79,-107.02 561.27,-119.23"/>
<polygon fill="#63b8ff" stroke="#63b8ff" points="559.09,-122 568.64,-126.6 564.04,-117.05 559.09,-122"/>
</a>
</g>
</g>
<!-- Node10&#45;&gt;Node4 -->
<g id="edge17_Node000010_Node000004" class="edge">
<title>Node10&#45;&gt;Node4</title>
<g id="a_edge17_Node000010_Node000004"><a xlink:title=" ">
<path fill="none" stroke="#63b8ff" d="M388.14,-136.51C422.73,-136.51 494.03,-136.51 538.74,-136.51"/>
<polygon fill="#63b8ff" stroke="#63b8ff" points="538.95,-140.01 548.95,-136.51 538.95,-133.01 538.95,-140.01"/>
</a>
</g>
</g>
<!-- Node10&#45;&gt;Node7 -->
<g id="edge16_Node000010_Node000007" class="edge">
<title>Node10&#45;&gt;Node7</title>
<g id="a_edge16_Node000010_Node000007"><a xlink:title=" ">
<path fill="none" stroke="#63b8ff" d="M388.14,-128.82C400.99,-123.91 418,-117.42 432.97,-111.7"/>
<polygon fill="#63b8ff" stroke="#63b8ff" points="434.35,-114.91 442.45,-108.08 431.86,-108.38 434.35,-114.91"/>
</a>
</g>
</g>
<!-- Node10&#45;&gt;Node9 -->
<g id="edge18_Node000010_Node000009" class="edge">
<title>Node10&#45;&gt;Node9</title>
<g id="a_edge18_Node000010_Node000009"><a xlink:title=" ">
<path fill="none" stroke="#63b8ff" d="M375.44,-126.93C385.39,-114.61 404.12,-93.2 424,-79.51 428.03,-76.73 432.53,-74.22 437.07,-72.01"/>
<polygon fill="#63b8ff" stroke="#63b8ff" points="438.6,-75.16 446.29,-67.87 435.73,-68.77 438.6,-75.16"/>
</a>
</g>
</g>
</g>
</svg>
