<?xml version="1.0" encoding="UTF-8" standalone="no"?>
<!DOCTYPE svg PUBLIC "-//W3C//DTD SVG 1.1//EN"
 "http://www.w3.org/Graphics/SVG/1.1/DTD/svg11.dtd">
<!-- Generated by graphviz version 2.43.0 (0)
 -->
<!-- Title: v_sprintf Pages: 1 -->
<svg width="582pt" height="164pt"
 viewBox="0.00 0.00 582.00 164.04" xmlns="http://www.w3.org/2000/svg" xmlns:xlink="http://www.w3.org/1999/xlink">
<g id="graph0" class="graph" transform="scale(1 1) rotate(0) translate(4 160.04)">
<title>v_sprintf</title>
<!-- Node1 -->
<g id="Node000001" class="node">
<title>Node1</title>
<g id="a_Node000001"><a xlink:title=" ">
<polygon fill="#999999" stroke="#666666" points="59,-95 0,-95 0,-76 59,-76 59,-95"/>
<text text-anchor="middle" x="29.5" y="-83" font-family="Helvetica,sans-Serif" font-size="10.00">v_sprintf</text>
</a>
</g>
</g>
<!-- Node2 -->
<g id="Node000002" class="node">
<title>Node2</title>
<g id="a_Node000002"><a xlink:href="printf_8c.html#a5b328a8f32f082a641944307c97f9a34" target="_top" xlink:title=" ">
<polygon fill="white" stroke="#666666" points="134,-95 95,-95 95,-76 134,-76 134,-95"/>
<text text-anchor="middle" x="114.5" y="-83" font-family="Helvetica,sans-Serif" font-size="10.00">print</text>
</a>
</g>
</g>
<!-- Node1&#45;&gt;Node2 -->
<g id="edge1_Node000001_Node000002" class="edge">
<title>Node1&#45;&gt;Node2</title>
<g id="a_edge1_Node000001_Node000002"><a xlink:title=" ">
<path fill="none" stroke="#63b8ff" d="M59.06,-85.5C67.37,-85.5 76.45,-85.5 84.77,-85.5"/>
<polygon fill="#63b8ff" stroke="#63b8ff" points="84.79,-89 94.79,-85.5 84.79,-82 84.79,-89"/>
</a>
</g>
</g>
<!-- Node3 -->
<g id="Node000003" class="node">
<title>Node3</title>
<g id="a_Node000003"><a xlink:href="printf_8c.html#a467a00da8c720b8dddc7088e2805291c" target="_top" xlink:title=" ">
<polygon fill="white" stroke="#666666" points="485,-95 425,-95 425,-76 485,-76 485,-95"/>
<text text-anchor="middle" x="455" y="-83" font-family="Helvetica,sans-Serif" font-size="10.00">printchar</text>
</a>
</g>
</g>
<!-- Node2&#45;&gt;Node3 -->
<g id="edge2_Node000002_Node000003" class="edge">
<title>Node2&#45;&gt;Node3</title>
<g id="a_edge2_Node000002_Node000003"><a xlink:title=" ">
<path fill="none" stroke="#63b8ff" d="M121.07,-95.03C129.6,-108.57 147.34,-132.81 170,-142.5 260.36,-181.12 378.24,-127.57 428.99,-100.06"/>
<polygon fill="#63b8ff" stroke="#63b8ff" points="430.89,-103.01 437.94,-95.1 427.49,-96.89 430.89,-103.01"/>
</a>
</g>
</g>
<!-- Node5 -->
<g id="Node000005" class="node">
<title>Node5</title>
<g id="a_Node000005"><a xlink:href="printf_8c.html#a2c37f08c54b3dc54d13030c62cba67a7" target="_top" xlink:title=" ">
<polygon fill="white" stroke="#666666" points="231,-133 170,-133 170,-114 231,-114 231,-133"/>
<text text-anchor="middle" x="200.5" y="-121" font-family="Helvetica,sans-Serif" font-size="10.00">printfloat</text>
</a>
</g>
</g>
<!-- Node2&#45;&gt;Node5 -->
<g id="edge4_Node000002_Node000005" class="edge">
<title>Node2&#45;&gt;Node5</title>
<g id="a_edge4_Node000002_Node000005"><a xlink:title=" ">
<path fill="none" stroke="#63b8ff" d="M134.14,-93.93C144.34,-98.55 157.23,-104.38 168.86,-109.64"/>
<polygon fill="#63b8ff" stroke="#63b8ff" points="167.69,-112.95 178.25,-113.88 170.58,-106.57 167.69,-112.95"/>
</a>
</g>
</g>
<!-- Node6 -->
<g id="Node000006" class="node">
<title>Node6</title>
<g id="a_Node000006"><a xlink:href="printf_8c.html#ad9c642f8af1fe47d03e648b146da3b8d" target="_top" xlink:title=" ">
<polygon fill="white" stroke="#666666" points="309,-95 267,-95 267,-76 309,-76 309,-95"/>
<text text-anchor="middle" x="288" y="-83" font-family="Helvetica,sans-Serif" font-size="10.00">printi</text>
</a>
</g>
</g>
<!-- Node2&#45;&gt;Node6 -->
<g id="edge10_Node000002_Node000006" class="edge">
<title>Node2&#45;&gt;Node6</title>
<g id="a_edge10_Node000002_Node000006"><a xlink:title=" ">
<path fill="none" stroke="#63b8ff" d="M134.18,-85.5C163.6,-85.5 221.04,-85.5 256.51,-85.5"/>
<polygon fill="#63b8ff" stroke="#63b8ff" points="256.76,-89 266.76,-85.5 256.76,-82 256.76,-89"/>
</a>
</g>
</g>
<!-- Node7 -->
<g id="Node000007" class="node">
<title>Node7</title>
<g id="a_Node000007"><a xlink:href="printf_8c.html#a6ce76a789a6153b7e1b16bc3a6969563" target="_top" xlink:title=" ">
<polygon fill="white" stroke="#666666" points="389,-57 345,-57 345,-38 389,-38 389,-57"/>
<text text-anchor="middle" x="367" y="-45" font-family="Helvetica,sans-Serif" font-size="10.00">prints</text>
</a>
</g>
</g>
<!-- Node2&#45;&gt;Node7 -->
<g id="edge14_Node000002_Node000007" class="edge">
<title>Node2&#45;&gt;Node7</title>
<g id="a_edge14_Node000002_Node000007"><a xlink:title=" ">
<path fill="none" stroke="#63b8ff" d="M134.33,-82.64C177.12,-76.15 282.05,-60.24 334.74,-52.24"/>
<polygon fill="#63b8ff" stroke="#63b8ff" points="335.49,-55.67 344.85,-50.71 334.44,-48.75 335.49,-55.67"/>
</a>
</g>
</g>
<!-- Node8 -->
<g id="Node000008" class="node">
<title>Node8</title>
<g id="a_Node000008"><a xlink:href="printf_8c.html#a700fcb0af9d5d9311fe8a86380747db7" target="_top" xlink:title=" ">
<polygon fill="white" stroke="#666666" points="309,-19 267,-19 267,0 309,0 309,-19"/>
<text text-anchor="middle" x="288" y="-7" font-family="Helvetica,sans-Serif" font-size="10.00">printl</text>
</a>
</g>
</g>
<!-- Node2&#45;&gt;Node8 -->
<g id="edge11_Node000002_Node000008" class="edge">
<title>Node2&#45;&gt;Node8</title>
<g id="a_edge11_Node000002_Node000008"><a xlink:title=" ">
<path fill="none" stroke="#63b8ff" d="M122.82,-75.75C132.32,-63.82 150.07,-43.93 170,-33.5 197.21,-19.26 232.09,-13.47 256.66,-11.11"/>
<polygon fill="#63b8ff" stroke="#63b8ff" points="257.15,-14.58 266.83,-10.27 256.58,-7.6 257.15,-14.58"/>
</a>
</g>
</g>
<!-- Node4 -->
<g id="Node000004" class="node">
<title>Node4</title>
<g id="a_Node000004"><a xlink:href="printf_8c.html#af4de2514b7778805db3815e8dd6cf09a" target="_top" xlink:title=" ">
<polygon fill="white" stroke="#666666" points="574,-95 521,-95 521,-76 574,-76 574,-95"/>
<text text-anchor="middle" x="547.5" y="-83" font-family="Helvetica,sans-Serif" font-size="10.00">putchar</text>
</a>
</g>
</g>
<!-- Node3&#45;&gt;Node4 -->
<g id="edge3_Node000003_Node000004" class="edge">
<title>Node3&#45;&gt;Node4</title>
<g id="a_edge3_Node000003_Node000004"><a xlink:title=" ">
<path fill="none" stroke="#63b8ff" d="M485.13,-85.5C493.29,-85.5 502.25,-85.5 510.74,-85.5"/>
<polygon fill="#63b8ff" stroke="#63b8ff" points="510.78,-89 520.78,-85.5 510.78,-82 510.78,-89"/>
</a>
</g>
</g>
<!-- Node5&#45;&gt;Node3 -->
<g id="edge5_Node000005_Node000003" class="edge">
<title>Node5&#45;&gt;Node3</title>
<g id="a_edge5_Node000005_Node000003"><a xlink:title=" ">
<path fill="none" stroke="#63b8ff" d="M231.17,-120.49C268.23,-116.55 333.53,-109.01 389,-99.5 397.5,-98.04 406.58,-96.24 415.18,-94.42"/>
<polygon fill="#63b8ff" stroke="#63b8ff" points="415.95,-97.84 424.98,-92.3 414.47,-91 415.95,-97.84"/>
</a>
</g>
</g>
<!-- Node5&#45;&gt;Node6 -->
<g id="edge6_Node000005_Node000006" class="edge">
<title>Node5&#45;&gt;Node6</title>
<g id="a_edge6_Node000005_Node000006"><a xlink:title=" ">
<path fill="none" stroke="#63b8ff" d="M223.08,-113.91C233.59,-109.24 246.39,-103.55 257.76,-98.5"/>
<polygon fill="#63b8ff" stroke="#63b8ff" points="259.18,-101.69 266.9,-94.43 256.34,-95.3 259.18,-101.69"/>
</a>
</g>
</g>
<!-- Node6&#45;&gt;Node3 -->
<g id="edge7_Node000006_Node000003" class="edge">
<title>Node6&#45;&gt;Node3</title>
<g id="a_edge7_Node000006_Node000003"><a xlink:title=" ">
<path fill="none" stroke="#63b8ff" d="M309.23,-85.5C335.4,-85.5 381.55,-85.5 414.72,-85.5"/>
<polygon fill="#63b8ff" stroke="#63b8ff" points="414.99,-89 424.99,-85.5 414.99,-82 414.99,-89"/>
</a>
</g>
</g>
<!-- Node6&#45;&gt;Node7 -->
<g id="edge8_Node000006_Node000007" class="edge">
<title>Node6&#45;&gt;Node7</title>
<g id="a_edge8_Node000006_Node000007"><a xlink:title=" ">
<path fill="none" stroke="#63b8ff" d="M308.43,-75.91C317.18,-71.59 327.7,-66.4 337.33,-61.65"/>
<polygon fill="#63b8ff" stroke="#63b8ff" points="339.16,-64.65 346.58,-57.09 336.06,-58.37 339.16,-64.65"/>
</a>
</g>
</g>
<!-- Node7&#45;&gt;Node3 -->
<g id="edge9_Node000007_Node000003" class="edge">
<title>Node7&#45;&gt;Node3</title>
<g id="a_edge9_Node000007_Node000003"><a xlink:title=" ">
<path fill="none" stroke="#63b8ff" d="M389.26,-56.89C399.41,-61.38 411.77,-66.84 422.95,-71.78"/>
<polygon fill="#63b8ff" stroke="#63b8ff" points="421.83,-75.11 432.39,-75.95 424.66,-68.71 421.83,-75.11"/>
</a>
</g>
</g>
<!-- Node8&#45;&gt;Node3 -->
<g id="edge12_Node000008_Node000003" class="edge">
<title>Node8&#45;&gt;Node3</title>
<g id="a_edge12_Node000008_Node000003"><a xlink:title=" ">
<path fill="none" stroke="#63b8ff" d="M309.12,-10.52C330.03,-12.25 363.23,-16.91 389,-29.5 408.32,-38.94 426.53,-55.54 438.72,-68.23"/>
<polygon fill="#63b8ff" stroke="#63b8ff" points="436.46,-70.93 445.83,-75.88 441.59,-66.17 436.46,-70.93"/>
</a>
</g>
</g>
<!-- Node8&#45;&gt;Node7 -->
<g id="edge13_Node000008_Node000007" class="edge">
<title>Node8&#45;&gt;Node7</title>
<g id="a_edge13_Node000008_Node000007"><a xlink:title=" ">
<path fill="none" stroke="#63b8ff" d="M308.43,-19.09C317.18,-23.41 327.7,-28.6 337.33,-33.35"/>
<polygon fill="#63b8ff" stroke="#63b8ff" points="336.06,-36.63 346.58,-37.91 339.16,-30.35 336.06,-36.63"/>
</a>
</g>
</g>
</g>
</svg>
