<?xml version="1.0" encoding="UTF-8" standalone="no"?>
<!DOCTYPE svg PUBLIC "-//W3C//DTD SVG 1.1//EN"
 "http://www.w3.org/Graphics/SVG/1.1/DTD/svg11.dtd">
<!-- Generated by graphviz version 2.43.0 (0)
 -->
<!-- Title: bprintf Pages: 1 -->
<svg width="663pt" height="164pt"
 viewBox="0.00 0.00 663.00 164.04" xmlns="http://www.w3.org/2000/svg" xmlns:xlink="http://www.w3.org/1999/xlink">
<g id="graph0" class="graph" transform="scale(1 1) rotate(0) translate(4 160.04)">
<title>bprintf</title>
<!-- Node1 -->
<g id="Node000001" class="node">
<title>Node1</title>
<g id="a_Node000001"><a xlink:title=" ">
<polygon fill="#999999" stroke="#666666" points="49,-95 0,-95 0,-76 49,-76 49,-95"/>
<text text-anchor="middle" x="24.5" y="-83" font-family="Helvetica,sans-Serif" font-size="10.00">bprintf</text>
</a>
</g>
</g>
<!-- Node2 -->
<g id="Node000002" class="node">
<title>Node2</title>
<g id="a_Node000002"><a xlink:href="printf_8h.html#a65fa2c2b1fdeb49ee1d35b47be733d17" target="_top" xlink:title=" ">
<polygon fill="white" stroke="#666666" points="140,-95 85,-95 85,-76 140,-76 140,-95"/>
<text text-anchor="middle" x="112.5" y="-83" font-family="Helvetica,sans-Serif" font-size="10.00">vbprintf</text>
</a>
</g>
</g>
<!-- Node1&#45;&gt;Node2 -->
<g id="edge1_Node000001_Node000002" class="edge">
<title>Node1&#45;&gt;Node2</title>
<g id="a_edge1_Node000001_Node000002"><a xlink:title=" ">
<path fill="none" stroke="#63b8ff" d="M49.46,-85.5C57.3,-85.5 66.2,-85.5 74.77,-85.5"/>
<polygon fill="#63b8ff" stroke="#63b8ff" points="74.95,-89 84.95,-85.5 74.95,-82 74.95,-89"/>
</a>
</g>
</g>
<!-- Node3 -->
<g id="Node000003" class="node">
<title>Node3</title>
<g id="a_Node000003"><a xlink:href="printf_8c.html#a5b328a8f32f082a641944307c97f9a34" target="_top" xlink:title=" ">
<polygon fill="white" stroke="#666666" points="215,-95 176,-95 176,-76 215,-76 215,-95"/>
<text text-anchor="middle" x="195.5" y="-83" font-family="Helvetica,sans-Serif" font-size="10.00">print</text>
</a>
</g>
</g>
<!-- Node2&#45;&gt;Node3 -->
<g id="edge2_Node000002_Node000003" class="edge">
<title>Node2&#45;&gt;Node3</title>
<g id="a_edge2_Node000002_Node000003"><a xlink:title=" ">
<path fill="none" stroke="#63b8ff" d="M140.02,-85.5C148.26,-85.5 157.38,-85.5 165.77,-85.5"/>
<polygon fill="#63b8ff" stroke="#63b8ff" points="165.87,-89 175.87,-85.5 165.87,-82 165.87,-89"/>
</a>
</g>
</g>
<!-- Node4 -->
<g id="Node000004" class="node">
<title>Node4</title>
<g id="a_Node000004"><a xlink:href="printf_8c.html#a467a00da8c720b8dddc7088e2805291c" target="_top" xlink:title=" ">
<polygon fill="white" stroke="#666666" points="566,-95 506,-95 506,-76 566,-76 566,-95"/>
<text text-anchor="middle" x="536" y="-83" font-family="Helvetica,sans-Serif" font-size="10.00">printchar</text>
</a>
</g>
</g>
<!-- Node3&#45;&gt;Node4 -->
<g id="edge3_Node000003_Node000004" class="edge">
<title>Node3&#45;&gt;Node4</title>
<g id="a_edge3_Node000003_Node000004"><a xlink:title=" ">
<path fill="none" stroke="#63b8ff" d="M202.07,-95.03C210.6,-108.57 228.34,-132.81 251,-142.5 341.36,-181.12 459.24,-127.57 509.99,-100.06"/>
<polygon fill="#63b8ff" stroke="#63b8ff" points="511.89,-103.01 518.94,-95.1 508.49,-96.89 511.89,-103.01"/>
</a>
</g>
</g>
<!-- Node6 -->
<g id="Node000006" class="node">
<title>Node6</title>
<g id="a_Node000006"><a xlink:href="printf_8c.html#a2c37f08c54b3dc54d13030c62cba67a7" target="_top" xlink:title=" ">
<polygon fill="white" stroke="#666666" points="312,-133 251,-133 251,-114 312,-114 312,-133"/>
<text text-anchor="middle" x="281.5" y="-121" font-family="Helvetica,sans-Serif" font-size="10.00">printfloat</text>
</a>
</g>
</g>
<!-- Node3&#45;&gt;Node6 -->
<g id="edge5_Node000003_Node000006" class="edge">
<title>Node3&#45;&gt;Node6</title>
<g id="a_edge5_Node000003_Node000006"><a xlink:title=" ">
<path fill="none" stroke="#63b8ff" d="M215.14,-93.93C225.34,-98.55 238.23,-104.38 249.86,-109.64"/>
<polygon fill="#63b8ff" stroke="#63b8ff" points="248.69,-112.95 259.25,-113.88 251.58,-106.57 248.69,-112.95"/>
</a>
</g>
</g>
<!-- Node7 -->
<g id="Node000007" class="node">
<title>Node7</title>
<g id="a_Node000007"><a xlink:href="printf_8c.html#ad9c642f8af1fe47d03e648b146da3b8d" target="_top" xlink:title=" ">
<polygon fill="white" stroke="#666666" points="390,-95 348,-95 348,-76 390,-76 390,-95"/>
<text text-anchor="middle" x="369" y="-83" font-family="Helvetica,sans-Serif" font-size="10.00">printi</text>
</a>
</g>
</g>
<!-- Node3&#45;&gt;Node7 -->
<g id="edge11_Node000003_Node000007" class="edge">
<title>Node3&#45;&gt;Node7</title>
<g id="a_edge11_Node000003_Node000007"><a xlink:title=" ">
<path fill="none" stroke="#63b8ff" d="M215.18,-85.5C244.6,-85.5 302.04,-85.5 337.51,-85.5"/>
<polygon fill="#63b8ff" stroke="#63b8ff" points="337.76,-89 347.76,-85.5 337.76,-82 337.76,-89"/>
</a>
</g>
</g>
<!-- Node8 -->
<g id="Node000008" class="node">
<title>Node8</title>
<g id="a_Node000008"><a xlink:href="printf_8c.html#a6ce76a789a6153b7e1b16bc3a6969563" target="_top" xlink:title=" ">
<polygon fill="white" stroke="#666666" points="470,-57 426,-57 426,-38 470,-38 470,-57"/>
<text text-anchor="middle" x="448" y="-45" font-family="Helvetica,sans-Serif" font-size="10.00">prints</text>
</a>
</g>
</g>
<!-- Node3&#45;&gt;Node8 -->
<g id="edge15_Node000003_Node000008" class="edge">
<title>Node3&#45;&gt;Node8</title>
<g id="a_edge15_Node000003_Node000008"><a xlink:title=" ">
<path fill="none" stroke="#63b8ff" d="M215.33,-82.64C258.12,-76.15 363.05,-60.24 415.74,-52.24"/>
<polygon fill="#63b8ff" stroke="#63b8ff" points="416.49,-55.67 425.85,-50.71 415.44,-48.75 416.49,-55.67"/>
</a>
</g>
</g>
<!-- Node9 -->
<g id="Node000009" class="node">
<title>Node9</title>
<g id="a_Node000009"><a xlink:href="printf_8c.html#a700fcb0af9d5d9311fe8a86380747db7" target="_top" xlink:title=" ">
<polygon fill="white" stroke="#666666" points="390,-19 348,-19 348,0 390,0 390,-19"/>
<text text-anchor="middle" x="369" y="-7" font-family="Helvetica,sans-Serif" font-size="10.00">printl</text>
</a>
</g>
</g>
<!-- Node3&#45;&gt;Node9 -->
<g id="edge12_Node000003_Node000009" class="edge">
<title>Node3&#45;&gt;Node9</title>
<g id="a_edge12_Node000003_Node000009"><a xlink:title=" ">
<path fill="none" stroke="#63b8ff" d="M203.82,-75.75C213.32,-63.82 231.07,-43.93 251,-33.5 278.21,-19.26 313.09,-13.47 337.66,-11.11"/>
<polygon fill="#63b8ff" stroke="#63b8ff" points="338.15,-14.58 347.83,-10.27 337.58,-7.6 338.15,-14.58"/>
</a>
</g>
</g>
<!-- Node5 -->
<g id="Node000005" class="node">
<title>Node5</title>
<g id="a_Node000005"><a xlink:href="printf_8c.html#af4de2514b7778805db3815e8dd6cf09a" target="_top" xlink:title=" ">
<polygon fill="white" stroke="#666666" points="655,-95 602,-95 602,-76 655,-76 655,-95"/>
<text text-anchor="middle" x="628.5" y="-83" font-family="Helvetica,sans-Serif" font-size="10.00">putchar</text>
</a>
</g>
</g>
<!-- Node4&#45;&gt;Node5 -->
<g id="edge4_Node000004_Node000005" class="edge">
<title>Node4&#45;&gt;Node5</title>
<g id="a_edge4_Node000004_Node000005"><a xlink:title=" ">
<path fill="none" stroke="#63b8ff" d="M566.13,-85.5C574.29,-85.5 583.25,-85.5 591.74,-85.5"/>
<polygon fill="#63b8ff" stroke="#63b8ff" points="591.78,-89 601.78,-85.5 591.78,-82 591.78,-89"/>
</a>
</g>
</g>
<!-- Node6&#45;&gt;Node4 -->
<g id="edge6_Node000006_Node000004" class="edge">
<title>Node6&#45;&gt;Node4</title>
<g id="a_edge6_Node000006_Node000004"><a xlink:title=" ">
<path fill="none" stroke="#63b8ff" d="M312.17,-120.49C349.23,-116.55 414.53,-109.01 470,-99.5 478.5,-98.04 487.58,-96.24 496.18,-94.42"/>
<polygon fill="#63b8ff" stroke="#63b8ff" points="496.95,-97.84 505.98,-92.3 495.47,-91 496.95,-97.84"/>
</a>
</g>
</g>
<!-- Node6&#45;&gt;Node7 -->
<g id="edge7_Node000006_Node000007" class="edge">
<title>Node6&#45;&gt;Node7</title>
<g id="a_edge7_Node000006_Node000007"><a xlink:title=" ">
<path fill="none" stroke="#63b8ff" d="M304.08,-113.91C314.59,-109.24 327.39,-103.55 338.76,-98.5"/>
<polygon fill="#63b8ff" stroke="#63b8ff" points="340.18,-101.69 347.9,-94.43 337.34,-95.3 340.18,-101.69"/>
</a>
</g>
</g>
<!-- Node7&#45;&gt;Node4 -->
<g id="edge8_Node000007_Node000004" class="edge">
<title>Node7&#45;&gt;Node4</title>
<g id="a_edge8_Node000007_Node000004"><a xlink:title=" ">
<path fill="none" stroke="#63b8ff" d="M390.23,-85.5C416.4,-85.5 462.55,-85.5 495.72,-85.5"/>
<polygon fill="#63b8ff" stroke="#63b8ff" points="495.99,-89 505.99,-85.5 495.99,-82 495.99,-89"/>
</a>
</g>
</g>
<!-- Node7&#45;&gt;Node8 -->
<g id="edge9_Node000007_Node000008" class="edge">
<title>Node7&#45;&gt;Node8</title>
<g id="a_edge9_Node000007_Node000008"><a xlink:title=" ">
<path fill="none" stroke="#63b8ff" d="M389.43,-75.91C398.18,-71.59 408.7,-66.4 418.33,-61.65"/>
<polygon fill="#63b8ff" stroke="#63b8ff" points="420.16,-64.65 427.58,-57.09 417.06,-58.37 420.16,-64.65"/>
</a>
</g>
</g>
<!-- Node8&#45;&gt;Node4 -->
<g id="edge10_Node000008_Node000004" class="edge">
<title>Node8&#45;&gt;Node4</title>
<g id="a_edge10_Node000008_Node000004"><a xlink:title=" ">
<path fill="none" stroke="#63b8ff" d="M470.26,-56.89C480.41,-61.38 492.77,-66.84 503.95,-71.78"/>
<polygon fill="#63b8ff" stroke="#63b8ff" points="502.83,-75.11 513.39,-75.95 505.66,-68.71 502.83,-75.11"/>
</a>
</g>
</g>
<!-- Node9&#45;&gt;Node4 -->
<g id="edge13_Node000009_Node000004" class="edge">
<title>Node9&#45;&gt;Node4</title>
<g id="a_edge13_Node000009_Node000004"><a xlink:title=" ">
<path fill="none" stroke="#63b8ff" d="M390.12,-10.52C411.03,-12.25 444.23,-16.91 470,-29.5 489.32,-38.94 507.53,-55.54 519.72,-68.23"/>
<polygon fill="#63b8ff" stroke="#63b8ff" points="517.46,-70.93 526.83,-75.88 522.59,-66.17 517.46,-70.93"/>
</a>
</g>
</g>
<!-- Node9&#45;&gt;Node8 -->
<g id="edge14_Node000009_Node000008" class="edge">
<title>Node9&#45;&gt;Node8</title>
<g id="a_edge14_Node000009_Node000008"><a xlink:title=" ">
<path fill="none" stroke="#63b8ff" d="M389.43,-19.09C398.18,-23.41 408.7,-28.6 418.33,-33.35"/>
<polygon fill="#63b8ff" stroke="#63b8ff" points="417.06,-36.63 427.58,-37.91 420.16,-30.35 417.06,-36.63"/>
</a>
</g>
</g>
</g>
</svg>
