<?xml version="1.0" encoding="UTF-8" standalone="no"?>
<!DOCTYPE svg PUBLIC "-//W3C//DTD SVG 1.1//EN"
 "http://www.w3.org/Graphics/SVG/1.1/DTD/svg11.dtd">
<!-- Generated by graphviz version 2.43.0 (0)
 -->
<!-- Title: bprintf Pages: 1 -->
<svg width="708pt" height="202pt"
 viewBox="0.00 0.00 708.00 202.28" xmlns="http://www.w3.org/2000/svg" xmlns:xlink="http://www.w3.org/1999/xlink">
<g id="graph0" class="graph" transform="scale(1 1) rotate(0) translate(4 198.28)">
<title>bprintf</title>
<!-- Node1 -->
<g id="Node000001" class="node">
<title>Node1</title>
<g id="a_Node000001"><a xlink:title=" ">
<polygon fill="#999999" stroke="#666666" points="49,-79.01 0,-79.01 0,-60.01 49,-60.01 49,-79.01"/>
<text text-anchor="middle" x="24.5" y="-67.01" font-family="Helvetica,sans-Serif" font-size="10.00">bprintf</text>
</a>
</g>
</g>
<!-- Node2 -->
<g id="Node000002" class="node">
<title>Node2</title>
<g id="a_Node000002"><a xlink:href="printf_8h.html#a65fa2c2b1fdeb49ee1d35b47be733d17" target="_top" xlink:title=" ">
<polygon fill="white" stroke="#666666" points="140,-79.01 85,-79.01 85,-60.01 140,-60.01 140,-79.01"/>
<text text-anchor="middle" x="112.5" y="-67.01" font-family="Helvetica,sans-Serif" font-size="10.00">vbprintf</text>
</a>
</g>
</g>
<!-- Node1&#45;&gt;Node2 -->
<g id="edge1_Node000001_Node000002" class="edge">
<title>Node1&#45;&gt;Node2</title>
<g id="a_edge1_Node000001_Node000002"><a xlink:title=" ">
<path fill="none" stroke="#63b8ff" d="M49.46,-69.51C57.3,-69.51 66.2,-69.51 74.77,-69.51"/>
<polygon fill="#63b8ff" stroke="#63b8ff" points="74.95,-73.01 84.95,-69.51 74.95,-66.01 74.95,-73.01"/>
</a>
</g>
</g>
<!-- Node3 -->
<g id="Node000003" class="node">
<title>Node3</title>
<g id="a_Node000003"><a xlink:href="printf_8c.html#aa0585acb8fbf31a90ffbf65ba543abe1" target="_top" xlink:title=" ">
<polygon fill="white" stroke="#666666" points="215,-79.01 176,-79.01 176,-60.01 215,-60.01 215,-79.01"/>
<text text-anchor="middle" x="195.5" y="-67.01" font-family="Helvetica,sans-Serif" font-size="10.00">print</text>
</a>
</g>
</g>
<!-- Node2&#45;&gt;Node3 -->
<g id="edge2_Node000002_Node000003" class="edge">
<title>Node2&#45;&gt;Node3</title>
<g id="a_edge2_Node000002_Node000003"><a xlink:title=" ">
<path fill="none" stroke="#63b8ff" d="M140.02,-69.51C148.26,-69.51 157.38,-69.51 165.77,-69.51"/>
<polygon fill="#63b8ff" stroke="#63b8ff" points="165.87,-73.01 175.87,-69.51 165.87,-66.01 165.87,-73.01"/>
</a>
</g>
</g>
<!-- Node4 -->
<g id="Node000004" class="node">
<title>Node4</title>
<g id="a_Node000004"><a xlink:href="printf_8c.html#a7db7a232586308b02fc3760686d33e28" target="_top" xlink:title=" ">
<polygon fill="white" stroke="#666666" points="611,-146.01 551,-146.01 551,-127.01 611,-127.01 611,-146.01"/>
<text text-anchor="middle" x="581" y="-134.01" font-family="Helvetica,sans-Serif" font-size="10.00">printchar</text>
</a>
</g>
</g>
<!-- Node3&#45;&gt;Node4 -->
<g id="edge3_Node000003_Node000004" class="edge">
<title>Node3&#45;&gt;Node4</title>
<g id="a_edge3_Node000003_Node000004"><a xlink:title=" ">
<path fill="none" stroke="#63b8ff" d="M205.62,-79.09C227.56,-101.36 286.1,-156.19 348,-175.51 418.87,-197.63 443.9,-200.9 515,-179.51 532.48,-174.25 549.58,-162.6 561.85,-152.75"/>
<polygon fill="#63b8ff" stroke="#63b8ff" points="564.11,-155.42 569.52,-146.32 559.61,-150.06 564.11,-155.42"/>
</a>
</g>
</g>
<!-- Node6 -->
<g id="Node000006" class="node">
<title>Node6</title>
<g id="a_Node000006"><a xlink:href="printf_8c.html#a4e12f38d03cb05b93d73df6a33fcf44d" target="_top" xlink:title=" ">
<polygon fill="white" stroke="#666666" points="312,-79.01 251,-79.01 251,-60.01 312,-60.01 312,-79.01"/>
<text text-anchor="middle" x="281.5" y="-67.01" font-family="Helvetica,sans-Serif" font-size="10.00">printfloat</text>
</a>
</g>
</g>
<!-- Node3&#45;&gt;Node6 -->
<g id="edge5_Node000003_Node000006" class="edge">
<title>Node3&#45;&gt;Node6</title>
<g id="a_edge5_Node000003_Node000006"><a xlink:title=" ">
<path fill="none" stroke="#63b8ff" d="M215.14,-69.51C222.65,-69.51 231.61,-69.51 240.46,-69.51"/>
<polygon fill="#63b8ff" stroke="#63b8ff" points="240.69,-73.01 250.69,-69.51 240.69,-66.01 240.69,-73.01"/>
</a>
</g>
</g>
<!-- Node8 -->
<g id="Node000008" class="node">
<title>Node8</title>
<g id="a_Node000008"><a xlink:href="printf_8c.html#adfff6d9f2c0e097309c2eecbaefffadc" target="_top" xlink:title=" ">
<polygon fill="white" stroke="#666666" points="390,-32.01 348,-32.01 348,-13.01 390,-13.01 390,-32.01"/>
<text text-anchor="middle" x="369" y="-20.01" font-family="Helvetica,sans-Serif" font-size="10.00">printi</text>
</a>
</g>
</g>
<!-- Node3&#45;&gt;Node8 -->
<g id="edge14_Node000003_Node000008" class="edge">
<title>Node3&#45;&gt;Node8</title>
<g id="a_edge14_Node000003_Node000008"><a xlink:title=" ">
<path fill="none" stroke="#63b8ff" d="M215.02,-62.53C225.49,-58.72 238.88,-54.06 251,-50.51 280.33,-41.91 314.36,-33.99 338.13,-28.79"/>
<polygon fill="#63b8ff" stroke="#63b8ff" points="338.93,-32.2 347.97,-26.66 337.45,-25.35 338.93,-32.2"/>
</a>
</g>
</g>
<!-- Node9 -->
<g id="Node000009" class="node">
<title>Node9</title>
<g id="a_Node000009"><a xlink:href="printf_8c.html#a82b717dcaae3a36d5c6a088c211f0b26" target="_top" xlink:title=" ">
<polygon fill="white" stroke="#666666" points="492.5,-70.01 448.5,-70.01 448.5,-51.01 492.5,-51.01 492.5,-70.01"/>
<text text-anchor="middle" x="470.5" y="-58.01" font-family="Helvetica,sans-Serif" font-size="10.00">prints</text>
</a>
</g>
</g>
<!-- Node3&#45;&gt;Node9 -->
<g id="edge19_Node000003_Node000009" class="edge">
<title>Node3&#45;&gt;Node9</title>
<g id="a_edge19_Node000003_Node000009"><a xlink:title=" ">
<path fill="none" stroke="#63b8ff" d="M207.93,-59.86C218.5,-51.35 234.97,-39.16 251,-31.51 291.5,-12.2 303.57,-9.79 348,-3.51 366.48,-0.9 372.23,2.2 390,-3.51 414.56,-11.4 437.96,-29.99 452.93,-43.81"/>
<polygon fill="#63b8ff" stroke="#63b8ff" points="450.69,-46.51 460.34,-50.9 455.53,-41.45 450.69,-46.51"/>
</a>
</g>
</g>
<!-- Node10 -->
<g id="Node000010" class="node">
<title>Node10</title>
<g id="a_Node000010"><a xlink:href="printf_8c.html#a44b3fa8064b83d7df40fc6a87f821298" target="_top" xlink:title=" ">
<polygon fill="white" stroke="#666666" points="390,-146.01 348,-146.01 348,-127.01 390,-127.01 390,-146.01"/>
<text text-anchor="middle" x="369" y="-134.01" font-family="Helvetica,sans-Serif" font-size="10.00">printl</text>
</a>
</g>
</g>
<!-- Node3&#45;&gt;Node10 -->
<g id="edge15_Node000003_Node000010" class="edge">
<title>Node3&#45;&gt;Node10</title>
<g id="a_edge15_Node000003_Node000010"><a xlink:title=" ">
<path fill="none" stroke="#63b8ff" d="M215.18,-76.81C244.86,-88.4 303.03,-111.13 338.42,-124.95"/>
<polygon fill="#63b8ff" stroke="#63b8ff" points="337.17,-128.22 347.76,-128.6 339.71,-121.7 337.17,-128.22"/>
</a>
</g>
</g>
<!-- Node5 -->
<g id="Node000005" class="node">
<title>Node5</title>
<g id="a_Node000005"><a xlink:href="printf_8c.html#af4de2514b7778805db3815e8dd6cf09a" target="_top" xlink:title=" ">
<polygon fill="white" stroke="#666666" points="700,-146.01 647,-146.01 647,-127.01 700,-127.01 700,-146.01"/>
<text text-anchor="middle" x="673.5" y="-134.01" font-family="Helvetica,sans-Serif" font-size="10.00">putchar</text>
</a>
</g>
</g>
<!-- Node4&#45;&gt;Node5 -->
<g id="edge4_Node000004_Node000005" class="edge">
<title>Node4&#45;&gt;Node5</title>
<g id="a_edge4_Node000004_Node000005"><a xlink:title=" ">
<path fill="none" stroke="#63b8ff" d="M611.13,-136.51C619.29,-136.51 628.25,-136.51 636.74,-136.51"/>
<polygon fill="#63b8ff" stroke="#63b8ff" points="636.78,-140.01 646.78,-136.51 636.78,-133.01 636.78,-140.01"/>
</a>
</g>
</g>
<!-- Node6&#45;&gt;Node4 -->
<g id="edge7_Node000006_Node000004" class="edge">
<title>Node6&#45;&gt;Node4</title>
<g id="a_edge7_Node000006_Node000004"><a xlink:title=" ">
<path fill="none" stroke="#63b8ff" d="M286.3,-79.06C294.37,-97.87 315.21,-139.26 348,-155.51 412.61,-187.51 499.84,-165.68 546.79,-149.51"/>
<polygon fill="#63b8ff" stroke="#63b8ff" points="548.2,-152.72 556.45,-146.06 545.85,-146.13 548.2,-152.72"/>
</a>
</g>
</g>
<!-- Node7 -->
<g id="Node000007" class="node">
<title>Node7</title>
<g id="a_Node000007"><a xlink:href="printf_8c.html#a81ec43c10454c3c5036f9876f067d219" target="_top" xlink:title=" ">
<polygon fill="white" stroke="#666666" points="515,-108.01 426,-108.01 426,-89.01 515,-89.01 515,-108.01"/>
<text text-anchor="middle" x="470.5" y="-96.01" font-family="Helvetica,sans-Serif" font-size="10.00">_write_number</text>
</a>
</g>
</g>
<!-- Node6&#45;&gt;Node7 -->
<g id="edge6_Node000006_Node000007" class="edge">
<title>Node6&#45;&gt;Node7</title>
<g id="a_edge6_Node000006_Node000007"><a xlink:title=" ">
<path fill="none" stroke="#63b8ff" d="M312.13,-74.1C339.85,-78.4 381.92,-84.93 415.58,-90.15"/>
<polygon fill="#63b8ff" stroke="#63b8ff" points="415.32,-93.65 425.74,-91.72 416.39,-86.73 415.32,-93.65"/>
</a>
</g>
</g>
<!-- Node6&#45;&gt;Node8 -->
<g id="edge8_Node000006_Node000008" class="edge">
<title>Node6&#45;&gt;Node8</title>
<g id="a_edge8_Node000006_Node000008"><a xlink:title=" ">
<path fill="none" stroke="#63b8ff" d="M299.8,-60C311.78,-53.42 327.94,-44.53 341.52,-37.07"/>
<polygon fill="#63b8ff" stroke="#63b8ff" points="343.35,-40.05 350.43,-32.17 339.98,-33.92 343.35,-40.05"/>
</a>
</g>
</g>
<!-- Node6&#45;&gt;Node9 -->
<g id="edge13_Node000006_Node000009" class="edge">
<title>Node6&#45;&gt;Node9</title>
<g id="a_edge13_Node000006_Node000009"><a xlink:title=" ">
<path fill="none" stroke="#63b8ff" d="M312.13,-68.08C346.57,-66.43 403.15,-63.7 438.26,-62.01"/>
<polygon fill="#63b8ff" stroke="#63b8ff" points="438.6,-65.5 448.42,-61.52 438.27,-58.51 438.6,-65.5"/>
</a>
</g>
</g>
<!-- Node8&#45;&gt;Node4 -->
<g id="edge10_Node000008_Node000004" class="edge">
<title>Node8&#45;&gt;Node4</title>
<g id="a_edge10_Node000008_Node000004"><a xlink:title=" ">
<path fill="none" stroke="#63b8ff" d="M390.45,-20.22C420.19,-17.92 476.05,-17.6 515,-41.51 543.96,-59.29 563.13,-95.37 572.74,-117.59"/>
<polygon fill="#63b8ff" stroke="#63b8ff" points="569.55,-119.05 576.58,-126.98 576.03,-116.4 569.55,-119.05"/>
</a>
</g>
</g>
<!-- Node8&#45;&gt;Node7 -->
<g id="edge9_Node000008_Node000007" class="edge">
<title>Node8&#45;&gt;Node7</title>
<g id="a_edge9_Node000008_Node000007"><a xlink:title=" ">
<path fill="none" stroke="#63b8ff" d="M377.86,-32.28C387.98,-44.36 406.59,-65 426,-78.51 429.04,-80.63 432.35,-82.62 435.73,-84.46"/>
<polygon fill="#63b8ff" stroke="#63b8ff" points="434.23,-87.62 444.74,-88.96 437.36,-81.36 434.23,-87.62"/>
</a>
</g>
</g>
<!-- Node8&#45;&gt;Node9 -->
<g id="edge11_Node000008_Node000009" class="edge">
<title>Node8&#45;&gt;Node9</title>
<g id="a_edge11_Node000008_Node000009"><a xlink:title=" ">
<path fill="none" stroke="#63b8ff" d="M390.14,-30.2C404.15,-35.55 423.09,-42.79 438.96,-48.84"/>
<polygon fill="#63b8ff" stroke="#63b8ff" points="437.77,-52.14 448.36,-52.44 440.27,-45.6 437.77,-52.14"/>
</a>
</g>
</g>
<!-- Node9&#45;&gt;Node4 -->
<g id="edge12_Node000009_Node000004" class="edge">
<title>Node9&#45;&gt;Node4</title>
<g id="a_edge12_Node000009_Node000004"><a xlink:title=" ">
<path fill="none" stroke="#63b8ff" d="M492.52,-68.16C499.88,-71.23 508.04,-75.09 515,-79.51 532.88,-90.86 550.79,-107.02 563.27,-119.23"/>
<polygon fill="#63b8ff" stroke="#63b8ff" points="561.09,-122 570.64,-126.6 566.04,-117.05 561.09,-122"/>
</a>
</g>
</g>
<!-- Node10&#45;&gt;Node4 -->
<g id="edge17_Node000010_Node000004" class="edge">
<title>Node10&#45;&gt;Node4</title>
<g id="a_edge17_Node000010_Node000004"><a xlink:title=" ">
<path fill="none" stroke="#63b8ff" d="M390.14,-136.51C424.73,-136.51 496.03,-136.51 540.74,-136.51"/>
<polygon fill="#63b8ff" stroke="#63b8ff" points="540.95,-140.01 550.95,-136.51 540.95,-133.01 540.95,-140.01"/>
</a>
</g>
</g>
<!-- Node10&#45;&gt;Node7 -->
<g id="edge16_Node000010_Node000007" class="edge">
<title>Node10&#45;&gt;Node7</title>
<g id="a_edge16_Node000010_Node000007"><a xlink:title=" ">
<path fill="none" stroke="#63b8ff" d="M390.14,-128.82C402.99,-123.91 420,-117.42 434.97,-111.7"/>
<polygon fill="#63b8ff" stroke="#63b8ff" points="436.35,-114.91 444.45,-108.08 433.86,-108.38 436.35,-114.91"/>
</a>
</g>
</g>
<!-- Node10&#45;&gt;Node9 -->
<g id="edge18_Node000010_Node000009" class="edge">
<title>Node10&#45;&gt;Node9</title>
<g id="a_edge18_Node000010_Node000009"><a xlink:title=" ">
<path fill="none" stroke="#63b8ff" d="M377.44,-126.93C387.39,-114.61 406.12,-93.2 426,-79.51 430.03,-76.73 434.53,-74.22 439.07,-72.01"/>
<polygon fill="#63b8ff" stroke="#63b8ff" points="440.6,-75.16 448.29,-67.87 437.73,-68.77 440.6,-75.16"/>
</a>
</g>
</g>
</g>
</svg>
