<?xml version="1.0" encoding="UTF-8" standalone="no"?>
<!DOCTYPE svg PUBLIC "-//W3C//DTD SVG 1.1//EN"
 "http://www.w3.org/Graphics/SVG/1.1/DTD/svg11.dtd">
<!-- Generated by graphviz version 2.43.0 (0)
 -->
<!-- Title: printi Pages: 1 -->
<svg width="402pt" height="65pt"
 viewBox="0.00 0.00 402.00 65.00" xmlns="http://www.w3.org/2000/svg" xmlns:xlink="http://www.w3.org/1999/xlink">

<svg id="main" version="1.1" xmlns="http://www.w3.org/2000/svg" xmlns:xlink="http://www.w3.org/1999/xlink" xml:space="preserve" onload="init(evt)">
<style type="text/css"><![CDATA[
.node, .edge {opacity: 0.7;}
.node.selected, .edge.selected {opacity: 1;}
.edge:hover path { stroke: red; }
.edge:hover polygon { stroke: red; fill: red; }
]]></style>
<script type="application/ecmascript" xlink:href="svg.min.js"/>
<svg id="graph" class="graph">
<g id="graph0" class="graph" transform="scale(1 1) rotate(0) translate(4 61)">
<title>printi</title>
<!-- Node1 -->
<g id="Node000001" class="node">
<title>Node1</title>
<g id="a_Node000001"><a xlink:title=" ">
<polygon fill="#999999" stroke="#666666" points="394,-38 352,-38 352,-19 394,-19 394,-38"/>
<text text-anchor="middle" x="373" y="-26" font-family="Helvetica,sans-Serif" font-size="10.00">printi</text>
</a>
</g>
</g>
<!-- Node2 -->
<g id="Node000002" class="node">
<title>Node2</title>
<g id="a_Node000002"><a xlink:href="printf_8c.html#a5b328a8f32f082a641944307c97f9a34" target="_top" xlink:title=" ">
<polygon fill="white" stroke="#666666" points="219,-38 180,-38 180,-19 219,-19 219,-38"/>
<text text-anchor="middle" x="199.5" y="-26" font-family="Helvetica,sans-Serif" font-size="10.00">print</text>
</a>
</g>
</g>
<!-- Node1&#45;&gt;Node2 -->
<g id="edge1_Node000001_Node000002" class="edge">
<title>Node1&#45;&gt;Node2</title>
<g id="a_edge1_Node000001_Node000002"><a xlink:title=" ">
<path fill="none" stroke="#63b8ff" d="M341.75,-28.5C306.26,-28.5 248.54,-28.5 219.08,-28.5"/>
<polygon fill="#63b8ff" stroke="#63b8ff" points="341.99,-32 351.99,-28.5 341.99,-25 341.99,-32"/>
</a>
</g>
</g>
<!-- Node7 -->
<g id="Node000007" class="node">
<title>Node7</title>
<g id="a_Node000007"><a xlink:href="printf_8c.html#a2c37f08c54b3dc54d13030c62cba67a7" target="_top" xlink:title=" ">
<polygon fill="white" stroke="#666666" points="316,-19 255,-19 255,0 316,0 316,-19"/>
<text text-anchor="middle" x="285.5" y="-7" font-family="Helvetica,sans-Serif" font-size="10.00">printfloat</text>
</a>
</g>
</g>
<!-- Node1&#45;&gt;Node7 -->
<g id="edge6_Node000001_Node000007" class="edge">
<title>Node1&#45;&gt;Node7</title>
<g id="a_edge6_Node000001_Node000007"><a xlink:title=" ">
<path fill="none" stroke="#63b8ff" d="M341.93,-21.82C333.52,-19.95 324.39,-17.92 316.01,-16.06"/>
<polygon fill="#63b8ff" stroke="#63b8ff" points="341.22,-25.24 351.74,-24 342.74,-18.41 341.22,-25.24"/>
</a>
</g>
</g>
<!-- Node3 -->
<g id="Node000003" class="node">
<title>Node3</title>
<g id="a_Node000003"><a xlink:href="printf_8h.html#a89206cd7a5ee84d4340e223078709043" target="_top" xlink:title=" ">
<polygon fill="white" stroke="#666666" points="144,-57 85,-57 85,-38 144,-38 144,-57"/>
<text text-anchor="middle" x="114.5" y="-45" font-family="Helvetica,sans-Serif" font-size="10.00">v_sprintf</text>
</a>
</g>
</g>
<!-- Node2&#45;&gt;Node3 -->
<g id="edge2_Node000002_Node000003" class="edge">
<title>Node2&#45;&gt;Node3</title>
<g id="a_edge2_Node000002_Node000003"><a xlink:title=" ">
<path fill="none" stroke="#63b8ff" d="M169.67,-35.1C161.37,-37 152.32,-39.07 144.04,-40.97"/>
<polygon fill="#63b8ff" stroke="#63b8ff" points="170.7,-38.45 179.67,-32.81 169.14,-31.63 170.7,-38.45"/>
</a>
</g>
</g>
<!-- Node5 -->
<g id="Node000005" class="node">
<title>Node5</title>
<g id="a_Node000005"><a xlink:href="printf_8h.html#a65fa2c2b1fdeb49ee1d35b47be733d17" target="_top" xlink:title=" ">
<polygon fill="white" stroke="#666666" points="142,-20 87,-20 87,-1 142,-1 142,-20"/>
<text text-anchor="middle" x="114.5" y="-8" font-family="Helvetica,sans-Serif" font-size="10.00">vbprintf</text>
</a>
</g>
</g>
<!-- Node2&#45;&gt;Node5 -->
<g id="edge4_Node000002_Node000005" class="edge">
<title>Node2&#45;&gt;Node5</title>
<g id="a_edge4_Node000002_Node000005"><a xlink:title=" ">
<path fill="none" stroke="#63b8ff" d="M169.68,-22.25C160.73,-20.31 150.92,-18.18 142.13,-16.27"/>
<polygon fill="#63b8ff" stroke="#63b8ff" points="169.15,-25.72 179.67,-24.42 170.64,-18.88 169.15,-25.72"/>
</a>
</g>
</g>
<!-- Node4 -->
<g id="Node000004" class="node">
<title>Node4</title>
<g id="a_Node000004"><a xlink:href="printf_8h.html#a014f72d1eb635d44f4547d6153c9afd1" target="_top" xlink:title=" ">
<polygon fill="white" stroke="#666666" points="48.5,-57 0.5,-57 0.5,-38 48.5,-38 48.5,-57"/>
<text text-anchor="middle" x="24.5" y="-45" font-family="Helvetica,sans-Serif" font-size="10.00">sprintf</text>
</a>
</g>
</g>
<!-- Node3&#45;&gt;Node4 -->
<g id="edge3_Node000003_Node000004" class="edge">
<title>Node3&#45;&gt;Node4</title>
<g id="a_edge3_Node000003_Node000004"><a xlink:title=" ">
<path fill="none" stroke="#63b8ff" d="M74.49,-47.5C65.62,-47.5 56.47,-47.5 48.52,-47.5"/>
<polygon fill="#63b8ff" stroke="#63b8ff" points="74.69,-51 84.69,-47.5 74.69,-44 74.69,-51"/>
</a>
</g>
</g>
<!-- Node6 -->
<g id="Node000006" class="node">
<title>Node6</title>
<g id="a_Node000006"><a xlink:href="printf_8h.html#a30e09ab10214b5e9b93f4c765f373649" target="_top" xlink:title=" ">
<polygon fill="white" stroke="#666666" points="49,-20 0,-20 0,-1 49,-1 49,-20"/>
<text text-anchor="middle" x="24.5" y="-8" font-family="Helvetica,sans-Serif" font-size="10.00">bprintf</text>
</a>
</g>
</g>
<!-- Node5&#45;&gt;Node6 -->
<g id="edge5_Node000005_Node000006" class="edge">
<title>Node5&#45;&gt;Node6</title>
<g id="a_edge5_Node000005_Node000006"><a xlink:title=" ">
<path fill="none" stroke="#63b8ff" d="M76.48,-10.5C67.26,-10.5 57.62,-10.5 49.23,-10.5"/>
<polygon fill="#63b8ff" stroke="#63b8ff" points="76.62,-14 86.62,-10.5 76.62,-7 76.62,-14"/>
</a>
</g>
</g>
<!-- Node7&#45;&gt;Node2 -->
<g id="edge7_Node000007_Node000002" class="edge">
<title>Node7&#45;&gt;Node2</title>
<g id="a_edge7_Node000007_Node000002"><a xlink:title=" ">
<path fill="none" stroke="#63b8ff" d="M244.67,-18.51C235.7,-20.54 226.61,-22.6 219.02,-24.31"/>
<polygon fill="#63b8ff" stroke="#63b8ff" points="245.67,-21.87 254.65,-16.25 244.12,-15.04 245.67,-21.87"/>
</a>
</g>
</g>
</g>
</svg>
</svg>

<style type='text/css'>
<![CDATA[
[data-mouse-over-selected='false'] { opacity: 0.7; }
[data-mouse-over-selected='true']  { opacity: 1.0; }
]]>
</style>
<script type="application/ecmascript"><![CDATA[
document.addEventListener('DOMContentLoaded', (event) => {
  highlightEdges();
  highlightAdjacentNodes();
});
]]></script>
</svg>
