<?xml version="1.0" encoding="UTF-8" standalone="no"?>
<!DOCTYPE svg PUBLIC "-//W3C//DTD SVG 1.1//EN"
 "http://www.w3.org/Graphics/SVG/1.1/DTD/svg11.dtd">
<!-- Generated by graphviz version 2.43.0 (0)
 -->
<!-- Title: printchar Pages: 1 -->
<!--zoomable 164 -->

<svg id="main" version="1.1" xmlns="http://www.w3.org/2000/svg" xmlns:xlink="http://www.w3.org/1999/xlink" xml:space="preserve" onload="init(evt)">
<style type="text/css"><![CDATA[
.node, .edge {opacity: 0.7;}
.node.selected, .edge.selected {opacity: 1;}
.edge:hover path { stroke: red; }
.edge:hover polygon { stroke: red; fill: red; }
]]></style>

<defs>
  <circle id="rim" cx="0" cy="0" r="7"/>
  <circle id="rim2" cx="0" cy="0" r="3.5"/>
  <g id="zoomPlus">
    <use xlink:href="#rim" fill="#404040"><set attributeName="fill" to="#808080" begin="zoomplus.mouseover" end="zoomplus.mouseout"/></use>
    <path d="M-4,0h8M0,-4v8" fill="none" stroke="white" stroke-width="1.5" pointer-events="none"/>
  </g>
  <g id="zoomMin">
    <use xlink:href="#rim" fill="#404040"><set attributeName="fill" to="#808080" begin="zoomminus.mouseover" end="zoomminus.mouseout"/></use>
    <path d="M-4,0h8" fill="none" stroke="white" stroke-width="1.5" pointer-events="none"/>
  </g>
  <g id="arrowUp" transform="translate(30 24)">
    <use xlink:href="#rim"/>
    <path pointer-events="none" fill="none" stroke="white" stroke-width="1.5" d="M0,-3.0v7 M-2.5,-0.5L0,-3.0L2.5,-0.5"/>
  </g>
  <g id="arrowRight" transform="rotate(90) translate(36 -43)">
    <use xlink:href="#rim"/>
    <path pointer-events="none" fill="none" stroke="white" stroke-width="1.5" d="M0,-3.0v7 M-2.5,-0.5L0,-3.0L2.5,-0.5"/>
  </g>
  <g id="arrowDown" transform="rotate(180) translate(-30 -48)">
    <use xlink:href="#rim"/>
    <path pointer-events="none" fill="none" stroke="white" stroke-width="1.5" d="M0,-3.0v7 M-2.5,-0.5L0,-3.0L2.5,-0.5"/>
  </g>
  <g id="arrowLeft" transform="rotate(270) translate(-36 17)">
    <use xlink:href="#rim"/>
    <path pointer-events="none" fill="none" stroke="white" stroke-width="1.5" d="M0,-3.0v7 M-2.5,-0.5L0,-3.0L2.5,-0.5"/>
  </g>
  <g id="resetDef">
    <use xlink:href="#rim2" fill="#404040"><set attributeName="fill" to="#808080" begin="reset.mouseover" end="reset.mouseout"/></use>
  </g>
</defs>
<script type="application/ecmascript">
var viewWidth = 578;
var viewHeight = 164;
var sectionId = 'dynsection-4';
</script>
<script type="application/ecmascript" xlink:href="svg.min.js"/>
<svg id="graph" class="graph">
<g id="viewport">
<title>printchar</title>
<!-- Node1 -->
<g id="Node000001" class="node">
<title>Node1</title>
<g id="a_Node000001"><a xlink:title=" ">
<polygon fill="#999999" stroke="#666666" points="570,-95 510,-95 510,-76 570,-76 570,-95"/>
<text text-anchor="middle" x="540" y="-83" font-family="Helvetica,sans-Serif" font-size="10.00">printchar</text>
</a>
</g>
</g>
<!-- Node2 -->
<g id="Node000002" class="node">
<title>Node2</title>
<g id="a_Node000002"><a xlink:href="printf_8c.html#a5b328a8f32f082a641944307c97f9a34" target="_top" xlink:title=" ">
<polygon fill="white" stroke="#666666" points="219,-95 180,-95 180,-76 219,-76 219,-95"/>
<text text-anchor="middle" x="199.5" y="-83" font-family="Helvetica,sans-Serif" font-size="10.00">print</text>
</a>
</g>
</g>
<!-- Node1&#45;&gt;Node2 -->
<g id="edge1_Node000001_Node000002" class="edge">
<title>Node1&#45;&gt;Node2</title>
<g id="a_edge1_Node000001_Node000002"><a xlink:title=" ">
<path fill="none" stroke="#63b8ff" d="M513.99,-100.06C463.24,-127.57 345.36,-181.12 255,-142.5 232.34,-132.81 214.6,-108.57 206.07,-95.03"/>
<polygon fill="#63b8ff" stroke="#63b8ff" points="515.89,-103.01 522.94,-95.1 512.49,-96.89 515.89,-103.01"/>
</a>
</g>
</g>
<!-- Node7 -->
<g id="Node000007" class="node">
<title>Node7</title>
<g id="a_Node000007"><a xlink:href="printf_8c.html#a2c37f08c54b3dc54d13030c62cba67a7" target="_top" xlink:title=" ">
<polygon fill="white" stroke="#666666" points="316,-133 255,-133 255,-114 316,-114 316,-133"/>
<text text-anchor="middle" x="285.5" y="-121" font-family="Helvetica,sans-Serif" font-size="10.00">printfloat</text>
</a>
</g>
</g>
<!-- Node1&#45;&gt;Node7 -->
<g id="edge6_Node000001_Node000007" class="edge">
<title>Node1&#45;&gt;Node7</title>
<g id="a_edge6_Node000001_Node000007"><a xlink:title=" ">
<path fill="none" stroke="#63b8ff" d="M500.18,-94.42C491.58,-96.24 482.5,-98.04 474,-99.5 418.53,-109.01 353.23,-116.55 316.17,-120.49"/>
<polygon fill="#63b8ff" stroke="#63b8ff" points="500.95,-97.84 509.98,-92.3 499.47,-91 500.95,-97.84"/>
</a>
</g>
</g>
<!-- Node8 -->
<g id="Node000008" class="node">
<title>Node8</title>
<g id="a_Node000008"><a xlink:href="printf_8c.html#ad9c642f8af1fe47d03e648b146da3b8d" target="_top" xlink:title=" ">
<polygon fill="white" stroke="#666666" points="394,-95 352,-95 352,-76 394,-76 394,-95"/>
<text text-anchor="middle" x="373" y="-83" font-family="Helvetica,sans-Serif" font-size="10.00">printi</text>
</a>
</g>
</g>
<!-- Node1&#45;&gt;Node8 -->
<g id="edge8_Node000001_Node000008" class="edge">
<title>Node1&#45;&gt;Node8</title>
<g id="a_edge8_Node000001_Node000008"><a xlink:title=" ">
<path fill="none" stroke="#63b8ff" d="M499.58,-85.5C466.33,-85.5 420.1,-85.5 394.01,-85.5"/>
<polygon fill="#63b8ff" stroke="#63b8ff" points="499.88,-89 509.88,-85.5 499.88,-82 499.88,-89"/>
</a>
</g>
</g>
<!-- Node9 -->
<g id="Node000009" class="node">
<title>Node9</title>
<g id="a_Node000009"><a xlink:href="printf_8c.html#a700fcb0af9d5d9311fe8a86380747db7" target="_top" xlink:title=" ">
<polygon fill="white" stroke="#666666" points="394,-19 352,-19 352,0 394,0 394,-19"/>
<text text-anchor="middle" x="373" y="-7" font-family="Helvetica,sans-Serif" font-size="10.00">printl</text>
</a>
</g>
</g>
<!-- Node1&#45;&gt;Node9 -->
<g id="edge11_Node000001_Node000009" class="edge">
<title>Node1&#45;&gt;Node9</title>
<g id="a_edge11_Node000001_Node000009"><a xlink:title=" ">
<path fill="none" stroke="#63b8ff" d="M524.16,-68.23C512,-55.24 493.66,-38.09 474,-28.5 448.27,-15.95 415.06,-11.67 394.14,-10.23"/>
<polygon fill="#63b8ff" stroke="#63b8ff" points="521.58,-70.6 530.88,-75.67 526.78,-65.9 521.58,-70.6"/>
</a>
</g>
</g>
<!-- Node10 -->
<g id="Node000010" class="node">
<title>Node10</title>
<g id="a_Node000010"><a xlink:href="printf_8c.html#a6ce76a789a6153b7e1b16bc3a6969563" target="_top" xlink:title=" ">
<polygon fill="white" stroke="#666666" points="474,-57 430,-57 430,-38 474,-38 474,-57"/>
<text text-anchor="middle" x="452" y="-45" font-family="Helvetica,sans-Serif" font-size="10.00">prints</text>
</a>
</g>
</g>
<!-- Node1&#45;&gt;Node10 -->
<g id="edge13_Node000001_Node000010" class="edge">
<title>Node1&#45;&gt;Node10</title>
<g id="a_edge13_Node000001_Node000010"><a xlink:title=" ">
<path fill="none" stroke="#63b8ff" d="M507.83,-71.73C496.62,-66.78 484.25,-61.31 474.1,-56.82"/>
<polygon fill="#63b8ff" stroke="#63b8ff" points="506.74,-75.07 517.3,-75.91 509.57,-68.67 506.74,-75.07"/>
</a>
</g>
</g>
<!-- Node3 -->
<g id="Node000003" class="node">
<title>Node3</title>
<g id="a_Node000003"><a xlink:href="printf_8h.html#a89206cd7a5ee84d4340e223078709043" target="_top" xlink:title=" ">
<polygon fill="white" stroke="#666666" points="144,-114 85,-114 85,-95 144,-95 144,-114"/>
<text text-anchor="middle" x="114.5" y="-102" font-family="Helvetica,sans-Serif" font-size="10.00">v_sprintf</text>
</a>
</g>
</g>
<!-- Node2&#45;&gt;Node3 -->
<g id="edge2_Node000002_Node000003" class="edge">
<title>Node2&#45;&gt;Node3</title>
<g id="a_edge2_Node000002_Node000003"><a xlink:title=" ">
<path fill="none" stroke="#63b8ff" d="M169.67,-92.1C161.37,-94 152.32,-96.07 144.04,-97.97"/>
<polygon fill="#63b8ff" stroke="#63b8ff" points="170.7,-95.45 179.67,-89.81 169.14,-88.63 170.7,-95.45"/>
</a>
</g>
</g>
<!-- Node5 -->
<g id="Node000005" class="node">
<title>Node5</title>
<g id="a_Node000005"><a xlink:href="printf_8h.html#a65fa2c2b1fdeb49ee1d35b47be733d17" target="_top" xlink:title=" ">
<polygon fill="white" stroke="#666666" points="142,-77 87,-77 87,-58 142,-58 142,-77"/>
<text text-anchor="middle" x="114.5" y="-65" font-family="Helvetica,sans-Serif" font-size="10.00">vbprintf</text>
</a>
</g>
</g>
<!-- Node2&#45;&gt;Node5 -->
<g id="edge4_Node000002_Node000005" class="edge">
<title>Node2&#45;&gt;Node5</title>
<g id="a_edge4_Node000002_Node000005"><a xlink:title=" ">
<path fill="none" stroke="#63b8ff" d="M169.68,-79.25C160.73,-77.31 150.92,-75.18 142.13,-73.27"/>
<polygon fill="#63b8ff" stroke="#63b8ff" points="169.15,-82.72 179.67,-81.42 170.64,-75.88 169.15,-82.72"/>
</a>
</g>
</g>
<!-- Node4 -->
<g id="Node000004" class="node">
<title>Node4</title>
<g id="a_Node000004"><a xlink:href="printf_8h.html#a014f72d1eb635d44f4547d6153c9afd1" target="_top" xlink:title=" ">
<polygon fill="white" stroke="#666666" points="48.5,-114 0.5,-114 0.5,-95 48.5,-95 48.5,-114"/>
<text text-anchor="middle" x="24.5" y="-102" font-family="Helvetica,sans-Serif" font-size="10.00">sprintf</text>
</a>
</g>
</g>
<!-- Node3&#45;&gt;Node4 -->
<g id="edge3_Node000003_Node000004" class="edge">
<title>Node3&#45;&gt;Node4</title>
<g id="a_edge3_Node000003_Node000004"><a xlink:title=" ">
<path fill="none" stroke="#63b8ff" d="M74.49,-104.5C65.62,-104.5 56.47,-104.5 48.52,-104.5"/>
<polygon fill="#63b8ff" stroke="#63b8ff" points="74.69,-108 84.69,-104.5 74.69,-101 74.69,-108"/>
</a>
</g>
</g>
<!-- Node6 -->
<g id="Node000006" class="node">
<title>Node6</title>
<g id="a_Node000006"><a xlink:href="printf_8h.html#a30e09ab10214b5e9b93f4c765f373649" target="_top" xlink:title=" ">
<polygon fill="white" stroke="#666666" points="49,-77 0,-77 0,-58 49,-58 49,-77"/>
<text text-anchor="middle" x="24.5" y="-65" font-family="Helvetica,sans-Serif" font-size="10.00">bprintf</text>
</a>
</g>
</g>
<!-- Node5&#45;&gt;Node6 -->
<g id="edge5_Node000005_Node000006" class="edge">
<title>Node5&#45;&gt;Node6</title>
<g id="a_edge5_Node000005_Node000006"><a xlink:title=" ">
<path fill="none" stroke="#63b8ff" d="M76.48,-67.5C67.26,-67.5 57.62,-67.5 49.23,-67.5"/>
<polygon fill="#63b8ff" stroke="#63b8ff" points="76.62,-71 86.62,-67.5 76.62,-64 76.62,-71"/>
</a>
</g>
</g>
<!-- Node7&#45;&gt;Node2 -->
<g id="edge7_Node000007_Node000002" class="edge">
<title>Node7&#45;&gt;Node2</title>
<g id="a_edge7_Node000007_Node000002"><a xlink:title=" ">
<path fill="none" stroke="#63b8ff" d="M253.9,-109.66C242.25,-104.39 229.33,-98.54 219.12,-93.92"/>
<polygon fill="#63b8ff" stroke="#63b8ff" points="252.75,-112.98 263.3,-113.91 255.63,-106.6 252.75,-112.98"/>
</a>
</g>
</g>
<!-- Node8&#45;&gt;Node2 -->
<g id="edge9_Node000008_Node000002" class="edge">
<title>Node8&#45;&gt;Node2</title>
<g id="a_edge9_Node000008_Node000002"><a xlink:title=" ">
<path fill="none" stroke="#63b8ff" d="M341.75,-85.5C306.26,-85.5 248.54,-85.5 219.08,-85.5"/>
<polygon fill="#63b8ff" stroke="#63b8ff" points="341.99,-89 351.99,-85.5 341.99,-82 341.99,-89"/>
</a>
</g>
</g>
<!-- Node8&#45;&gt;Node7 -->
<g id="edge10_Node000008_Node000007" class="edge">
<title>Node8&#45;&gt;Node7</title>
<g id="a_edge10_Node000008_Node000007"><a xlink:title=" ">
<path fill="none" stroke="#63b8ff" d="M342.29,-98.7C331.05,-103.7 318.47,-109.29 308.11,-113.89"/>
<polygon fill="#63b8ff" stroke="#63b8ff" points="344.02,-101.77 351.74,-94.51 341.18,-95.37 344.02,-101.77"/>
</a>
</g>
</g>
<!-- Node9&#45;&gt;Node2 -->
<g id="edge12_Node000009_Node000002" class="edge">
<title>Node9&#45;&gt;Node2</title>
<g id="a_edge12_Node000009_Node000002"><a xlink:title=" ">
<path fill="none" stroke="#63b8ff" d="M341.66,-11.11C317.09,-13.47 282.21,-19.26 255,-33.5 235.07,-43.93 217.32,-63.82 207.82,-75.75"/>
<polygon fill="#63b8ff" stroke="#63b8ff" points="342.15,-14.58 351.83,-10.27 341.58,-7.6 342.15,-14.58"/>
</a>
</g>
</g>
<!-- Node10&#45;&gt;Node2 -->
<g id="edge14_Node000010_Node000002" class="edge">
<title>Node10&#45;&gt;Node2</title>
<g id="a_edge14_Node000010_Node000002"><a xlink:title=" ">
<path fill="none" stroke="#63b8ff" d="M419.49,-52.28C366.6,-60.3 261.59,-76.23 219.05,-82.69"/>
<polygon fill="#63b8ff" stroke="#63b8ff" points="420.28,-55.7 429.64,-50.74 419.23,-48.78 420.28,-55.7"/>
</a>
</g>
</g>
<!-- Node10&#45;&gt;Node8 -->
<g id="edge15_Node000010_Node000008" class="edge">
<title>Node10&#45;&gt;Node8</title>
<g id="a_edge15_Node000010_Node000008"><a xlink:title=" ">
<path fill="none" stroke="#63b8ff" d="M422.33,-61.65C412.69,-66.41 402.18,-71.59 393.42,-75.91"/>
<polygon fill="#63b8ff" stroke="#63b8ff" points="424.15,-64.65 431.57,-57.09 421.05,-58.38 424.15,-64.65"/>
</a>
</g>
</g>
<!-- Node10&#45;&gt;Node9 -->
<g id="edge16_Node000010_Node000009" class="edge">
<title>Node10&#45;&gt;Node9</title>
<g id="a_edge16_Node000010_Node000009"><a xlink:title=" ">
<path fill="none" stroke="#63b8ff" d="M422.33,-33.35C412.69,-28.59 402.18,-23.41 393.42,-19.09"/>
<polygon fill="#63b8ff" stroke="#63b8ff" points="421.05,-36.62 431.57,-37.91 424.15,-30.35 421.05,-36.62"/>
</a>
</g>
</g>
</g>
</svg>

<g id="navigator" transform="translate(0 0)" fill="#404254">
  <rect fill="#f2f5e9" fill-opacity="0.5" stroke="#606060" stroke-width=".5" x="0" y="0" width="60" height="60"/>
  <use id="zoomplus" xlink:href="#zoomPlus" x="17" y="9" onmousedown="handleZoom(evt,'in')"/>
  <use id="zoomminus" xlink:href="#zoomMin" x="42" y="9" onmousedown="handleZoom(evt,'out')"/>
  <use id="reset" xlink:href="#resetDef" x="30" y="36" onmousedown="handleReset()"/>
   <use id="arrowup" xlink:href="#arrowUp" x="0" y="0" onmousedown="handlePan(0,-1)"/>
  <use id="arrowright" xlink:href="#arrowRight" x="0" y="0" onmousedown="handlePan(1,0)"/>
  <use id="arrowdown" xlink:href="#arrowDown" x="0" y="0" onmousedown="handlePan(0,1)"/>
  <use id="arrowleft" xlink:href="#arrowLeft" x="0" y="0" onmousedown="handlePan(-1,0)"/>
</g>
<svg viewBox="0 0 15 15" width="100%" height="30px" preserveAspectRatio="xMaxYMin meet">
 <g id="arrow_out" transform="scale(0.3 0.3)">
  <a xlink:href="printf_8c_a467a00da8c720b8dddc7088e2805291c_icgraph_org.svg" target="_base">
   <rect id="button" ry="5" rx="5" y="6" x="6" height="38" width="38"
        fill="#f2f5e9" fill-opacity="0.5" stroke="#606060" stroke-width="1.0"/>
   <path id="arrow"
     d="M 11.500037,31.436501 C 11.940474,20.09759 22.043105,11.32322 32.158766,21.979434 L 37.068811,17.246167 C 37.068811,17.246167 37.088388,32 37.088388,32 L 22.160133,31.978069 C 22.160133,31.978069 26.997745,27.140456 26.997745,27.140456 C 18.528582,18.264221 13.291696,25.230495 11.500037,31.436501 z"
     style="fill:#404040;"/>
  </a>
 </g>
</svg>

<style type='text/css'>
<![CDATA[
[data-mouse-over-selected='false'] { opacity: 0.7; }
[data-mouse-over-selected='true']  { opacity: 1.0; }
]]>
</style>
<script type="application/ecmascript"><![CDATA[
document.addEventListener('DOMContentLoaded', (event) => {
  highlightEdges();
  highlightAdjacentNodes();
});
]]></script>
</svg>
