<?xml version="1.0" encoding="UTF-8" standalone="no"?>
<!DOCTYPE svg PUBLIC "-//W3C//DTD SVG 1.1//EN"
 "http://www.w3.org/Graphics/SVG/1.1/DTD/svg11.dtd">
<!-- Generated by graphviz version 2.43.0 (0)
 -->
<!-- Title: _write_number Pages: 1 -->
<svg width="523pt" height="103pt"
 viewBox="0.00 0.00 523.00 103.00" xmlns="http://www.w3.org/2000/svg" xmlns:xlink="http://www.w3.org/1999/xlink">
<g id="graph0" class="graph" transform="scale(1 1) rotate(0) translate(4 99)">
<title>_write_number</title>
<!-- Node1 -->
<g id="Node000001" class="node">
<title>Node1</title>
<g id="a_Node000001"><a xlink:title=" ">
<polygon fill="#999999" stroke="#666666" points="515,-57 426,-57 426,-38 515,-38 515,-57"/>
<text text-anchor="middle" x="470.5" y="-45" font-family="Helvetica,sans-Serif" font-size="10.00">_write_number</text>
</a>
</g>
</g>
<!-- Node2 -->
<g id="Node000002" class="node">
<title>Node2</title>
<g id="a_Node000002"><a xlink:href="printf_8c.html#a2c37f08c54b3dc54d13030c62cba67a7" target="_top" xlink:title=" ">
<polygon fill="white" stroke="#666666" points="312,-95 251,-95 251,-76 312,-76 312,-95"/>
<text text-anchor="middle" x="281.5" y="-83" font-family="Helvetica,sans-Serif" font-size="10.00">printfloat</text>
</a>
</g>
</g>
<!-- Node1&#45;&gt;Node2 -->
<g id="edge1_Node000001_Node000002" class="edge">
<title>Node1&#45;&gt;Node2</title>
<g id="a_edge1_Node000001_Node000002"><a xlink:title=" ">
<path fill="none" stroke="#63b8ff" d="M421.79,-59.39C411.34,-61.86 400.32,-64.36 390,-66.5 363.84,-71.93 333.88,-77.15 312.25,-80.73"/>
<polygon fill="#63b8ff" stroke="#63b8ff" points="422.68,-62.78 431.59,-57.05 421.05,-55.97 422.68,-62.78"/>
</a>
</g>
</g>
<!-- Node8 -->
<g id="Node000008" class="node">
<title>Node8</title>
<g id="a_Node000008"><a xlink:href="printf_8c.html#ad9c642f8af1fe47d03e648b146da3b8d" target="_top" xlink:title=" ">
<polygon fill="white" stroke="#666666" points="390,-57 348,-57 348,-38 390,-38 390,-57"/>
<text text-anchor="middle" x="369" y="-45" font-family="Helvetica,sans-Serif" font-size="10.00">printi</text>
</a>
</g>
</g>
<!-- Node1&#45;&gt;Node8 -->
<g id="edge7_Node000001_Node000008" class="edge">
<title>Node1&#45;&gt;Node8</title>
<g id="a_edge7_Node000001_Node000008"><a xlink:title=" ">
<path fill="none" stroke="#63b8ff" d="M415.61,-47.5C406.55,-47.5 397.67,-47.5 390.19,-47.5"/>
<polygon fill="#63b8ff" stroke="#63b8ff" points="415.86,-51 425.86,-47.5 415.86,-44 415.86,-51"/>
</a>
</g>
</g>
<!-- Node9 -->
<g id="Node000009" class="node">
<title>Node9</title>
<g id="a_Node000009"><a xlink:href="printf_8c.html#a700fcb0af9d5d9311fe8a86380747db7" target="_top" xlink:title=" ">
<polygon fill="white" stroke="#666666" points="302.5,-19 260.5,-19 260.5,0 302.5,0 302.5,-19"/>
<text text-anchor="middle" x="281.5" y="-7" font-family="Helvetica,sans-Serif" font-size="10.00">printl</text>
</a>
</g>
</g>
<!-- Node1&#45;&gt;Node9 -->
<g id="edge10_Node000001_Node000009" class="edge">
<title>Node1&#45;&gt;Node9</title>
<g id="a_edge10_Node000001_Node000009"><a xlink:title=" ">
<path fill="none" stroke="#63b8ff" d="M421.79,-35.61C411.34,-33.14 400.32,-30.64 390,-28.5 359.75,-22.22 324.44,-16.23 302.78,-12.71"/>
<polygon fill="#63b8ff" stroke="#63b8ff" points="421.05,-39.03 431.59,-37.95 422.68,-32.22 421.05,-39.03"/>
</a>
</g>
</g>
<!-- Node3 -->
<g id="Node000003" class="node">
<title>Node3</title>
<g id="a_Node000003"><a xlink:href="printf_8c.html#a5b328a8f32f082a641944307c97f9a34" target="_top" xlink:title=" ">
<polygon fill="white" stroke="#666666" points="215,-57 176,-57 176,-38 215,-38 215,-57"/>
<text text-anchor="middle" x="195.5" y="-45" font-family="Helvetica,sans-Serif" font-size="10.00">print</text>
</a>
</g>
</g>
<!-- Node2&#45;&gt;Node3 -->
<g id="edge2_Node000002_Node000003" class="edge">
<title>Node2&#45;&gt;Node3</title>
<g id="a_edge2_Node000002_Node000003"><a xlink:title=" ">
<path fill="none" stroke="#63b8ff" d="M249.9,-71.66C238.25,-66.39 225.33,-60.54 215.12,-55.92"/>
<polygon fill="#63b8ff" stroke="#63b8ff" points="248.75,-74.98 259.3,-75.91 251.63,-68.6 248.75,-74.98"/>
</a>
</g>
</g>
<!-- Node4 -->
<g id="Node000004" class="node">
<title>Node4</title>
<g id="a_Node000004"><a xlink:href="printf_8h.html#a65fa2c2b1fdeb49ee1d35b47be733d17" target="_top" xlink:title=" ">
<polygon fill="white" stroke="#666666" points="140,-76 85,-76 85,-57 140,-57 140,-76"/>
<text text-anchor="middle" x="112.5" y="-64" font-family="Helvetica,sans-Serif" font-size="10.00">vbprintf</text>
</a>
</g>
</g>
<!-- Node3&#45;&gt;Node4 -->
<g id="edge3_Node000003_Node000004" class="edge">
<title>Node3&#45;&gt;Node4</title>
<g id="a_edge3_Node000003_Node000004"><a xlink:title=" ">
<path fill="none" stroke="#63b8ff" d="M165.96,-54.19C157.57,-56.16 148.43,-58.31 140.16,-60.25"/>
<polygon fill="#63b8ff" stroke="#63b8ff" points="166.78,-57.6 175.71,-51.91 165.18,-50.78 166.78,-57.6"/>
</a>
</g>
</g>
<!-- Node6 -->
<g id="Node000006" class="node">
<title>Node6</title>
<g id="a_Node000006"><a xlink:href="printf_8h.html#a984687e0cb1dfa69b33161177d270337" target="_top" xlink:title=" ">
<polygon fill="white" stroke="#666666" points="139.5,-39 85.5,-39 85.5,-20 139.5,-20 139.5,-39"/>
<text text-anchor="middle" x="112.5" y="-27" font-family="Helvetica,sans-Serif" font-size="10.00">vsprintf</text>
</a>
</g>
</g>
<!-- Node3&#45;&gt;Node6 -->
<g id="edge5_Node000003_Node000006" class="edge">
<title>Node3&#45;&gt;Node6</title>
<g id="a_edge5_Node000003_Node000006"><a xlink:title=" ">
<path fill="none" stroke="#63b8ff" d="M165.78,-41.12C157.23,-39.22 147.92,-37.15 139.55,-35.29"/>
<polygon fill="#63b8ff" stroke="#63b8ff" points="165.19,-44.57 175.71,-43.33 166.71,-37.74 165.19,-44.57"/>
</a>
</g>
</g>
<!-- Node5 -->
<g id="Node000005" class="node">
<title>Node5</title>
<g id="a_Node000005"><a xlink:href="printf_8h.html#a30e09ab10214b5e9b93f4c765f373649" target="_top" xlink:title=" ">
<polygon fill="white" stroke="#666666" points="49,-76 0,-76 0,-57 49,-57 49,-76"/>
<text text-anchor="middle" x="24.5" y="-64" font-family="Helvetica,sans-Serif" font-size="10.00">bprintf</text>
</a>
</g>
</g>
<!-- Node4&#45;&gt;Node5 -->
<g id="edge4_Node000004_Node000005" class="edge">
<title>Node4&#45;&gt;Node5</title>
<g id="a_edge4_Node000004_Node000005"><a xlink:title=" ">
<path fill="none" stroke="#63b8ff" d="M74.49,-66.5C65.85,-66.5 56.88,-66.5 49.02,-66.5"/>
<polygon fill="#63b8ff" stroke="#63b8ff" points="74.76,-70 84.76,-66.5 74.76,-63 74.76,-70"/>
</a>
</g>
</g>
<!-- Node7 -->
<g id="Node000007" class="node">
<title>Node7</title>
<g id="a_Node000007"><a xlink:href="printf_8h.html#a014f72d1eb635d44f4547d6153c9afd1" target="_top" xlink:title=" ">
<polygon fill="white" stroke="#666666" points="48.5,-39 0.5,-39 0.5,-20 48.5,-20 48.5,-39"/>
<text text-anchor="middle" x="24.5" y="-27" font-family="Helvetica,sans-Serif" font-size="10.00">sprintf</text>
</a>
</g>
</g>
<!-- Node6&#45;&gt;Node7 -->
<g id="edge6_Node000006_Node000007" class="edge">
<title>Node6&#45;&gt;Node7</title>
<g id="a_edge6_Node000006_Node000007"><a xlink:title=" ">
<path fill="none" stroke="#63b8ff" d="M75.03,-29.5C66.11,-29.5 56.8,-29.5 48.69,-29.5"/>
<polygon fill="#63b8ff" stroke="#63b8ff" points="75.23,-33 85.23,-29.5 75.23,-26 75.23,-33"/>
</a>
</g>
</g>
<!-- Node8&#45;&gt;Node2 -->
<g id="edge9_Node000008_Node000002" class="edge">
<title>Node8&#45;&gt;Node2</title>
<g id="a_edge9_Node000008_Node000002"><a xlink:title=" ">
<path fill="none" stroke="#63b8ff" d="M338.29,-60.7C327.05,-65.7 314.47,-71.29 304.11,-75.89"/>
<polygon fill="#63b8ff" stroke="#63b8ff" points="340.02,-63.77 347.74,-56.51 337.18,-57.37 340.02,-63.77"/>
</a>
</g>
</g>
<!-- Node8&#45;&gt;Node3 -->
<g id="edge8_Node000008_Node000003" class="edge">
<title>Node8&#45;&gt;Node3</title>
<g id="a_edge8_Node000008_Node000003"><a xlink:title=" ">
<path fill="none" stroke="#63b8ff" d="M337.75,-47.5C302.26,-47.5 244.54,-47.5 215.08,-47.5"/>
<polygon fill="#63b8ff" stroke="#63b8ff" points="337.99,-51 347.99,-47.5 337.99,-44 337.99,-51"/>
</a>
</g>
</g>
<!-- Node9&#45;&gt;Node3 -->
<g id="edge11_Node000009_Node000003" class="edge">
<title>Node9&#45;&gt;Node3</title>
<g id="a_edge11_Node000009_Node000003"><a xlink:title=" ">
<path fill="none" stroke="#63b8ff" d="M251.02,-22.84C239.12,-28.22 225.74,-34.27 215.21,-39.04"/>
<polygon fill="#63b8ff" stroke="#63b8ff" points="252.5,-26.01 260.17,-18.7 249.61,-19.63 252.5,-26.01"/>
</a>
</g>
</g>
</g>
</svg>
