<?xml version="1.0" encoding="UTF-8" standalone="no"?>
<!DOCTYPE svg PUBLIC "-//W3C//DTD SVG 1.1//EN"
 "http://www.w3.org/Graphics/SVG/1.1/DTD/svg11.dtd">
<!-- Generated by graphviz version 2.43.0 (0)
 -->
<!-- Title: sprintf Pages: 1 -->
<svg width="666pt" height="164pt"
 viewBox="0.00 0.00 666.00 164.04" xmlns="http://www.w3.org/2000/svg" xmlns:xlink="http://www.w3.org/1999/xlink">
<g id="graph0" class="graph" transform="scale(1 1) rotate(0) translate(4 160.04)">
<title>sprintf</title>
<!-- Node1 -->
<g id="Node000001" class="node">
<title>Node1</title>
<g id="a_Node000001"><a xlink:title=" ">
<polygon fill="#999999" stroke="#666666" points="48,-95 0,-95 0,-76 48,-76 48,-95"/>
<text text-anchor="middle" x="24" y="-83" font-family="Helvetica,sans-Serif" font-size="10.00">sprintf</text>
</a>
</g>
</g>
<!-- Node2 -->
<g id="Node000002" class="node">
<title>Node2</title>
<g id="a_Node000002"><a xlink:href="printf_8h.html#a89206cd7a5ee84d4340e223078709043" target="_top" xlink:title=" ">
<polygon fill="white" stroke="#666666" points="143,-95 84,-95 84,-76 143,-76 143,-95"/>
<text text-anchor="middle" x="113.5" y="-83" font-family="Helvetica,sans-Serif" font-size="10.00">v_sprintf</text>
</a>
</g>
</g>
<!-- Node1&#45;&gt;Node2 -->
<g id="edge1_Node000001_Node000002" class="edge">
<title>Node1&#45;&gt;Node2</title>
<g id="a_edge1_Node000001_Node000002"><a xlink:title=" ">
<path fill="none" stroke="#63b8ff" d="M48.45,-85.5C56.31,-85.5 65.29,-85.5 73.99,-85.5"/>
<polygon fill="#63b8ff" stroke="#63b8ff" points="73.99,-89 83.99,-85.5 73.99,-82 73.99,-89"/>
</a>
</g>
</g>
<!-- Node3 -->
<g id="Node000003" class="node">
<title>Node3</title>
<g id="a_Node000003"><a xlink:href="printf_8c.html#a5b328a8f32f082a641944307c97f9a34" target="_top" xlink:title=" ">
<polygon fill="white" stroke="#666666" points="218,-95 179,-95 179,-76 218,-76 218,-95"/>
<text text-anchor="middle" x="198.5" y="-83" font-family="Helvetica,sans-Serif" font-size="10.00">print</text>
</a>
</g>
</g>
<!-- Node2&#45;&gt;Node3 -->
<g id="edge2_Node000002_Node000003" class="edge">
<title>Node2&#45;&gt;Node3</title>
<g id="a_edge2_Node000002_Node000003"><a xlink:title=" ">
<path fill="none" stroke="#63b8ff" d="M143.06,-85.5C151.37,-85.5 160.45,-85.5 168.77,-85.5"/>
<polygon fill="#63b8ff" stroke="#63b8ff" points="168.79,-89 178.79,-85.5 168.79,-82 168.79,-89"/>
</a>
</g>
</g>
<!-- Node4 -->
<g id="Node000004" class="node">
<title>Node4</title>
<g id="a_Node000004"><a xlink:href="printf_8c.html#a467a00da8c720b8dddc7088e2805291c" target="_top" xlink:title=" ">
<polygon fill="white" stroke="#666666" points="569,-95 509,-95 509,-76 569,-76 569,-95"/>
<text text-anchor="middle" x="539" y="-83" font-family="Helvetica,sans-Serif" font-size="10.00">printchar</text>
</a>
</g>
</g>
<!-- Node3&#45;&gt;Node4 -->
<g id="edge3_Node000003_Node000004" class="edge">
<title>Node3&#45;&gt;Node4</title>
<g id="a_edge3_Node000003_Node000004"><a xlink:title=" ">
<path fill="none" stroke="#63b8ff" d="M205.07,-95.03C213.6,-108.57 231.34,-132.81 254,-142.5 344.36,-181.12 462.24,-127.57 512.99,-100.06"/>
<polygon fill="#63b8ff" stroke="#63b8ff" points="514.89,-103.01 521.94,-95.1 511.49,-96.89 514.89,-103.01"/>
</a>
</g>
</g>
<!-- Node6 -->
<g id="Node000006" class="node">
<title>Node6</title>
<g id="a_Node000006"><a xlink:href="printf_8c.html#a2c37f08c54b3dc54d13030c62cba67a7" target="_top" xlink:title=" ">
<polygon fill="white" stroke="#666666" points="315,-133 254,-133 254,-114 315,-114 315,-133"/>
<text text-anchor="middle" x="284.5" y="-121" font-family="Helvetica,sans-Serif" font-size="10.00">printfloat</text>
</a>
</g>
</g>
<!-- Node3&#45;&gt;Node6 -->
<g id="edge5_Node000003_Node000006" class="edge">
<title>Node3&#45;&gt;Node6</title>
<g id="a_edge5_Node000003_Node000006"><a xlink:title=" ">
<path fill="none" stroke="#63b8ff" d="M218.14,-93.93C228.34,-98.55 241.23,-104.38 252.86,-109.64"/>
<polygon fill="#63b8ff" stroke="#63b8ff" points="251.69,-112.95 262.25,-113.88 254.58,-106.57 251.69,-112.95"/>
</a>
</g>
</g>
<!-- Node7 -->
<g id="Node000007" class="node">
<title>Node7</title>
<g id="a_Node000007"><a xlink:href="printf_8c.html#ad9c642f8af1fe47d03e648b146da3b8d" target="_top" xlink:title=" ">
<polygon fill="white" stroke="#666666" points="393,-95 351,-95 351,-76 393,-76 393,-95"/>
<text text-anchor="middle" x="372" y="-83" font-family="Helvetica,sans-Serif" font-size="10.00">printi</text>
</a>
</g>
</g>
<!-- Node3&#45;&gt;Node7 -->
<g id="edge11_Node000003_Node000007" class="edge">
<title>Node3&#45;&gt;Node7</title>
<g id="a_edge11_Node000003_Node000007"><a xlink:title=" ">
<path fill="none" stroke="#63b8ff" d="M218.18,-85.5C247.6,-85.5 305.04,-85.5 340.51,-85.5"/>
<polygon fill="#63b8ff" stroke="#63b8ff" points="340.76,-89 350.76,-85.5 340.76,-82 340.76,-89"/>
</a>
</g>
</g>
<!-- Node8 -->
<g id="Node000008" class="node">
<title>Node8</title>
<g id="a_Node000008"><a xlink:href="printf_8c.html#a6ce76a789a6153b7e1b16bc3a6969563" target="_top" xlink:title=" ">
<polygon fill="white" stroke="#666666" points="473,-57 429,-57 429,-38 473,-38 473,-57"/>
<text text-anchor="middle" x="451" y="-45" font-family="Helvetica,sans-Serif" font-size="10.00">prints</text>
</a>
</g>
</g>
<!-- Node3&#45;&gt;Node8 -->
<g id="edge15_Node000003_Node000008" class="edge">
<title>Node3&#45;&gt;Node8</title>
<g id="a_edge15_Node000003_Node000008"><a xlink:title=" ">
<path fill="none" stroke="#63b8ff" d="M218.33,-82.64C261.12,-76.15 366.05,-60.24 418.74,-52.24"/>
<polygon fill="#63b8ff" stroke="#63b8ff" points="419.49,-55.67 428.85,-50.71 418.44,-48.75 419.49,-55.67"/>
</a>
</g>
</g>
<!-- Node9 -->
<g id="Node000009" class="node">
<title>Node9</title>
<g id="a_Node000009"><a xlink:href="printf_8c.html#a700fcb0af9d5d9311fe8a86380747db7" target="_top" xlink:title=" ">
<polygon fill="white" stroke="#666666" points="393,-19 351,-19 351,0 393,0 393,-19"/>
<text text-anchor="middle" x="372" y="-7" font-family="Helvetica,sans-Serif" font-size="10.00">printl</text>
</a>
</g>
</g>
<!-- Node3&#45;&gt;Node9 -->
<g id="edge12_Node000003_Node000009" class="edge">
<title>Node3&#45;&gt;Node9</title>
<g id="a_edge12_Node000003_Node000009"><a xlink:title=" ">
<path fill="none" stroke="#63b8ff" d="M206.82,-75.75C216.32,-63.82 234.07,-43.93 254,-33.5 281.21,-19.26 316.09,-13.47 340.66,-11.11"/>
<polygon fill="#63b8ff" stroke="#63b8ff" points="341.15,-14.58 350.83,-10.27 340.58,-7.6 341.15,-14.58"/>
</a>
</g>
</g>
<!-- Node5 -->
<g id="Node000005" class="node">
<title>Node5</title>
<g id="a_Node000005"><a xlink:href="printf_8c.html#af4de2514b7778805db3815e8dd6cf09a" target="_top" xlink:title=" ">
<polygon fill="white" stroke="#666666" points="658,-95 605,-95 605,-76 658,-76 658,-95"/>
<text text-anchor="middle" x="631.5" y="-83" font-family="Helvetica,sans-Serif" font-size="10.00">putchar</text>
</a>
</g>
</g>
<!-- Node4&#45;&gt;Node5 -->
<g id="edge4_Node000004_Node000005" class="edge">
<title>Node4&#45;&gt;Node5</title>
<g id="a_edge4_Node000004_Node000005"><a xlink:title=" ">
<path fill="none" stroke="#63b8ff" d="M569.13,-85.5C577.29,-85.5 586.25,-85.5 594.74,-85.5"/>
<polygon fill="#63b8ff" stroke="#63b8ff" points="594.78,-89 604.78,-85.5 594.78,-82 594.78,-89"/>
</a>
</g>
</g>
<!-- Node6&#45;&gt;Node4 -->
<g id="edge6_Node000006_Node000004" class="edge">
<title>Node6&#45;&gt;Node4</title>
<g id="a_edge6_Node000006_Node000004"><a xlink:title=" ">
<path fill="none" stroke="#63b8ff" d="M315.17,-120.49C352.23,-116.55 417.53,-109.01 473,-99.5 481.5,-98.04 490.58,-96.24 499.18,-94.42"/>
<polygon fill="#63b8ff" stroke="#63b8ff" points="499.95,-97.84 508.98,-92.3 498.47,-91 499.95,-97.84"/>
</a>
</g>
</g>
<!-- Node6&#45;&gt;Node7 -->
<g id="edge7_Node000006_Node000007" class="edge">
<title>Node6&#45;&gt;Node7</title>
<g id="a_edge7_Node000006_Node000007"><a xlink:title=" ">
<path fill="none" stroke="#63b8ff" d="M307.08,-113.91C317.59,-109.24 330.39,-103.55 341.76,-98.5"/>
<polygon fill="#63b8ff" stroke="#63b8ff" points="343.18,-101.69 350.9,-94.43 340.34,-95.3 343.18,-101.69"/>
</a>
</g>
</g>
<!-- Node7&#45;&gt;Node4 -->
<g id="edge8_Node000007_Node000004" class="edge">
<title>Node7&#45;&gt;Node4</title>
<g id="a_edge8_Node000007_Node000004"><a xlink:title=" ">
<path fill="none" stroke="#63b8ff" d="M393.23,-85.5C419.4,-85.5 465.55,-85.5 498.72,-85.5"/>
<polygon fill="#63b8ff" stroke="#63b8ff" points="498.99,-89 508.99,-85.5 498.99,-82 498.99,-89"/>
</a>
</g>
</g>
<!-- Node7&#45;&gt;Node8 -->
<g id="edge9_Node000007_Node000008" class="edge">
<title>Node7&#45;&gt;Node8</title>
<g id="a_edge9_Node000007_Node000008"><a xlink:title=" ">
<path fill="none" stroke="#63b8ff" d="M392.43,-75.91C401.18,-71.59 411.7,-66.4 421.33,-61.65"/>
<polygon fill="#63b8ff" stroke="#63b8ff" points="423.16,-64.65 430.58,-57.09 420.06,-58.37 423.16,-64.65"/>
</a>
</g>
</g>
<!-- Node8&#45;&gt;Node4 -->
<g id="edge10_Node000008_Node000004" class="edge">
<title>Node8&#45;&gt;Node4</title>
<g id="a_edge10_Node000008_Node000004"><a xlink:title=" ">
<path fill="none" stroke="#63b8ff" d="M473.26,-56.89C483.41,-61.38 495.77,-66.84 506.95,-71.78"/>
<polygon fill="#63b8ff" stroke="#63b8ff" points="505.83,-75.11 516.39,-75.95 508.66,-68.71 505.83,-75.11"/>
</a>
</g>
</g>
<!-- Node9&#45;&gt;Node4 -->
<g id="edge13_Node000009_Node000004" class="edge">
<title>Node9&#45;&gt;Node4</title>
<g id="a_edge13_Node000009_Node000004"><a xlink:title=" ">
<path fill="none" stroke="#63b8ff" d="M393.12,-10.52C414.03,-12.25 447.23,-16.91 473,-29.5 492.32,-38.94 510.53,-55.54 522.72,-68.23"/>
<polygon fill="#63b8ff" stroke="#63b8ff" points="520.46,-70.93 529.83,-75.88 525.59,-66.17 520.46,-70.93"/>
</a>
</g>
</g>
<!-- Node9&#45;&gt;Node8 -->
<g id="edge14_Node000009_Node000008" class="edge">
<title>Node9&#45;&gt;Node8</title>
<g id="a_edge14_Node000009_Node000008"><a xlink:title=" ">
<path fill="none" stroke="#63b8ff" d="M392.43,-19.09C401.18,-23.41 411.7,-28.6 421.33,-33.35"/>
<polygon fill="#63b8ff" stroke="#63b8ff" points="420.06,-36.63 430.58,-37.91 423.16,-30.35 420.06,-36.63"/>
</a>
</g>
</g>
</g>
</svg>
