<?xml version="1.0" encoding="UTF-8" standalone="no"?>
<!DOCTYPE svg PUBLIC "-//W3C//DTD SVG 1.1//EN"
 "http://www.w3.org/Graphics/SVG/1.1/DTD/svg11.dtd">
<!-- Generated by graphviz version 2.43.0 (0)
 -->
<!-- Title: printfloat Pages: 1 -->
<svg width="457pt" height="115pt"
 viewBox="0.00 0.00 457.00 115.41" xmlns="http://www.w3.org/2000/svg" xmlns:xlink="http://www.w3.org/1999/xlink">

<svg id="main" version="1.1" xmlns="http://www.w3.org/2000/svg" xmlns:xlink="http://www.w3.org/1999/xlink" xml:space="preserve" onload="init(evt)">
<style type="text/css"><![CDATA[
.node, .edge {opacity: 0.7;}
.node.selected, .edge.selected {opacity: 1;}
.edge:hover path { stroke: red; }
.edge:hover polygon { stroke: red; fill: red; }
]]></style>
<script type="application/ecmascript" xlink:href="svg.min.js"/>
<svg id="graph" class="graph">
<g id="graph0" class="graph" transform="scale(1 1) rotate(0) translate(4 111.41)">
<title>printfloat</title>
<!-- Node1 -->
<g id="Node000001" class="node">
<title>Node1</title>
<g id="a_Node000001"><a xlink:title=" ">
<polygon fill="#999999" stroke="#666666" points="61,-50.41 0,-50.41 0,-31.41 61,-31.41 61,-50.41"/>
<text text-anchor="middle" x="30.5" y="-38.41" font-family="Helvetica,sans-Serif" font-size="10.00">printfloat</text>
</a>
</g>
</g>
<!-- Node2 -->
<g id="Node000002" class="node">
<title>Node2</title>
<g id="a_Node000002"><a xlink:href="printf_8c.html#a81ec43c10454c3c5036f9876f067d219" target="_top" xlink:title=" ">
<polygon fill="white" stroke="#666666" points="264,-107.41 175,-107.41 175,-88.41 264,-88.41 264,-107.41"/>
<text text-anchor="middle" x="219.5" y="-95.41" font-family="Helvetica,sans-Serif" font-size="10.00">_write_number</text>
</a>
</g>
</g>
<!-- Node1&#45;&gt;Node2 -->
<g id="edge1_Node000001_Node000002" class="edge">
<title>Node1&#45;&gt;Node2</title>
<g id="a_edge1_Node000001_Node000002"><a xlink:title=" ">
<path fill="none" stroke="#63b8ff" d="M44.83,-50.64C57.57,-59.45 77.67,-72.06 97,-78.91 118.54,-86.54 143.31,-91.11 164.85,-93.85"/>
<polygon fill="#63b8ff" stroke="#63b8ff" points="164.47,-97.33 174.81,-95.01 165.28,-90.37 164.47,-97.33"/>
</a>
</g>
</g>
<!-- Node3 -->
<g id="Node000003" class="node">
<title>Node3</title>
<g id="a_Node000003"><a xlink:href="printf_8c.html#a467a00da8c720b8dddc7088e2805291c" target="_top" xlink:title=" ">
<polygon fill="white" stroke="#666666" points="360,-31.41 300,-31.41 300,-12.41 360,-12.41 360,-31.41"/>
<text text-anchor="middle" x="330" y="-19.41" font-family="Helvetica,sans-Serif" font-size="10.00">printchar</text>
</a>
</g>
</g>
<!-- Node1&#45;&gt;Node3 -->
<g id="edge2_Node000001_Node000003" class="edge">
<title>Node1&#45;&gt;Node3</title>
<g id="a_edge2_Node000001_Node000003"><a xlink:title=" ">
<path fill="none" stroke="#63b8ff" d="M59.68,-31.39C88.32,-22.25 134.16,-9.09 175,-3.91 214.24,1.07 224.8,1.42 264,-3.91 272.94,-5.12 282.38,-7.24 291.21,-9.6"/>
<polygon fill="#63b8ff" stroke="#63b8ff" points="290.3,-12.97 300.87,-12.33 292.2,-6.24 290.3,-12.97"/>
</a>
</g>
</g>
<!-- Node5 -->
<g id="Node000005" class="node">
<title>Node5</title>
<g id="a_Node000005"><a xlink:href="printf_8c.html#ad9c642f8af1fe47d03e648b146da3b8d" target="_top" xlink:title=" ">
<polygon fill="white" stroke="#666666" points="139,-69.41 97,-69.41 97,-50.41 139,-50.41 139,-69.41"/>
<text text-anchor="middle" x="118" y="-57.41" font-family="Helvetica,sans-Serif" font-size="10.00">printi</text>
</a>
</g>
</g>
<!-- Node1&#45;&gt;Node5 -->
<g id="edge4_Node000001_Node000005" class="edge">
<title>Node1&#45;&gt;Node5</title>
<g id="a_edge4_Node000001_Node000005"><a xlink:title=" ">
<path fill="none" stroke="#63b8ff" d="M61.4,-47.55C69.67,-49.39 78.63,-51.38 86.91,-53.22"/>
<polygon fill="#63b8ff" stroke="#63b8ff" points="86.39,-56.69 96.91,-55.44 87.9,-49.86 86.39,-56.69"/>
</a>
</g>
</g>
<!-- Node6 -->
<g id="Node000006" class="node">
<title>Node6</title>
<g id="a_Node000006"><a xlink:href="printf_8c.html#a6ce76a789a6153b7e1b16bc3a6969563" target="_top" xlink:title=" ">
<polygon fill="white" stroke="#666666" points="241.5,-31.41 197.5,-31.41 197.5,-12.41 241.5,-12.41 241.5,-31.41"/>
<text text-anchor="middle" x="219.5" y="-19.41" font-family="Helvetica,sans-Serif" font-size="10.00">prints</text>
</a>
</g>
</g>
<!-- Node1&#45;&gt;Node6 -->
<g id="edge9_Node000001_Node000006" class="edge">
<title>Node1&#45;&gt;Node6</title>
<g id="a_edge9_Node000001_Node000006"><a xlink:title=" ">
<path fill="none" stroke="#63b8ff" d="M61.13,-37.9C95.57,-34.4 152.15,-28.65 187.26,-25.08"/>
<polygon fill="#63b8ff" stroke="#63b8ff" points="187.83,-28.54 197.42,-24.05 187.12,-21.58 187.83,-28.54"/>
</a>
</g>
</g>
<!-- Node4 -->
<g id="Node000004" class="node">
<title>Node4</title>
<g id="a_Node000004"><a xlink:href="printf_8c.html#af4de2514b7778805db3815e8dd6cf09a" target="_top" xlink:title=" ">
<polygon fill="white" stroke="#666666" points="449,-31.41 396,-31.41 396,-12.41 449,-12.41 449,-31.41"/>
<text text-anchor="middle" x="422.5" y="-19.41" font-family="Helvetica,sans-Serif" font-size="10.00">putchar</text>
</a>
</g>
</g>
<!-- Node3&#45;&gt;Node4 -->
<g id="edge3_Node000003_Node000004" class="edge">
<title>Node3&#45;&gt;Node4</title>
<g id="a_edge3_Node000003_Node000004"><a xlink:title=" ">
<path fill="none" stroke="#63b8ff" d="M360.13,-21.91C368.29,-21.91 377.25,-21.91 385.74,-21.91"/>
<polygon fill="#63b8ff" stroke="#63b8ff" points="385.78,-25.41 395.78,-21.91 385.78,-18.41 385.78,-25.41"/>
</a>
</g>
</g>
<!-- Node5&#45;&gt;Node2 -->
<g id="edge5_Node000005_Node000002" class="edge">
<title>Node5&#45;&gt;Node2</title>
<g id="a_edge5_Node000005_Node000002"><a xlink:title=" ">
<path fill="none" stroke="#63b8ff" d="M139.14,-67.6C151.99,-72.51 169,-79 183.97,-84.72"/>
<polygon fill="#63b8ff" stroke="#63b8ff" points="182.86,-88.04 193.45,-88.34 185.35,-81.5 182.86,-88.04"/>
</a>
</g>
</g>
<!-- Node5&#45;&gt;Node3 -->
<g id="edge6_Node000005_Node000003" class="edge">
<title>Node5&#45;&gt;Node3</title>
<g id="a_edge6_Node000005_Node000003"><a xlink:title=" ">
<path fill="none" stroke="#63b8ff" d="M139.34,-58.24C167.54,-55.7 220.02,-50.16 264,-40.91 272.52,-39.12 281.54,-36.77 290.07,-34.34"/>
<polygon fill="#63b8ff" stroke="#63b8ff" points="291.19,-37.66 299.8,-31.48 289.22,-30.95 291.19,-37.66"/>
</a>
</g>
</g>
<!-- Node5&#45;&gt;Node6 -->
<g id="edge7_Node000005_Node000006" class="edge">
<title>Node5&#45;&gt;Node6</title>
<g id="a_edge7_Node000005_Node000006"><a xlink:title=" ">
<path fill="none" stroke="#63b8ff" d="M139.14,-52.22C153.15,-46.87 172.09,-39.63 187.96,-33.57"/>
<polygon fill="#63b8ff" stroke="#63b8ff" points="189.27,-36.82 197.36,-29.98 186.77,-30.28 189.27,-36.82"/>
</a>
</g>
</g>
<!-- Node6&#45;&gt;Node3 -->
<g id="edge8_Node000006_Node000003" class="edge">
<title>Node6&#45;&gt;Node3</title>
<g id="a_edge8_Node000006_Node000003"><a xlink:title=" ">
<path fill="none" stroke="#63b8ff" d="M241.68,-21.91C255.24,-21.91 273.25,-21.91 289.39,-21.91"/>
<polygon fill="#63b8ff" stroke="#63b8ff" points="289.67,-25.41 299.67,-21.91 289.67,-18.41 289.67,-25.41"/>
</a>
</g>
</g>
</g>
</svg>
</svg>

<style type='text/css'>
<![CDATA[
[data-mouse-over-selected='false'] { opacity: 0.7; }
[data-mouse-over-selected='true']  { opacity: 1.0; }
]]>
</style>
<script type="application/ecmascript"><![CDATA[
document.addEventListener('DOMContentLoaded', (event) => {
  highlightEdges();
  highlightAdjacentNodes();
});
]]></script>
</svg>
