<?xml version="1.0" encoding="UTF-8" standalone="no"?>
<!DOCTYPE svg PUBLIC "-//W3C//DTD SVG 1.1//EN"
 "http://www.w3.org/Graphics/SVG/1.1/DTD/svg11.dtd">
<!-- Generated by graphviz version 2.43.0 (0)
 -->
<!-- Title: prints Pages: 1 -->
<svg width="478pt" height="119pt"
 viewBox="0.00 0.00 478.00 118.94" xmlns="http://www.w3.org/2000/svg" xmlns:xlink="http://www.w3.org/1999/xlink">

<svg id="main" version="1.1" xmlns="http://www.w3.org/2000/svg" xmlns:xlink="http://www.w3.org/1999/xlink" xml:space="preserve" onload="init(evt)">
<style type="text/css"><![CDATA[
.node, .edge {opacity: 0.7;}
.node.selected, .edge.selected {opacity: 1;}
.edge:hover path { stroke: red; }
.edge:hover polygon { stroke: red; fill: red; }
]]></style>
<script type="application/ecmascript" xlink:href="svg.min.js"/>
<svg id="graph" class="graph">
<g id="graph0" class="graph" transform="scale(1 1) rotate(0) translate(4 114.94)">
<title>prints</title>
<!-- Node1 -->
<g id="Node000001" class="node">
<title>Node1</title>
<g id="a_Node000001"><a xlink:title=" ">
<polygon fill="#999999" stroke="#666666" points="470,-76 426,-76 426,-57 470,-57 470,-76"/>
<text text-anchor="middle" x="448" y="-64" font-family="Helvetica,sans-Serif" font-size="10.00">prints</text>
</a>
</g>
</g>
<!-- Node2 -->
<g id="Node000002" class="node">
<title>Node2</title>
<g id="a_Node000002"><a xlink:href="printf_8c.html#aa0585acb8fbf31a90ffbf65ba543abe1" target="_top" xlink:title=" ">
<polygon fill="white" stroke="#666666" points="215,-76 176,-76 176,-57 215,-57 215,-76"/>
<text text-anchor="middle" x="195.5" y="-64" font-family="Helvetica,sans-Serif" font-size="10.00">print</text>
</a>
</g>
</g>
<!-- Node1&#45;&gt;Node2 -->
<g id="edge1_Node000001_Node000002" class="edge">
<title>Node1&#45;&gt;Node2</title>
<g id="a_edge1_Node000001_Node000002"><a xlink:title=" ">
<path fill="none" stroke="#63b8ff" d="M419.06,-80.46C380.59,-97.77 309.43,-122.86 251,-104.5 233.39,-98.97 216.51,-85.51 206.32,-76.19"/>
<polygon fill="#63b8ff" stroke="#63b8ff" points="420.96,-83.44 428.55,-76.05 418.01,-77.09 420.96,-83.44"/>
</a>
</g>
</g>
<!-- Node7 -->
<g id="Node000007" class="node">
<title>Node7</title>
<g id="a_Node000007"><a xlink:href="printf_8c.html#a4e12f38d03cb05b93d73df6a33fcf44d" target="_top" xlink:title=" ">
<polygon fill="white" stroke="#666666" points="312,-95 251,-95 251,-76 312,-76 312,-95"/>
<text text-anchor="middle" x="281.5" y="-83" font-family="Helvetica,sans-Serif" font-size="10.00">printfloat</text>
</a>
</g>
</g>
<!-- Node1&#45;&gt;Node7 -->
<g id="edge6_Node000001_Node000007" class="edge">
<title>Node1&#45;&gt;Node7</title>
<g id="a_edge6_Node000001_Node000007"><a xlink:title=" ">
<path fill="none" stroke="#63b8ff" d="M415.58,-70.13C385.8,-73.57 341.41,-78.7 312.21,-82.07"/>
<polygon fill="#63b8ff" stroke="#63b8ff" points="416.3,-73.57 425.83,-68.95 415.5,-66.62 416.3,-73.57"/>
</a>
</g>
</g>
<!-- Node8 -->
<g id="Node000008" class="node">
<title>Node8</title>
<g id="a_Node000008"><a xlink:href="printf_8c.html#adfff6d9f2c0e097309c2eecbaefffadc" target="_top" xlink:title=" ">
<polygon fill="white" stroke="#666666" points="390,-57 348,-57 348,-38 390,-38 390,-57"/>
<text text-anchor="middle" x="369" y="-45" font-family="Helvetica,sans-Serif" font-size="10.00">printi</text>
</a>
</g>
</g>
<!-- Node1&#45;&gt;Node8 -->
<g id="edge8_Node000001_Node000008" class="edge">
<title>Node1&#45;&gt;Node8</title>
<g id="a_edge8_Node000001_Node000008"><a xlink:title=" ">
<path fill="none" stroke="#63b8ff" d="M416.09,-58.87C407.38,-56.72 398.13,-54.44 390.22,-52.49"/>
<polygon fill="#63b8ff" stroke="#63b8ff" points="415.41,-62.31 425.96,-61.31 417.09,-55.51 415.41,-62.31"/>
</a>
</g>
</g>
<!-- Node9 -->
<g id="Node000009" class="node">
<title>Node9</title>
<g id="a_Node000009"><a xlink:href="printf_8c.html#a44b3fa8064b83d7df40fc6a87f821298" target="_top" xlink:title=" ">
<polygon fill="white" stroke="#666666" points="302.5,-19 260.5,-19 260.5,0 302.5,0 302.5,-19"/>
<text text-anchor="middle" x="281.5" y="-7" font-family="Helvetica,sans-Serif" font-size="10.00">printl</text>
</a>
</g>
</g>
<!-- Node1&#45;&gt;Node9 -->
<g id="edge11_Node000001_Node000009" class="edge">
<title>Node1&#45;&gt;Node9</title>
<g id="a_edge11_Node000001_Node000009"><a xlink:title=" ">
<path fill="none" stroke="#63b8ff" d="M427.53,-50.58C417.02,-42.77 403.45,-33.9 390,-28.5 360.98,-16.86 324.71,-12.33 302.59,-10.58"/>
<polygon fill="#63b8ff" stroke="#63b8ff" points="425.53,-53.46 435.59,-56.8 429.81,-47.92 425.53,-53.46"/>
</a>
</g>
</g>
<!-- Node3 -->
<g id="Node000003" class="node">
<title>Node3</title>
<g id="a_Node000003"><a xlink:href="printf_8h.html#a65fa2c2b1fdeb49ee1d35b47be733d17" target="_top" xlink:title=" ">
<polygon fill="white" stroke="#666666" points="140,-95 85,-95 85,-76 140,-76 140,-95"/>
<text text-anchor="middle" x="112.5" y="-83" font-family="Helvetica,sans-Serif" font-size="10.00">vbprintf</text>
</a>
</g>
</g>
<!-- Node2&#45;&gt;Node3 -->
<g id="edge2_Node000002_Node000003" class="edge">
<title>Node2&#45;&gt;Node3</title>
<g id="a_edge2_Node000002_Node000003"><a xlink:title=" ">
<path fill="none" stroke="#63b8ff" d="M165.96,-73.19C157.57,-75.16 148.43,-77.31 140.16,-79.25"/>
<polygon fill="#63b8ff" stroke="#63b8ff" points="166.78,-76.6 175.71,-70.91 165.18,-69.78 166.78,-76.6"/>
</a>
</g>
</g>
<!-- Node5 -->
<g id="Node000005" class="node">
<title>Node5</title>
<g id="a_Node000005"><a xlink:href="printf_8h.html#a984687e0cb1dfa69b33161177d270337" target="_top" xlink:title=" ">
<polygon fill="white" stroke="#666666" points="139.5,-58 85.5,-58 85.5,-39 139.5,-39 139.5,-58"/>
<text text-anchor="middle" x="112.5" y="-46" font-family="Helvetica,sans-Serif" font-size="10.00">vsprintf</text>
</a>
</g>
</g>
<!-- Node2&#45;&gt;Node5 -->
<g id="edge4_Node000002_Node000005" class="edge">
<title>Node2&#45;&gt;Node5</title>
<g id="a_edge4_Node000002_Node000005"><a xlink:title=" ">
<path fill="none" stroke="#63b8ff" d="M165.78,-60.12C157.23,-58.22 147.92,-56.15 139.55,-54.29"/>
<polygon fill="#63b8ff" stroke="#63b8ff" points="165.19,-63.57 175.71,-62.33 166.71,-56.74 165.19,-63.57"/>
</a>
</g>
</g>
<!-- Node4 -->
<g id="Node000004" class="node">
<title>Node4</title>
<g id="a_Node000004"><a xlink:href="printf_8h.html#a30e09ab10214b5e9b93f4c765f373649" target="_top" xlink:title=" ">
<polygon fill="white" stroke="#666666" points="49,-95 0,-95 0,-76 49,-76 49,-95"/>
<text text-anchor="middle" x="24.5" y="-83" font-family="Helvetica,sans-Serif" font-size="10.00">bprintf</text>
</a>
</g>
</g>
<!-- Node3&#45;&gt;Node4 -->
<g id="edge3_Node000003_Node000004" class="edge">
<title>Node3&#45;&gt;Node4</title>
<g id="a_edge3_Node000003_Node000004"><a xlink:title=" ">
<path fill="none" stroke="#63b8ff" d="M74.49,-85.5C65.85,-85.5 56.88,-85.5 49.02,-85.5"/>
<polygon fill="#63b8ff" stroke="#63b8ff" points="74.76,-89 84.76,-85.5 74.76,-82 74.76,-89"/>
</a>
</g>
</g>
<!-- Node6 -->
<g id="Node000006" class="node">
<title>Node6</title>
<g id="a_Node000006"><a xlink:href="printf_8h.html#a014f72d1eb635d44f4547d6153c9afd1" target="_top" xlink:title=" ">
<polygon fill="white" stroke="#666666" points="48.5,-58 0.5,-58 0.5,-39 48.5,-39 48.5,-58"/>
<text text-anchor="middle" x="24.5" y="-46" font-family="Helvetica,sans-Serif" font-size="10.00">sprintf</text>
</a>
</g>
</g>
<!-- Node5&#45;&gt;Node6 -->
<g id="edge5_Node000005_Node000006" class="edge">
<title>Node5&#45;&gt;Node6</title>
<g id="a_edge5_Node000005_Node000006"><a xlink:title=" ">
<path fill="none" stroke="#63b8ff" d="M75.03,-48.5C66.11,-48.5 56.8,-48.5 48.69,-48.5"/>
<polygon fill="#63b8ff" stroke="#63b8ff" points="75.23,-52 85.23,-48.5 75.23,-45 75.23,-52"/>
</a>
</g>
</g>
<!-- Node7&#45;&gt;Node2 -->
<g id="edge7_Node000007_Node000002" class="edge">
<title>Node7&#45;&gt;Node2</title>
<g id="a_edge7_Node000007_Node000002"><a xlink:title=" ">
<path fill="none" stroke="#63b8ff" d="M240.67,-76.49C231.7,-74.46 222.61,-72.4 215.02,-70.69"/>
<polygon fill="#63b8ff" stroke="#63b8ff" points="240.12,-79.96 250.65,-78.75 241.67,-73.13 240.12,-79.96"/>
</a>
</g>
</g>
<!-- Node8&#45;&gt;Node2 -->
<g id="edge9_Node000008_Node000002" class="edge">
<title>Node8&#45;&gt;Node2</title>
<g id="a_edge9_Node000008_Node000002"><a xlink:title=" ">
<path fill="none" stroke="#63b8ff" d="M337.75,-50.85C302.26,-54.78 244.54,-61.18 215.08,-64.44"/>
<polygon fill="#63b8ff" stroke="#63b8ff" points="338.44,-54.3 347.99,-49.72 337.67,-47.34 338.44,-54.3"/>
</a>
</g>
</g>
<!-- Node8&#45;&gt;Node7 -->
<g id="edge10_Node000008_Node000007" class="edge">
<title>Node8&#45;&gt;Node7</title>
<g id="a_edge10_Node000008_Node000007"><a xlink:title=" ">
<path fill="none" stroke="#63b8ff" d="M338.29,-60.7C327.05,-65.7 314.47,-71.29 304.11,-75.89"/>
<polygon fill="#63b8ff" stroke="#63b8ff" points="340.02,-63.77 347.74,-56.51 337.18,-57.37 340.02,-63.77"/>
</a>
</g>
</g>
<!-- Node9&#45;&gt;Node2 -->
<g id="edge12_Node000009_Node000002" class="edge">
<title>Node9&#45;&gt;Node2</title>
<g id="a_edge12_Node000009_Node000002"><a xlink:title=" ">
<path fill="none" stroke="#63b8ff" d="M257.94,-24.81C242.85,-35.05 223.46,-48.21 210.54,-56.97"/>
<polygon fill="#63b8ff" stroke="#63b8ff" points="259.94,-27.68 266.25,-19.17 256.01,-21.89 259.94,-27.68"/>
</a>
</g>
</g>
</g>
</svg>
</svg>

<style type='text/css'>
<![CDATA[
[data-mouse-over-selected='false'] { opacity: 0.7; }
[data-mouse-over-selected='true']  { opacity: 1.0; }
]]>
</style>
<script type="application/ecmascript"><![CDATA[
document.addEventListener('DOMContentLoaded', (event) => {
  highlightEdges();
  highlightAdjacentNodes();
});
]]></script>
</svg>
