<?xml version="1.0" encoding="UTF-8" standalone="no"?>
<!DOCTYPE svg PUBLIC "-//W3C//DTD SVG 1.1//EN"
 "http://www.w3.org/Graphics/SVG/1.1/DTD/svg11.dtd">
<!-- Generated by graphviz version 2.43.0 (0)
 -->
<!-- Title: printfloat Pages: 1 -->
<svg width="324pt" height="64pt"
 viewBox="0.00 0.00 324.00 64.00" xmlns="http://www.w3.org/2000/svg" xmlns:xlink="http://www.w3.org/1999/xlink">

<svg id="main" version="1.1" xmlns="http://www.w3.org/2000/svg" xmlns:xlink="http://www.w3.org/1999/xlink" xml:space="preserve" onload="init(evt)">
<style type="text/css"><![CDATA[
.node, .edge {opacity: 0.7;}
.node.selected, .edge.selected {opacity: 1;}
.edge:hover path { stroke: red; }
.edge:hover polygon { stroke: red; fill: red; }
]]></style>
<script type="application/ecmascript" xlink:href="svg.min.js"/>
<svg id="graph" class="graph">
<g id="graph0" class="graph" transform="scale(1 1) rotate(0) translate(4 60)">
<title>printfloat</title>
<!-- Node1 -->
<g id="Node000001" class="node">
<title>Node1</title>
<g id="a_Node000001"><a xlink:title=" ">
<polygon fill="#999999" stroke="#666666" points="316,-37 255,-37 255,-18 316,-18 316,-37"/>
<text text-anchor="middle" x="285.5" y="-25" font-family="Helvetica,sans-Serif" font-size="10.00">printfloat</text>
</a>
</g>
</g>
<!-- Node2 -->
<g id="Node000002" class="node">
<title>Node2</title>
<g id="a_Node000002"><a xlink:href="printf_8c.html#a5b328a8f32f082a641944307c97f9a34" target="_top" xlink:title=" ">
<polygon fill="white" stroke="#666666" points="219,-37 180,-37 180,-18 219,-18 219,-37"/>
<text text-anchor="middle" x="199.5" y="-25" font-family="Helvetica,sans-Serif" font-size="10.00">print</text>
</a>
</g>
</g>
<!-- Node1&#45;&gt;Node2 -->
<g id="edge1_Node000001_Node000002" class="edge">
<title>Node1&#45;&gt;Node2</title>
<g id="a_edge1_Node000001_Node000002"><a xlink:title=" ">
<path fill="none" stroke="#63b8ff" d="M244.38,-27.5C235.51,-27.5 226.52,-27.5 219.02,-27.5"/>
<polygon fill="#63b8ff" stroke="#63b8ff" points="244.65,-31 254.65,-27.5 244.65,-24 244.65,-31"/>
</a>
</g>
</g>
<!-- Node3 -->
<g id="Node000003" class="node">
<title>Node3</title>
<g id="a_Node000003"><a xlink:href="printf_8h.html#a89206cd7a5ee84d4340e223078709043" target="_top" xlink:title=" ">
<polygon fill="white" stroke="#666666" points="144,-56 85,-56 85,-37 144,-37 144,-56"/>
<text text-anchor="middle" x="114.5" y="-44" font-family="Helvetica,sans-Serif" font-size="10.00">v_sprintf</text>
</a>
</g>
</g>
<!-- Node2&#45;&gt;Node3 -->
<g id="edge2_Node000002_Node000003" class="edge">
<title>Node2&#45;&gt;Node3</title>
<g id="a_edge2_Node000002_Node000003"><a xlink:title=" ">
<path fill="none" stroke="#63b8ff" d="M169.67,-34.1C161.37,-36 152.32,-38.07 144.04,-39.97"/>
<polygon fill="#63b8ff" stroke="#63b8ff" points="170.7,-37.45 179.67,-31.81 169.14,-30.63 170.7,-37.45"/>
</a>
</g>
</g>
<!-- Node5 -->
<g id="Node000005" class="node">
<title>Node5</title>
<g id="a_Node000005"><a xlink:href="printf_8h.html#a65fa2c2b1fdeb49ee1d35b47be733d17" target="_top" xlink:title=" ">
<polygon fill="white" stroke="#666666" points="142,-19 87,-19 87,0 142,0 142,-19"/>
<text text-anchor="middle" x="114.5" y="-7" font-family="Helvetica,sans-Serif" font-size="10.00">vbprintf</text>
</a>
</g>
</g>
<!-- Node2&#45;&gt;Node5 -->
<g id="edge4_Node000002_Node000005" class="edge">
<title>Node2&#45;&gt;Node5</title>
<g id="a_edge4_Node000002_Node000005"><a xlink:title=" ">
<path fill="none" stroke="#63b8ff" d="M169.68,-21.25C160.73,-19.31 150.92,-17.18 142.13,-15.27"/>
<polygon fill="#63b8ff" stroke="#63b8ff" points="169.15,-24.72 179.67,-23.42 170.64,-17.88 169.15,-24.72"/>
</a>
</g>
</g>
<!-- Node4 -->
<g id="Node000004" class="node">
<title>Node4</title>
<g id="a_Node000004"><a xlink:href="printf_8h.html#a014f72d1eb635d44f4547d6153c9afd1" target="_top" xlink:title=" ">
<polygon fill="white" stroke="#666666" points="48.5,-56 0.5,-56 0.5,-37 48.5,-37 48.5,-56"/>
<text text-anchor="middle" x="24.5" y="-44" font-family="Helvetica,sans-Serif" font-size="10.00">sprintf</text>
</a>
</g>
</g>
<!-- Node3&#45;&gt;Node4 -->
<g id="edge3_Node000003_Node000004" class="edge">
<title>Node3&#45;&gt;Node4</title>
<g id="a_edge3_Node000003_Node000004"><a xlink:title=" ">
<path fill="none" stroke="#63b8ff" d="M74.49,-46.5C65.62,-46.5 56.47,-46.5 48.52,-46.5"/>
<polygon fill="#63b8ff" stroke="#63b8ff" points="74.69,-50 84.69,-46.5 74.69,-43 74.69,-50"/>
</a>
</g>
</g>
<!-- Node6 -->
<g id="Node000006" class="node">
<title>Node6</title>
<g id="a_Node000006"><a xlink:href="printf_8h.html#a30e09ab10214b5e9b93f4c765f373649" target="_top" xlink:title=" ">
<polygon fill="white" stroke="#666666" points="49,-19 0,-19 0,0 49,0 49,-19"/>
<text text-anchor="middle" x="24.5" y="-7" font-family="Helvetica,sans-Serif" font-size="10.00">bprintf</text>
</a>
</g>
</g>
<!-- Node5&#45;&gt;Node6 -->
<g id="edge5_Node000005_Node000006" class="edge">
<title>Node5&#45;&gt;Node6</title>
<g id="a_edge5_Node000005_Node000006"><a xlink:title=" ">
<path fill="none" stroke="#63b8ff" d="M76.48,-9.5C67.26,-9.5 57.62,-9.5 49.23,-9.5"/>
<polygon fill="#63b8ff" stroke="#63b8ff" points="76.62,-13 86.62,-9.5 76.62,-6 76.62,-13"/>
</a>
</g>
</g>
</g>
</svg>
</svg>

<style type='text/css'>
<![CDATA[
[data-mouse-over-selected='false'] { opacity: 0.7; }
[data-mouse-over-selected='true']  { opacity: 1.0; }
]]>
</style>
<script type="application/ecmascript"><![CDATA[
document.addEventListener('DOMContentLoaded', (event) => {
  highlightEdges();
  highlightAdjacentNodes();
});
]]></script>
</svg>
