<?xml version="1.0" encoding="UTF-8" standalone="no"?>
<!DOCTYPE svg PUBLIC "-//W3C//DTD SVG 1.1//EN"
 "http://www.w3.org/Graphics/SVG/1.1/DTD/svg11.dtd">
<!-- Generated by graphviz version 2.43.0 (0)
 -->
<!-- Title: printi Pages: 1 -->
<svg width="398pt" height="65pt"
 viewBox="0.00 0.00 398.00 65.00" xmlns="http://www.w3.org/2000/svg" xmlns:xlink="http://www.w3.org/1999/xlink">

<svg id="main" version="1.1" xmlns="http://www.w3.org/2000/svg" xmlns:xlink="http://www.w3.org/1999/xlink" xml:space="preserve" onload="init(evt)">
<style type="text/css"><![CDATA[
.node, .edge {opacity: 0.7;}
.node.selected, .edge.selected {opacity: 1;}
.edge:hover path { stroke: red; }
.edge:hover polygon { stroke: red; fill: red; }
]]></style>
<script type="application/ecmascript" xlink:href="svg.min.js"/>
<svg id="graph" class="graph">
<g id="graph0" class="graph" transform="scale(1 1) rotate(0) translate(4 61)">
<title>printi</title>
<!-- Node1 -->
<g id="Node000001" class="node">
<title>Node1</title>
<g id="a_Node000001"><a xlink:title=" ">
<polygon fill="#999999" stroke="#666666" points="390,-38 348,-38 348,-19 390,-19 390,-38"/>
<text text-anchor="middle" x="369" y="-26" font-family="Helvetica,sans-Serif" font-size="10.00">printi</text>
</a>
</g>
</g>
<!-- Node2 -->
<g id="Node000002" class="node">
<title>Node2</title>
<g id="a_Node000002"><a xlink:href="printf_8c.html#aa0585acb8fbf31a90ffbf65ba543abe1" target="_top" xlink:title=" ">
<polygon fill="white" stroke="#666666" points="215,-38 176,-38 176,-19 215,-19 215,-38"/>
<text text-anchor="middle" x="195.5" y="-26" font-family="Helvetica,sans-Serif" font-size="10.00">print</text>
</a>
</g>
</g>
<!-- Node1&#45;&gt;Node2 -->
<g id="edge1_Node000001_Node000002" class="edge">
<title>Node1&#45;&gt;Node2</title>
<g id="a_edge1_Node000001_Node000002"><a xlink:title=" ">
<path fill="none" stroke="#63b8ff" d="M337.75,-28.5C302.26,-28.5 244.54,-28.5 215.08,-28.5"/>
<polygon fill="#63b8ff" stroke="#63b8ff" points="337.99,-32 347.99,-28.5 337.99,-25 337.99,-32"/>
</a>
</g>
</g>
<!-- Node7 -->
<g id="Node000007" class="node">
<title>Node7</title>
<g id="a_Node000007"><a xlink:href="printf_8c.html#a4e12f38d03cb05b93d73df6a33fcf44d" target="_top" xlink:title=" ">
<polygon fill="white" stroke="#666666" points="312,-19 251,-19 251,0 312,0 312,-19"/>
<text text-anchor="middle" x="281.5" y="-7" font-family="Helvetica,sans-Serif" font-size="10.00">printfloat</text>
</a>
</g>
</g>
<!-- Node1&#45;&gt;Node7 -->
<g id="edge6_Node000001_Node000007" class="edge">
<title>Node1&#45;&gt;Node7</title>
<g id="a_edge6_Node000001_Node000007"><a xlink:title=" ">
<path fill="none" stroke="#63b8ff" d="M337.93,-21.82C329.52,-19.95 320.39,-17.92 312.01,-16.06"/>
<polygon fill="#63b8ff" stroke="#63b8ff" points="337.22,-25.24 347.74,-24 338.74,-18.41 337.22,-25.24"/>
</a>
</g>
</g>
<!-- Node3 -->
<g id="Node000003" class="node">
<title>Node3</title>
<g id="a_Node000003"><a xlink:href="printf_8h.html#a65fa2c2b1fdeb49ee1d35b47be733d17" target="_top" xlink:title=" ">
<polygon fill="white" stroke="#666666" points="140,-57 85,-57 85,-38 140,-38 140,-57"/>
<text text-anchor="middle" x="112.5" y="-45" font-family="Helvetica,sans-Serif" font-size="10.00">vbprintf</text>
</a>
</g>
</g>
<!-- Node2&#45;&gt;Node3 -->
<g id="edge2_Node000002_Node000003" class="edge">
<title>Node2&#45;&gt;Node3</title>
<g id="a_edge2_Node000002_Node000003"><a xlink:title=" ">
<path fill="none" stroke="#63b8ff" d="M165.96,-35.19C157.57,-37.16 148.43,-39.31 140.16,-41.25"/>
<polygon fill="#63b8ff" stroke="#63b8ff" points="166.78,-38.6 175.71,-32.91 165.18,-31.78 166.78,-38.6"/>
</a>
</g>
</g>
<!-- Node5 -->
<g id="Node000005" class="node">
<title>Node5</title>
<g id="a_Node000005"><a xlink:href="printf_8h.html#a984687e0cb1dfa69b33161177d270337" target="_top" xlink:title=" ">
<polygon fill="white" stroke="#666666" points="139.5,-20 85.5,-20 85.5,-1 139.5,-1 139.5,-20"/>
<text text-anchor="middle" x="112.5" y="-8" font-family="Helvetica,sans-Serif" font-size="10.00">vsprintf</text>
</a>
</g>
</g>
<!-- Node2&#45;&gt;Node5 -->
<g id="edge4_Node000002_Node000005" class="edge">
<title>Node2&#45;&gt;Node5</title>
<g id="a_edge4_Node000002_Node000005"><a xlink:title=" ">
<path fill="none" stroke="#63b8ff" d="M165.78,-22.12C157.23,-20.22 147.92,-18.15 139.55,-16.29"/>
<polygon fill="#63b8ff" stroke="#63b8ff" points="165.19,-25.57 175.71,-24.33 166.71,-18.74 165.19,-25.57"/>
</a>
</g>
</g>
<!-- Node4 -->
<g id="Node000004" class="node">
<title>Node4</title>
<g id="a_Node000004"><a xlink:href="printf_8h.html#a30e09ab10214b5e9b93f4c765f373649" target="_top" xlink:title=" ">
<polygon fill="white" stroke="#666666" points="49,-57 0,-57 0,-38 49,-38 49,-57"/>
<text text-anchor="middle" x="24.5" y="-45" font-family="Helvetica,sans-Serif" font-size="10.00">bprintf</text>
</a>
</g>
</g>
<!-- Node3&#45;&gt;Node4 -->
<g id="edge3_Node000003_Node000004" class="edge">
<title>Node3&#45;&gt;Node4</title>
<g id="a_edge3_Node000003_Node000004"><a xlink:title=" ">
<path fill="none" stroke="#63b8ff" d="M74.49,-47.5C65.85,-47.5 56.88,-47.5 49.02,-47.5"/>
<polygon fill="#63b8ff" stroke="#63b8ff" points="74.76,-51 84.76,-47.5 74.76,-44 74.76,-51"/>
</a>
</g>
</g>
<!-- Node6 -->
<g id="Node000006" class="node">
<title>Node6</title>
<g id="a_Node000006"><a xlink:href="printf_8h.html#a014f72d1eb635d44f4547d6153c9afd1" target="_top" xlink:title=" ">
<polygon fill="white" stroke="#666666" points="48.5,-20 0.5,-20 0.5,-1 48.5,-1 48.5,-20"/>
<text text-anchor="middle" x="24.5" y="-8" font-family="Helvetica,sans-Serif" font-size="10.00">sprintf</text>
</a>
</g>
</g>
<!-- Node5&#45;&gt;Node6 -->
<g id="edge5_Node000005_Node000006" class="edge">
<title>Node5&#45;&gt;Node6</title>
<g id="a_edge5_Node000005_Node000006"><a xlink:title=" ">
<path fill="none" stroke="#63b8ff" d="M75.03,-10.5C66.11,-10.5 56.8,-10.5 48.69,-10.5"/>
<polygon fill="#63b8ff" stroke="#63b8ff" points="75.23,-14 85.23,-10.5 75.23,-7 75.23,-14"/>
</a>
</g>
</g>
<!-- Node7&#45;&gt;Node2 -->
<g id="edge7_Node000007_Node000002" class="edge">
<title>Node7&#45;&gt;Node2</title>
<g id="a_edge7_Node000007_Node000002"><a xlink:title=" ">
<path fill="none" stroke="#63b8ff" d="M240.67,-18.51C231.7,-20.54 222.61,-22.6 215.02,-24.31"/>
<polygon fill="#63b8ff" stroke="#63b8ff" points="241.67,-21.87 250.65,-16.25 240.12,-15.04 241.67,-21.87"/>
</a>
</g>
</g>
</g>
</svg>
</svg>

<style type='text/css'>
<![CDATA[
[data-mouse-over-selected='false'] { opacity: 0.7; }
[data-mouse-over-selected='true']  { opacity: 1.0; }
]]>
</style>
<script type="application/ecmascript"><![CDATA[
document.addEventListener('DOMContentLoaded', (event) => {
  highlightEdges();
  highlightAdjacentNodes();
});
]]></script>
</svg>
