<?xml version="1.0" encoding="UTF-8" standalone="no"?>
<!DOCTYPE svg PUBLIC "-//W3C//DTD SVG 1.1//EN"
 "http://www.w3.org/Graphics/SVG/1.1/DTD/svg11.dtd">
<!-- Generated by graphviz version 2.43.0 (0)
 -->
<!-- Title: vsprintf Pages: 1 -->
<!--zoomable 202 -->

<svg id="main" version="1.1" xmlns="http://www.w3.org/2000/svg" xmlns:xlink="http://www.w3.org/1999/xlink" xml:space="preserve" onload="init(evt)">
<style type="text/css"><![CDATA[
.node, .edge {opacity: 0.7;}
.node.selected, .edge.selected {opacity: 1;}
.edge:hover path { stroke: red; }
.edge:hover polygon { stroke: red; fill: red; }
]]></style>

<defs>
  <circle id="rim" cx="0" cy="0" r="7"/>
  <circle id="rim2" cx="0" cy="0" r="3.5"/>
  <g id="zoomPlus">
    <use xlink:href="#rim" fill="#404040"><set attributeName="fill" to="#808080" begin="zoomplus.mouseover" end="zoomplus.mouseout"/></use>
    <path d="M-4,0h8M0,-4v8" fill="none" stroke="white" stroke-width="1.5" pointer-events="none"/>
  </g>
  <g id="zoomMin">
    <use xlink:href="#rim" fill="#404040"><set attributeName="fill" to="#808080" begin="zoomminus.mouseover" end="zoomminus.mouseout"/></use>
    <path d="M-4,0h8" fill="none" stroke="white" stroke-width="1.5" pointer-events="none"/>
  </g>
  <g id="arrowUp" transform="translate(30 24)">
    <use xlink:href="#rim"/>
    <path pointer-events="none" fill="none" stroke="white" stroke-width="1.5" d="M0,-3.0v7 M-2.5,-0.5L0,-3.0L2.5,-0.5"/>
  </g>
  <g id="arrowRight" transform="rotate(90) translate(36 -43)">
    <use xlink:href="#rim"/>
    <path pointer-events="none" fill="none" stroke="white" stroke-width="1.5" d="M0,-3.0v7 M-2.5,-0.5L0,-3.0L2.5,-0.5"/>
  </g>
  <g id="arrowDown" transform="rotate(180) translate(-30 -48)">
    <use xlink:href="#rim"/>
    <path pointer-events="none" fill="none" stroke="white" stroke-width="1.5" d="M0,-3.0v7 M-2.5,-0.5L0,-3.0L2.5,-0.5"/>
  </g>
  <g id="arrowLeft" transform="rotate(270) translate(-36 17)">
    <use xlink:href="#rim"/>
    <path pointer-events="none" fill="none" stroke="white" stroke-width="1.5" d="M0,-3.0v7 M-2.5,-0.5L0,-3.0L2.5,-0.5"/>
  </g>
  <g id="resetDef">
    <use xlink:href="#rim2" fill="#404040"><set attributeName="fill" to="#808080" begin="reset.mouseover" end="reset.mouseout"/></use>
  </g>
</defs>
<script type="application/ecmascript">
var viewWidth = 622;
var viewHeight = 202;
var sectionId = 'dynsection-9';
</script>
<script type="application/ecmascript" xlink:href="svg.min.js"/>
<svg id="graph" class="graph">
<g id="viewport">
<title>vsprintf</title>
<!-- Node1 -->
<g id="Node000001" class="node">
<title>Node1</title>
<g id="a_Node000001"><a xlink:title=" ">
<polygon fill="#999999" stroke="#666666" points="54,-79.01 0,-79.01 0,-60.01 54,-60.01 54,-79.01"/>
<text text-anchor="middle" x="27" y="-67.01" font-family="Helvetica,sans-Serif" font-size="10.00">vsprintf</text>
</a>
</g>
</g>
<!-- Node2 -->
<g id="Node000002" class="node">
<title>Node2</title>
<g id="a_Node000002"><a xlink:href="printf_8c.html#a5b328a8f32f082a641944307c97f9a34" target="_top" xlink:title=" ">
<polygon fill="white" stroke="#666666" points="129,-79.01 90,-79.01 90,-60.01 129,-60.01 129,-79.01"/>
<text text-anchor="middle" x="109.5" y="-67.01" font-family="Helvetica,sans-Serif" font-size="10.00">print</text>
</a>
</g>
</g>
<!-- Node1&#45;&gt;Node2 -->
<g id="edge1_Node000001_Node000002" class="edge">
<title>Node1&#45;&gt;Node2</title>
<g id="a_edge1_Node000001_Node000002"><a xlink:title=" ">
<path fill="none" stroke="#63b8ff" d="M54.36,-69.51C62.55,-69.51 71.61,-69.51 79.94,-69.51"/>
<polygon fill="#63b8ff" stroke="#63b8ff" points="79.98,-73.01 89.98,-69.51 79.98,-66.01 79.98,-73.01"/>
</a>
</g>
</g>
<!-- Node3 -->
<g id="Node000003" class="node">
<title>Node3</title>
<g id="a_Node000003"><a xlink:href="printf_8c.html#a467a00da8c720b8dddc7088e2805291c" target="_top" xlink:title=" ">
<polygon fill="white" stroke="#666666" points="525,-146.01 465,-146.01 465,-127.01 525,-127.01 525,-146.01"/>
<text text-anchor="middle" x="495" y="-134.01" font-family="Helvetica,sans-Serif" font-size="10.00">printchar</text>
</a>
</g>
</g>
<!-- Node2&#45;&gt;Node3 -->
<g id="edge2_Node000002_Node000003" class="edge">
<title>Node2&#45;&gt;Node3</title>
<g id="a_edge2_Node000002_Node000003"><a xlink:title=" ">
<path fill="none" stroke="#63b8ff" d="M119.62,-79.09C141.56,-101.36 200.1,-156.19 262,-175.51 332.87,-197.63 357.9,-200.9 429,-179.51 446.48,-174.25 463.58,-162.6 475.85,-152.75"/>
<polygon fill="#63b8ff" stroke="#63b8ff" points="478.11,-155.42 483.52,-146.32 473.61,-150.06 478.11,-155.42"/>
</a>
</g>
</g>
<!-- Node5 -->
<g id="Node000005" class="node">
<title>Node5</title>
<g id="a_Node000005"><a xlink:href="printf_8c.html#a2c37f08c54b3dc54d13030c62cba67a7" target="_top" xlink:title=" ">
<polygon fill="white" stroke="#666666" points="226,-79.01 165,-79.01 165,-60.01 226,-60.01 226,-79.01"/>
<text text-anchor="middle" x="195.5" y="-67.01" font-family="Helvetica,sans-Serif" font-size="10.00">printfloat</text>
</a>
</g>
</g>
<!-- Node2&#45;&gt;Node5 -->
<g id="edge4_Node000002_Node000005" class="edge">
<title>Node2&#45;&gt;Node5</title>
<g id="a_edge4_Node000002_Node000005"><a xlink:title=" ">
<path fill="none" stroke="#63b8ff" d="M129.14,-69.51C136.65,-69.51 145.61,-69.51 154.46,-69.51"/>
<polygon fill="#63b8ff" stroke="#63b8ff" points="154.69,-73.01 164.69,-69.51 154.69,-66.01 154.69,-73.01"/>
</a>
</g>
</g>
<!-- Node7 -->
<g id="Node000007" class="node">
<title>Node7</title>
<g id="a_Node000007"><a xlink:href="printf_8c.html#ad9c642f8af1fe47d03e648b146da3b8d" target="_top" xlink:title=" ">
<polygon fill="white" stroke="#666666" points="304,-32.01 262,-32.01 262,-13.01 304,-13.01 304,-32.01"/>
<text text-anchor="middle" x="283" y="-20.01" font-family="Helvetica,sans-Serif" font-size="10.00">printi</text>
</a>
</g>
</g>
<!-- Node2&#45;&gt;Node7 -->
<g id="edge13_Node000002_Node000007" class="edge">
<title>Node2&#45;&gt;Node7</title>
<g id="a_edge13_Node000002_Node000007"><a xlink:title=" ">
<path fill="none" stroke="#63b8ff" d="M129.02,-62.53C139.49,-58.72 152.88,-54.06 165,-50.51 194.33,-41.91 228.36,-33.99 252.13,-28.79"/>
<polygon fill="#63b8ff" stroke="#63b8ff" points="252.93,-32.2 261.97,-26.66 251.45,-25.35 252.93,-32.2"/>
</a>
</g>
</g>
<!-- Node8 -->
<g id="Node000008" class="node">
<title>Node8</title>
<g id="a_Node000008"><a xlink:href="printf_8c.html#a6ce76a789a6153b7e1b16bc3a6969563" target="_top" xlink:title=" ">
<polygon fill="white" stroke="#666666" points="406.5,-70.01 362.5,-70.01 362.5,-51.01 406.5,-51.01 406.5,-70.01"/>
<text text-anchor="middle" x="384.5" y="-58.01" font-family="Helvetica,sans-Serif" font-size="10.00">prints</text>
</a>
</g>
</g>
<!-- Node2&#45;&gt;Node8 -->
<g id="edge18_Node000002_Node000008" class="edge">
<title>Node2&#45;&gt;Node8</title>
<g id="a_edge18_Node000002_Node000008"><a xlink:title=" ">
<path fill="none" stroke="#63b8ff" d="M121.93,-59.86C132.5,-51.35 148.97,-39.16 165,-31.51 205.5,-12.2 217.57,-9.79 262,-3.51 280.48,-0.9 286.23,2.2 304,-3.51 328.56,-11.4 351.96,-29.99 366.93,-43.81"/>
<polygon fill="#63b8ff" stroke="#63b8ff" points="364.69,-46.51 374.34,-50.9 369.53,-41.45 364.69,-46.51"/>
</a>
</g>
</g>
<!-- Node9 -->
<g id="Node000009" class="node">
<title>Node9</title>
<g id="a_Node000009"><a xlink:href="printf_8c.html#a700fcb0af9d5d9311fe8a86380747db7" target="_top" xlink:title=" ">
<polygon fill="white" stroke="#666666" points="304,-146.01 262,-146.01 262,-127.01 304,-127.01 304,-146.01"/>
<text text-anchor="middle" x="283" y="-134.01" font-family="Helvetica,sans-Serif" font-size="10.00">printl</text>
</a>
</g>
</g>
<!-- Node2&#45;&gt;Node9 -->
<g id="edge14_Node000002_Node000009" class="edge">
<title>Node2&#45;&gt;Node9</title>
<g id="a_edge14_Node000002_Node000009"><a xlink:title=" ">
<path fill="none" stroke="#63b8ff" d="M129.18,-76.81C158.86,-88.4 217.03,-111.13 252.42,-124.95"/>
<polygon fill="#63b8ff" stroke="#63b8ff" points="251.17,-128.22 261.76,-128.6 253.71,-121.7 251.17,-128.22"/>
</a>
</g>
</g>
<!-- Node4 -->
<g id="Node000004" class="node">
<title>Node4</title>
<g id="a_Node000004"><a xlink:href="printf_8c.html#af4de2514b7778805db3815e8dd6cf09a" target="_top" xlink:title=" ">
<polygon fill="white" stroke="#666666" points="614,-146.01 561,-146.01 561,-127.01 614,-127.01 614,-146.01"/>
<text text-anchor="middle" x="587.5" y="-134.01" font-family="Helvetica,sans-Serif" font-size="10.00">putchar</text>
</a>
</g>
</g>
<!-- Node3&#45;&gt;Node4 -->
<g id="edge3_Node000003_Node000004" class="edge">
<title>Node3&#45;&gt;Node4</title>
<g id="a_edge3_Node000003_Node000004"><a xlink:title=" ">
<path fill="none" stroke="#63b8ff" d="M525.13,-136.51C533.29,-136.51 542.25,-136.51 550.74,-136.51"/>
<polygon fill="#63b8ff" stroke="#63b8ff" points="550.78,-140.01 560.78,-136.51 550.78,-133.01 550.78,-140.01"/>
</a>
</g>
</g>
<!-- Node5&#45;&gt;Node3 -->
<g id="edge6_Node000005_Node000003" class="edge">
<title>Node5&#45;&gt;Node3</title>
<g id="a_edge6_Node000005_Node000003"><a xlink:title=" ">
<path fill="none" stroke="#63b8ff" d="M200.3,-79.06C208.37,-97.87 229.21,-139.26 262,-155.51 326.61,-187.51 413.84,-165.68 460.79,-149.51"/>
<polygon fill="#63b8ff" stroke="#63b8ff" points="462.2,-152.72 470.45,-146.06 459.85,-146.13 462.2,-152.72"/>
</a>
</g>
</g>
<!-- Node6 -->
<g id="Node000006" class="node">
<title>Node6</title>
<g id="a_Node000006"><a xlink:href="printf_8c.html#a81ec43c10454c3c5036f9876f067d219" target="_top" xlink:title=" ">
<polygon fill="white" stroke="#666666" points="429,-108.01 340,-108.01 340,-89.01 429,-89.01 429,-108.01"/>
<text text-anchor="middle" x="384.5" y="-96.01" font-family="Helvetica,sans-Serif" font-size="10.00">_write_number</text>
</a>
</g>
</g>
<!-- Node5&#45;&gt;Node6 -->
<g id="edge5_Node000005_Node000006" class="edge">
<title>Node5&#45;&gt;Node6</title>
<g id="a_edge5_Node000005_Node000006"><a xlink:title=" ">
<path fill="none" stroke="#63b8ff" d="M226.13,-74.1C253.85,-78.4 295.92,-84.93 329.58,-90.15"/>
<polygon fill="#63b8ff" stroke="#63b8ff" points="329.32,-93.65 339.74,-91.72 330.39,-86.73 329.32,-93.65"/>
</a>
</g>
</g>
<!-- Node5&#45;&gt;Node7 -->
<g id="edge7_Node000005_Node000007" class="edge">
<title>Node5&#45;&gt;Node7</title>
<g id="a_edge7_Node000005_Node000007"><a xlink:title=" ">
<path fill="none" stroke="#63b8ff" d="M213.8,-60C225.78,-53.42 241.94,-44.53 255.52,-37.07"/>
<polygon fill="#63b8ff" stroke="#63b8ff" points="257.35,-40.05 264.43,-32.17 253.98,-33.92 257.35,-40.05"/>
</a>
</g>
</g>
<!-- Node5&#45;&gt;Node8 -->
<g id="edge12_Node000005_Node000008" class="edge">
<title>Node5&#45;&gt;Node8</title>
<g id="a_edge12_Node000005_Node000008"><a xlink:title=" ">
<path fill="none" stroke="#63b8ff" d="M226.13,-68.08C260.57,-66.43 317.15,-63.7 352.26,-62.01"/>
<polygon fill="#63b8ff" stroke="#63b8ff" points="352.6,-65.5 362.42,-61.52 352.27,-58.51 352.6,-65.5"/>
</a>
</g>
</g>
<!-- Node7&#45;&gt;Node3 -->
<g id="edge9_Node000007_Node000003" class="edge">
<title>Node7&#45;&gt;Node3</title>
<g id="a_edge9_Node000007_Node000003"><a xlink:title=" ">
<path fill="none" stroke="#63b8ff" d="M304.45,-20.22C334.19,-17.92 390.05,-17.6 429,-41.51 457.96,-59.29 477.13,-95.37 486.74,-117.59"/>
<polygon fill="#63b8ff" stroke="#63b8ff" points="483.55,-119.05 490.58,-126.98 490.03,-116.4 483.55,-119.05"/>
</a>
</g>
</g>
<!-- Node7&#45;&gt;Node6 -->
<g id="edge8_Node000007_Node000006" class="edge">
<title>Node7&#45;&gt;Node6</title>
<g id="a_edge8_Node000007_Node000006"><a xlink:title=" ">
<path fill="none" stroke="#63b8ff" d="M291.86,-32.28C301.98,-44.36 320.59,-65 340,-78.51 343.04,-80.63 346.35,-82.62 349.73,-84.46"/>
<polygon fill="#63b8ff" stroke="#63b8ff" points="348.23,-87.62 358.74,-88.96 351.36,-81.36 348.23,-87.62"/>
</a>
</g>
</g>
<!-- Node7&#45;&gt;Node8 -->
<g id="edge10_Node000007_Node000008" class="edge">
<title>Node7&#45;&gt;Node8</title>
<g id="a_edge10_Node000007_Node000008"><a xlink:title=" ">
<path fill="none" stroke="#63b8ff" d="M304.14,-30.2C318.15,-35.55 337.09,-42.79 352.96,-48.84"/>
<polygon fill="#63b8ff" stroke="#63b8ff" points="351.77,-52.14 362.36,-52.44 354.27,-45.6 351.77,-52.14"/>
</a>
</g>
</g>
<!-- Node8&#45;&gt;Node3 -->
<g id="edge11_Node000008_Node000003" class="edge">
<title>Node8&#45;&gt;Node3</title>
<g id="a_edge11_Node000008_Node000003"><a xlink:title=" ">
<path fill="none" stroke="#63b8ff" d="M406.52,-68.16C413.88,-71.23 422.04,-75.09 429,-79.51 446.88,-90.86 464.79,-107.02 477.27,-119.23"/>
<polygon fill="#63b8ff" stroke="#63b8ff" points="475.09,-122 484.64,-126.6 480.04,-117.05 475.09,-122"/>
</a>
</g>
</g>
<!-- Node9&#45;&gt;Node3 -->
<g id="edge16_Node000009_Node000003" class="edge">
<title>Node9&#45;&gt;Node3</title>
<g id="a_edge16_Node000009_Node000003"><a xlink:title=" ">
<path fill="none" stroke="#63b8ff" d="M304.14,-136.51C338.73,-136.51 410.03,-136.51 454.74,-136.51"/>
<polygon fill="#63b8ff" stroke="#63b8ff" points="454.95,-140.01 464.95,-136.51 454.95,-133.01 454.95,-140.01"/>
</a>
</g>
</g>
<!-- Node9&#45;&gt;Node6 -->
<g id="edge15_Node000009_Node000006" class="edge">
<title>Node9&#45;&gt;Node6</title>
<g id="a_edge15_Node000009_Node000006"><a xlink:title=" ">
<path fill="none" stroke="#63b8ff" d="M304.14,-128.82C316.99,-123.91 334,-117.42 348.97,-111.7"/>
<polygon fill="#63b8ff" stroke="#63b8ff" points="350.35,-114.91 358.45,-108.08 347.86,-108.38 350.35,-114.91"/>
</a>
</g>
</g>
<!-- Node9&#45;&gt;Node8 -->
<g id="edge17_Node000009_Node000008" class="edge">
<title>Node9&#45;&gt;Node8</title>
<g id="a_edge17_Node000009_Node000008"><a xlink:title=" ">
<path fill="none" stroke="#63b8ff" d="M291.44,-126.93C301.39,-114.61 320.12,-93.2 340,-79.51 344.03,-76.73 348.53,-74.22 353.07,-72.01"/>
<polygon fill="#63b8ff" stroke="#63b8ff" points="354.6,-75.16 362.29,-67.87 351.73,-68.77 354.6,-75.16"/>
</a>
</g>
</g>
</g>
</svg>

<g id="navigator" transform="translate(0 0)" fill="#404254">
  <rect fill="#f2f5e9" fill-opacity="0.5" stroke="#606060" stroke-width=".5" x="0" y="0" width="60" height="60"/>
  <use id="zoomplus" xlink:href="#zoomPlus" x="17" y="9" onmousedown="handleZoom(evt,'in')"/>
  <use id="zoomminus" xlink:href="#zoomMin" x="42" y="9" onmousedown="handleZoom(evt,'out')"/>
  <use id="reset" xlink:href="#resetDef" x="30" y="36" onmousedown="handleReset()"/>
   <use id="arrowup" xlink:href="#arrowUp" x="0" y="0" onmousedown="handlePan(0,-1)"/>
  <use id="arrowright" xlink:href="#arrowRight" x="0" y="0" onmousedown="handlePan(1,0)"/>
  <use id="arrowdown" xlink:href="#arrowDown" x="0" y="0" onmousedown="handlePan(0,1)"/>
  <use id="arrowleft" xlink:href="#arrowLeft" x="0" y="0" onmousedown="handlePan(-1,0)"/>
</g>
<svg viewBox="0 0 15 15" width="100%" height="30px" preserveAspectRatio="xMaxYMin meet">
 <g id="arrow_out" transform="scale(0.3 0.3)">
  <a xlink:href="printf_8h_a984687e0cb1dfa69b33161177d270337_cgraph_org.svg" target="_base">
   <rect id="button" ry="5" rx="5" y="6" x="6" height="38" width="38"
        fill="#f2f5e9" fill-opacity="0.5" stroke="#606060" stroke-width="1.0"/>
   <path id="arrow"
     d="M 11.500037,31.436501 C 11.940474,20.09759 22.043105,11.32322 32.158766,21.979434 L 37.068811,17.246167 C 37.068811,17.246167 37.088388,32 37.088388,32 L 22.160133,31.978069 C 22.160133,31.978069 26.997745,27.140456 26.997745,27.140456 C 18.528582,18.264221 13.291696,25.230495 11.500037,31.436501 z"
     style="fill:#404040;"/>
  </a>
 </g>
</svg>

<style type='text/css'>
<![CDATA[
[data-mouse-over-selected='false'] { opacity: 0.7; }
[data-mouse-over-selected='true']  { opacity: 1.0; }
]]>
</style>
<script type="application/ecmascript"><![CDATA[
document.addEventListener('DOMContentLoaded', (event) => {
  highlightEdges();
  highlightAdjacentNodes();
});
]]></script>
</svg>
