<?xml version="1.0" encoding="UTF-8" standalone="no"?>
<!DOCTYPE svg PUBLIC "-//W3C//DTD SVG 1.1//EN"
 "http://www.w3.org/Graphics/SVG/1.1/DTD/svg11.dtd">
<!-- Generated by graphviz version 2.43.0 (0)
 -->
<!-- Title: vbprintf Pages: 1 -->
<!--zoomable 202 -->

<svg id="main" version="1.1" xmlns="http://www.w3.org/2000/svg" xmlns:xlink="http://www.w3.org/1999/xlink" xml:space="preserve" onload="init(evt)">
<style type="text/css"><![CDATA[
.node, .edge {opacity: 0.7;}
.node.selected, .edge.selected {opacity: 1;}
.edge:hover path { stroke: red; }
.edge:hover polygon { stroke: red; fill: red; }
]]></style>

<defs>
  <circle id="rim" cx="0" cy="0" r="7"/>
  <circle id="rim2" cx="0" cy="0" r="3.5"/>
  <g id="zoomPlus">
    <use xlink:href="#rim" fill="#404040"><set attributeName="fill" to="#808080" begin="zoomplus.mouseover" end="zoomplus.mouseout"/></use>
    <path d="M-4,0h8M0,-4v8" fill="none" stroke="white" stroke-width="1.5" pointer-events="none"/>
  </g>
  <g id="zoomMin">
    <use xlink:href="#rim" fill="#404040"><set attributeName="fill" to="#808080" begin="zoomminus.mouseover" end="zoomminus.mouseout"/></use>
    <path d="M-4,0h8" fill="none" stroke="white" stroke-width="1.5" pointer-events="none"/>
  </g>
  <g id="arrowUp" transform="translate(30 24)">
    <use xlink:href="#rim"/>
    <path pointer-events="none" fill="none" stroke="white" stroke-width="1.5" d="M0,-3.0v7 M-2.5,-0.5L0,-3.0L2.5,-0.5"/>
  </g>
  <g id="arrowRight" transform="rotate(90) translate(36 -43)">
    <use xlink:href="#rim"/>
    <path pointer-events="none" fill="none" stroke="white" stroke-width="1.5" d="M0,-3.0v7 M-2.5,-0.5L0,-3.0L2.5,-0.5"/>
  </g>
  <g id="arrowDown" transform="rotate(180) translate(-30 -48)">
    <use xlink:href="#rim"/>
    <path pointer-events="none" fill="none" stroke="white" stroke-width="1.5" d="M0,-3.0v7 M-2.5,-0.5L0,-3.0L2.5,-0.5"/>
  </g>
  <g id="arrowLeft" transform="rotate(270) translate(-36 17)">
    <use xlink:href="#rim"/>
    <path pointer-events="none" fill="none" stroke="white" stroke-width="1.5" d="M0,-3.0v7 M-2.5,-0.5L0,-3.0L2.5,-0.5"/>
  </g>
  <g id="resetDef">
    <use xlink:href="#rim2" fill="#404040"><set attributeName="fill" to="#808080" begin="reset.mouseover" end="reset.mouseout"/></use>
  </g>
</defs>
<script type="application/ecmascript">
var viewWidth = 623;
var viewHeight = 202;
var sectionId = 'dynsection-7';
</script>
<script type="application/ecmascript" xlink:href="svg.min.js"/>
<svg id="graph" class="graph">
<g id="viewport">
<title>vbprintf</title>
<!-- Node1 -->
<g id="Node000001" class="node">
<title>Node1</title>
<g id="a_Node000001"><a xlink:title=" ">
<polygon fill="#999999" stroke="#666666" points="55,-79.01 0,-79.01 0,-60.01 55,-60.01 55,-79.01"/>
<text text-anchor="middle" x="27.5" y="-67.01" font-family="Helvetica,sans-Serif" font-size="10.00">vbprintf</text>
</a>
</g>
</g>
<!-- Node2 -->
<g id="Node000002" class="node">
<title>Node2</title>
<g id="a_Node000002"><a xlink:href="printf_8c.html#aa0585acb8fbf31a90ffbf65ba543abe1" target="_top" xlink:title=" ">
<polygon fill="white" stroke="#666666" points="130,-79.01 91,-79.01 91,-60.01 130,-60.01 130,-79.01"/>
<text text-anchor="middle" x="110.5" y="-67.01" font-family="Helvetica,sans-Serif" font-size="10.00">print</text>
</a>
</g>
</g>
<!-- Node1&#45;&gt;Node2 -->
<g id="edge1_Node000001_Node000002" class="edge">
<title>Node1&#45;&gt;Node2</title>
<g id="a_edge1_Node000001_Node000002"><a xlink:title=" ">
<path fill="none" stroke="#63b8ff" d="M55.02,-69.51C63.26,-69.51 72.38,-69.51 80.77,-69.51"/>
<polygon fill="#63b8ff" stroke="#63b8ff" points="80.87,-73.01 90.87,-69.51 80.87,-66.01 80.87,-73.01"/>
</a>
</g>
</g>
<!-- Node3 -->
<g id="Node000003" class="node">
<title>Node3</title>
<g id="a_Node000003"><a xlink:href="printf_8c.html#a7db7a232586308b02fc3760686d33e28" target="_top" xlink:title=" ">
<polygon fill="white" stroke="#666666" points="526,-146.01 466,-146.01 466,-127.01 526,-127.01 526,-146.01"/>
<text text-anchor="middle" x="496" y="-134.01" font-family="Helvetica,sans-Serif" font-size="10.00">printchar</text>
</a>
</g>
</g>
<!-- Node2&#45;&gt;Node3 -->
<g id="edge2_Node000002_Node000003" class="edge">
<title>Node2&#45;&gt;Node3</title>
<g id="a_edge2_Node000002_Node000003"><a xlink:title=" ">
<path fill="none" stroke="#63b8ff" d="M120.62,-79.09C142.56,-101.36 201.1,-156.19 263,-175.51 333.87,-197.63 358.9,-200.9 430,-179.51 447.48,-174.25 464.58,-162.6 476.85,-152.75"/>
<polygon fill="#63b8ff" stroke="#63b8ff" points="479.11,-155.42 484.52,-146.32 474.61,-150.06 479.11,-155.42"/>
</a>
</g>
</g>
<!-- Node5 -->
<g id="Node000005" class="node">
<title>Node5</title>
<g id="a_Node000005"><a xlink:href="printf_8c.html#a4e12f38d03cb05b93d73df6a33fcf44d" target="_top" xlink:title=" ">
<polygon fill="white" stroke="#666666" points="227,-79.01 166,-79.01 166,-60.01 227,-60.01 227,-79.01"/>
<text text-anchor="middle" x="196.5" y="-67.01" font-family="Helvetica,sans-Serif" font-size="10.00">printfloat</text>
</a>
</g>
</g>
<!-- Node2&#45;&gt;Node5 -->
<g id="edge4_Node000002_Node000005" class="edge">
<title>Node2&#45;&gt;Node5</title>
<g id="a_edge4_Node000002_Node000005"><a xlink:title=" ">
<path fill="none" stroke="#63b8ff" d="M130.14,-69.51C137.65,-69.51 146.61,-69.51 155.46,-69.51"/>
<polygon fill="#63b8ff" stroke="#63b8ff" points="155.69,-73.01 165.69,-69.51 155.69,-66.01 155.69,-73.01"/>
</a>
</g>
</g>
<!-- Node7 -->
<g id="Node000007" class="node">
<title>Node7</title>
<g id="a_Node000007"><a xlink:href="printf_8c.html#adfff6d9f2c0e097309c2eecbaefffadc" target="_top" xlink:title=" ">
<polygon fill="white" stroke="#666666" points="305,-32.01 263,-32.01 263,-13.01 305,-13.01 305,-32.01"/>
<text text-anchor="middle" x="284" y="-20.01" font-family="Helvetica,sans-Serif" font-size="10.00">printi</text>
</a>
</g>
</g>
<!-- Node2&#45;&gt;Node7 -->
<g id="edge13_Node000002_Node000007" class="edge">
<title>Node2&#45;&gt;Node7</title>
<g id="a_edge13_Node000002_Node000007"><a xlink:title=" ">
<path fill="none" stroke="#63b8ff" d="M130.02,-62.53C140.49,-58.72 153.88,-54.06 166,-50.51 195.33,-41.91 229.36,-33.99 253.13,-28.79"/>
<polygon fill="#63b8ff" stroke="#63b8ff" points="253.93,-32.2 262.97,-26.66 252.45,-25.35 253.93,-32.2"/>
</a>
</g>
</g>
<!-- Node8 -->
<g id="Node000008" class="node">
<title>Node8</title>
<g id="a_Node000008"><a xlink:href="printf_8c.html#a82b717dcaae3a36d5c6a088c211f0b26" target="_top" xlink:title=" ">
<polygon fill="white" stroke="#666666" points="407.5,-70.01 363.5,-70.01 363.5,-51.01 407.5,-51.01 407.5,-70.01"/>
<text text-anchor="middle" x="385.5" y="-58.01" font-family="Helvetica,sans-Serif" font-size="10.00">prints</text>
</a>
</g>
</g>
<!-- Node2&#45;&gt;Node8 -->
<g id="edge18_Node000002_Node000008" class="edge">
<title>Node2&#45;&gt;Node8</title>
<g id="a_edge18_Node000002_Node000008"><a xlink:title=" ">
<path fill="none" stroke="#63b8ff" d="M122.93,-59.86C133.5,-51.35 149.97,-39.16 166,-31.51 206.5,-12.2 218.57,-9.79 263,-3.51 281.48,-0.9 287.23,2.2 305,-3.51 329.56,-11.4 352.96,-29.99 367.93,-43.81"/>
<polygon fill="#63b8ff" stroke="#63b8ff" points="365.69,-46.51 375.34,-50.9 370.53,-41.45 365.69,-46.51"/>
</a>
</g>
</g>
<!-- Node9 -->
<g id="Node000009" class="node">
<title>Node9</title>
<g id="a_Node000009"><a xlink:href="printf_8c.html#a44b3fa8064b83d7df40fc6a87f821298" target="_top" xlink:title=" ">
<polygon fill="white" stroke="#666666" points="305,-146.01 263,-146.01 263,-127.01 305,-127.01 305,-146.01"/>
<text text-anchor="middle" x="284" y="-134.01" font-family="Helvetica,sans-Serif" font-size="10.00">printl</text>
</a>
</g>
</g>
<!-- Node2&#45;&gt;Node9 -->
<g id="edge14_Node000002_Node000009" class="edge">
<title>Node2&#45;&gt;Node9</title>
<g id="a_edge14_Node000002_Node000009"><a xlink:title=" ">
<path fill="none" stroke="#63b8ff" d="M130.18,-76.81C159.86,-88.4 218.03,-111.13 253.42,-124.95"/>
<polygon fill="#63b8ff" stroke="#63b8ff" points="252.17,-128.22 262.76,-128.6 254.71,-121.7 252.17,-128.22"/>
</a>
</g>
</g>
<!-- Node4 -->
<g id="Node000004" class="node">
<title>Node4</title>
<g id="a_Node000004"><a xlink:href="printf_8c.html#af4de2514b7778805db3815e8dd6cf09a" target="_top" xlink:title=" ">
<polygon fill="white" stroke="#666666" points="615,-146.01 562,-146.01 562,-127.01 615,-127.01 615,-146.01"/>
<text text-anchor="middle" x="588.5" y="-134.01" font-family="Helvetica,sans-Serif" font-size="10.00">putchar</text>
</a>
</g>
</g>
<!-- Node3&#45;&gt;Node4 -->
<g id="edge3_Node000003_Node000004" class="edge">
<title>Node3&#45;&gt;Node4</title>
<g id="a_edge3_Node000003_Node000004"><a xlink:title=" ">
<path fill="none" stroke="#63b8ff" d="M526.13,-136.51C534.29,-136.51 543.25,-136.51 551.74,-136.51"/>
<polygon fill="#63b8ff" stroke="#63b8ff" points="551.78,-140.01 561.78,-136.51 551.78,-133.01 551.78,-140.01"/>
</a>
</g>
</g>
<!-- Node5&#45;&gt;Node3 -->
<g id="edge6_Node000005_Node000003" class="edge">
<title>Node5&#45;&gt;Node3</title>
<g id="a_edge6_Node000005_Node000003"><a xlink:title=" ">
<path fill="none" stroke="#63b8ff" d="M201.3,-79.06C209.37,-97.87 230.21,-139.26 263,-155.51 327.61,-187.51 414.84,-165.68 461.79,-149.51"/>
<polygon fill="#63b8ff" stroke="#63b8ff" points="463.2,-152.72 471.45,-146.06 460.85,-146.13 463.2,-152.72"/>
</a>
</g>
</g>
<!-- Node6 -->
<g id="Node000006" class="node">
<title>Node6</title>
<g id="a_Node000006"><a xlink:href="printf_8c.html#a81ec43c10454c3c5036f9876f067d219" target="_top" xlink:title=" ">
<polygon fill="white" stroke="#666666" points="430,-108.01 341,-108.01 341,-89.01 430,-89.01 430,-108.01"/>
<text text-anchor="middle" x="385.5" y="-96.01" font-family="Helvetica,sans-Serif" font-size="10.00">_write_number</text>
</a>
</g>
</g>
<!-- Node5&#45;&gt;Node6 -->
<g id="edge5_Node000005_Node000006" class="edge">
<title>Node5&#45;&gt;Node6</title>
<g id="a_edge5_Node000005_Node000006"><a xlink:title=" ">
<path fill="none" stroke="#63b8ff" d="M227.13,-74.1C254.85,-78.4 296.92,-84.93 330.58,-90.15"/>
<polygon fill="#63b8ff" stroke="#63b8ff" points="330.32,-93.65 340.74,-91.72 331.39,-86.73 330.32,-93.65"/>
</a>
</g>
</g>
<!-- Node5&#45;&gt;Node7 -->
<g id="edge7_Node000005_Node000007" class="edge">
<title>Node5&#45;&gt;Node7</title>
<g id="a_edge7_Node000005_Node000007"><a xlink:title=" ">
<path fill="none" stroke="#63b8ff" d="M214.8,-60C226.78,-53.42 242.94,-44.53 256.52,-37.07"/>
<polygon fill="#63b8ff" stroke="#63b8ff" points="258.35,-40.05 265.43,-32.17 254.98,-33.92 258.35,-40.05"/>
</a>
</g>
</g>
<!-- Node5&#45;&gt;Node8 -->
<g id="edge12_Node000005_Node000008" class="edge">
<title>Node5&#45;&gt;Node8</title>
<g id="a_edge12_Node000005_Node000008"><a xlink:title=" ">
<path fill="none" stroke="#63b8ff" d="M227.13,-68.08C261.57,-66.43 318.15,-63.7 353.26,-62.01"/>
<polygon fill="#63b8ff" stroke="#63b8ff" points="353.6,-65.5 363.42,-61.52 353.27,-58.51 353.6,-65.5"/>
</a>
</g>
</g>
<!-- Node7&#45;&gt;Node3 -->
<g id="edge9_Node000007_Node000003" class="edge">
<title>Node7&#45;&gt;Node3</title>
<g id="a_edge9_Node000007_Node000003"><a xlink:title=" ">
<path fill="none" stroke="#63b8ff" d="M305.45,-20.22C335.19,-17.92 391.05,-17.6 430,-41.51 458.96,-59.29 478.13,-95.37 487.74,-117.59"/>
<polygon fill="#63b8ff" stroke="#63b8ff" points="484.55,-119.05 491.58,-126.98 491.03,-116.4 484.55,-119.05"/>
</a>
</g>
</g>
<!-- Node7&#45;&gt;Node6 -->
<g id="edge8_Node000007_Node000006" class="edge">
<title>Node7&#45;&gt;Node6</title>
<g id="a_edge8_Node000007_Node000006"><a xlink:title=" ">
<path fill="none" stroke="#63b8ff" d="M292.86,-32.28C302.98,-44.36 321.59,-65 341,-78.51 344.04,-80.63 347.35,-82.62 350.73,-84.46"/>
<polygon fill="#63b8ff" stroke="#63b8ff" points="349.23,-87.62 359.74,-88.96 352.36,-81.36 349.23,-87.62"/>
</a>
</g>
</g>
<!-- Node7&#45;&gt;Node8 -->
<g id="edge10_Node000007_Node000008" class="edge">
<title>Node7&#45;&gt;Node8</title>
<g id="a_edge10_Node000007_Node000008"><a xlink:title=" ">
<path fill="none" stroke="#63b8ff" d="M305.14,-30.2C319.15,-35.55 338.09,-42.79 353.96,-48.84"/>
<polygon fill="#63b8ff" stroke="#63b8ff" points="352.77,-52.14 363.36,-52.44 355.27,-45.6 352.77,-52.14"/>
</a>
</g>
</g>
<!-- Node8&#45;&gt;Node3 -->
<g id="edge11_Node000008_Node000003" class="edge">
<title>Node8&#45;&gt;Node3</title>
<g id="a_edge11_Node000008_Node000003"><a xlink:title=" ">
<path fill="none" stroke="#63b8ff" d="M407.52,-68.16C414.88,-71.23 423.04,-75.09 430,-79.51 447.88,-90.86 465.79,-107.02 478.27,-119.23"/>
<polygon fill="#63b8ff" stroke="#63b8ff" points="476.09,-122 485.64,-126.6 481.04,-117.05 476.09,-122"/>
</a>
</g>
</g>
<!-- Node9&#45;&gt;Node3 -->
<g id="edge16_Node000009_Node000003" class="edge">
<title>Node9&#45;&gt;Node3</title>
<g id="a_edge16_Node000009_Node000003"><a xlink:title=" ">
<path fill="none" stroke="#63b8ff" d="M305.14,-136.51C339.73,-136.51 411.03,-136.51 455.74,-136.51"/>
<polygon fill="#63b8ff" stroke="#63b8ff" points="455.95,-140.01 465.95,-136.51 455.95,-133.01 455.95,-140.01"/>
</a>
</g>
</g>
<!-- Node9&#45;&gt;Node6 -->
<g id="edge15_Node000009_Node000006" class="edge">
<title>Node9&#45;&gt;Node6</title>
<g id="a_edge15_Node000009_Node000006"><a xlink:title=" ">
<path fill="none" stroke="#63b8ff" d="M305.14,-128.82C317.99,-123.91 335,-117.42 349.97,-111.7"/>
<polygon fill="#63b8ff" stroke="#63b8ff" points="351.35,-114.91 359.45,-108.08 348.86,-108.38 351.35,-114.91"/>
</a>
</g>
</g>
<!-- Node9&#45;&gt;Node8 -->
<g id="edge17_Node000009_Node000008" class="edge">
<title>Node9&#45;&gt;Node8</title>
<g id="a_edge17_Node000009_Node000008"><a xlink:title=" ">
<path fill="none" stroke="#63b8ff" d="M292.44,-126.93C302.39,-114.61 321.12,-93.2 341,-79.51 345.03,-76.73 349.53,-74.22 354.07,-72.01"/>
<polygon fill="#63b8ff" stroke="#63b8ff" points="355.6,-75.16 363.29,-67.87 352.73,-68.77 355.6,-75.16"/>
</a>
</g>
</g>
</g>
</svg>

<g id="navigator" transform="translate(0 0)" fill="#404254">
  <rect fill="#f2f5e9" fill-opacity="0.5" stroke="#606060" stroke-width=".5" x="0" y="0" width="60" height="60"/>
  <use id="zoomplus" xlink:href="#zoomPlus" x="17" y="9" onmousedown="handleZoom(evt,'in')"/>
  <use id="zoomminus" xlink:href="#zoomMin" x="42" y="9" onmousedown="handleZoom(evt,'out')"/>
  <use id="reset" xlink:href="#resetDef" x="30" y="36" onmousedown="handleReset()"/>
   <use id="arrowup" xlink:href="#arrowUp" x="0" y="0" onmousedown="handlePan(0,-1)"/>
  <use id="arrowright" xlink:href="#arrowRight" x="0" y="0" onmousedown="handlePan(1,0)"/>
  <use id="arrowdown" xlink:href="#arrowDown" x="0" y="0" onmousedown="handlePan(0,1)"/>
  <use id="arrowleft" xlink:href="#arrowLeft" x="0" y="0" onmousedown="handlePan(-1,0)"/>
</g>
<svg viewBox="0 0 15 15" width="100%" height="30px" preserveAspectRatio="xMaxYMin meet">
 <g id="arrow_out" transform="scale(0.3 0.3)">
  <a xlink:href="printf_8h_a65fa2c2b1fdeb49ee1d35b47be733d17_cgraph_org.svg" target="_base">
   <rect id="button" ry="5" rx="5" y="6" x="6" height="38" width="38"
        fill="#f2f5e9" fill-opacity="0.5" stroke="#606060" stroke-width="1.0"/>
   <path id="arrow"
     d="M 11.500037,31.436501 C 11.940474,20.09759 22.043105,11.32322 32.158766,21.979434 L 37.068811,17.246167 C 37.068811,17.246167 37.088388,32 37.088388,32 L 22.160133,31.978069 C 22.160133,31.978069 26.997745,27.140456 26.997745,27.140456 C 18.528582,18.264221 13.291696,25.230495 11.500037,31.436501 z"
     style="fill:#404040;"/>
  </a>
 </g>
</svg>

<style type='text/css'>
<![CDATA[
[data-mouse-over-selected='false'] { opacity: 0.7; }
[data-mouse-over-selected='true']  { opacity: 1.0; }
]]>
</style>
<script type="application/ecmascript"><![CDATA[
document.addEventListener('DOMContentLoaded', (event) => {
  highlightEdges();
  highlightAdjacentNodes();
});
]]></script>
</svg>
