<?xml version="1.0" encoding="UTF-8" standalone="no"?>
<!DOCTYPE svg PUBLIC "-//W3C//DTD SVG 1.1//EN"
 "http://www.w3.org/Graphics/SVG/1.1/DTD/svg11.dtd">
<!-- Generated by graphviz version 2.43.0 (0)
 -->
<!-- Title: prints Pages: 1 -->
<svg width="482pt" height="107pt"
 viewBox="0.00 0.00 482.00 107.31" xmlns="http://www.w3.org/2000/svg" xmlns:xlink="http://www.w3.org/1999/xlink">
<g id="graph0" class="graph" transform="scale(1 1) rotate(0) translate(4 103.31)">
<title>prints</title>
<!-- Node1 -->
<g id="Node000001" class="node">
<title>Node1</title>
<g id="a_Node000001"><a xlink:title=" ">
<polygon fill="#999999" stroke="#666666" points="474,-85 430,-85 430,-66 474,-66 474,-85"/>
<text text-anchor="middle" x="452" y="-73" font-family="Helvetica,sans-Serif" font-size="10.00">prints</text>
</a>
</g>
</g>
<!-- Node2 -->
<g id="Node000002" class="node">
<title>Node2</title>
<g id="a_Node000002"><a xlink:href="printf_8c.html#a5b328a8f32f082a641944307c97f9a34" target="_top" xlink:title=" ">
<polygon fill="white" stroke="#666666" points="219,-75 180,-75 180,-56 219,-56 219,-75"/>
<text text-anchor="middle" x="199.5" y="-63" font-family="Helvetica,sans-Serif" font-size="10.00">print</text>
</a>
</g>
</g>
<!-- Node1&#45;&gt;Node2 -->
<g id="edge1_Node000001_Node000002" class="edge">
<title>Node1&#45;&gt;Node2</title>
<g id="a_edge1_Node000001_Node000002"><a xlink:title=" ">
<path fill="none" stroke="#63b8ff" d="M420.06,-87.82C411.74,-90.57 402.64,-93.1 394,-94.5 332.83,-104.43 315.53,-96.78 255,-83.5 242.93,-80.85 229.77,-76.55 219.4,-72.81"/>
<polygon fill="#63b8ff" stroke="#63b8ff" points="421.49,-91.02 429.76,-84.39 419.16,-84.42 421.49,-91.02"/>
</a>
</g>
</g>
<!-- Node7 -->
<g id="Node000007" class="node">
<title>Node7</title>
<g id="a_Node000007"><a xlink:href="printf_8c.html#ad9c642f8af1fe47d03e648b146da3b8d" target="_top" xlink:title=" ">
<polygon fill="white" stroke="#666666" points="394,-85 352,-85 352,-66 394,-66 394,-85"/>
<text text-anchor="middle" x="373" y="-73" font-family="Helvetica,sans-Serif" font-size="10.00">printi</text>
</a>
</g>
</g>
<!-- Node1&#45;&gt;Node7 -->
<g id="edge6_Node000001_Node000007" class="edge">
<title>Node1&#45;&gt;Node7</title>
<g id="a_edge6_Node000001_Node000007"><a xlink:title=" ">
<path fill="none" stroke="#63b8ff" d="M419.81,-75.5C411.18,-75.5 402.04,-75.5 394.22,-75.5"/>
<polygon fill="#63b8ff" stroke="#63b8ff" points="419.96,-79 429.96,-75.5 419.96,-72 419.96,-79"/>
</a>
</g>
</g>
<!-- Node9 -->
<g id="Node000009" class="node">
<title>Node9</title>
<g id="a_Node000009"><a xlink:href="printf_8c.html#a700fcb0af9d5d9311fe8a86380747db7" target="_top" xlink:title=" ">
<polygon fill="white" stroke="#666666" points="306.5,-19 264.5,-19 264.5,0 306.5,0 306.5,-19"/>
<text text-anchor="middle" x="285.5" y="-7" font-family="Helvetica,sans-Serif" font-size="10.00">printl</text>
</a>
</g>
</g>
<!-- Node1&#45;&gt;Node9 -->
<g id="edge10_Node000001_Node000009" class="edge">
<title>Node1&#45;&gt;Node9</title>
<g id="a_edge10_Node000001_Node000009"><a xlink:title=" ">
<path fill="none" stroke="#63b8ff" d="M420.15,-63.12C386.89,-49.78 334.89,-28.92 306.56,-17.55"/>
<polygon fill="#63b8ff" stroke="#63b8ff" points="419.25,-66.53 429.83,-67.01 421.85,-60.03 419.25,-66.53"/>
</a>
</g>
</g>
<!-- Node3 -->
<g id="Node000003" class="node">
<title>Node3</title>
<g id="a_Node000003"><a xlink:href="printf_8h.html#a89206cd7a5ee84d4340e223078709043" target="_top" xlink:title=" ">
<polygon fill="white" stroke="#666666" points="144,-94 85,-94 85,-75 144,-75 144,-94"/>
<text text-anchor="middle" x="114.5" y="-82" font-family="Helvetica,sans-Serif" font-size="10.00">v_sprintf</text>
</a>
</g>
</g>
<!-- Node2&#45;&gt;Node3 -->
<g id="edge2_Node000002_Node000003" class="edge">
<title>Node2&#45;&gt;Node3</title>
<g id="a_edge2_Node000002_Node000003"><a xlink:title=" ">
<path fill="none" stroke="#63b8ff" d="M169.67,-72.1C161.37,-74 152.32,-76.07 144.04,-77.97"/>
<polygon fill="#63b8ff" stroke="#63b8ff" points="170.7,-75.45 179.67,-69.81 169.14,-68.63 170.7,-75.45"/>
</a>
</g>
</g>
<!-- Node5 -->
<g id="Node000005" class="node">
<title>Node5</title>
<g id="a_Node000005"><a xlink:href="printf_8h.html#a65fa2c2b1fdeb49ee1d35b47be733d17" target="_top" xlink:title=" ">
<polygon fill="white" stroke="#666666" points="142,-57 87,-57 87,-38 142,-38 142,-57"/>
<text text-anchor="middle" x="114.5" y="-45" font-family="Helvetica,sans-Serif" font-size="10.00">vbprintf</text>
</a>
</g>
</g>
<!-- Node2&#45;&gt;Node5 -->
<g id="edge4_Node000002_Node000005" class="edge">
<title>Node2&#45;&gt;Node5</title>
<g id="a_edge4_Node000002_Node000005"><a xlink:title=" ">
<path fill="none" stroke="#63b8ff" d="M169.68,-59.25C160.73,-57.31 150.92,-55.18 142.13,-53.27"/>
<polygon fill="#63b8ff" stroke="#63b8ff" points="169.15,-62.72 179.67,-61.42 170.64,-55.88 169.15,-62.72"/>
</a>
</g>
</g>
<!-- Node4 -->
<g id="Node000004" class="node">
<title>Node4</title>
<g id="a_Node000004"><a xlink:href="printf_8h.html#a014f72d1eb635d44f4547d6153c9afd1" target="_top" xlink:title=" ">
<polygon fill="white" stroke="#666666" points="48.5,-94 0.5,-94 0.5,-75 48.5,-75 48.5,-94"/>
<text text-anchor="middle" x="24.5" y="-82" font-family="Helvetica,sans-Serif" font-size="10.00">sprintf</text>
</a>
</g>
</g>
<!-- Node3&#45;&gt;Node4 -->
<g id="edge3_Node000003_Node000004" class="edge">
<title>Node3&#45;&gt;Node4</title>
<g id="a_edge3_Node000003_Node000004"><a xlink:title=" ">
<path fill="none" stroke="#63b8ff" d="M74.49,-84.5C65.62,-84.5 56.47,-84.5 48.52,-84.5"/>
<polygon fill="#63b8ff" stroke="#63b8ff" points="74.69,-88 84.69,-84.5 74.69,-81 74.69,-88"/>
</a>
</g>
</g>
<!-- Node6 -->
<g id="Node000006" class="node">
<title>Node6</title>
<g id="a_Node000006"><a xlink:href="printf_8h.html#a30e09ab10214b5e9b93f4c765f373649" target="_top" xlink:title=" ">
<polygon fill="white" stroke="#666666" points="49,-57 0,-57 0,-38 49,-38 49,-57"/>
<text text-anchor="middle" x="24.5" y="-45" font-family="Helvetica,sans-Serif" font-size="10.00">bprintf</text>
</a>
</g>
</g>
<!-- Node5&#45;&gt;Node6 -->
<g id="edge5_Node000005_Node000006" class="edge">
<title>Node5&#45;&gt;Node6</title>
<g id="a_edge5_Node000005_Node000006"><a xlink:title=" ">
<path fill="none" stroke="#63b8ff" d="M76.48,-47.5C67.26,-47.5 57.62,-47.5 49.23,-47.5"/>
<polygon fill="#63b8ff" stroke="#63b8ff" points="76.62,-51 86.62,-47.5 76.62,-44 76.62,-51"/>
</a>
</g>
</g>
<!-- Node7&#45;&gt;Node2 -->
<g id="edge7_Node000007_Node000002" class="edge">
<title>Node7&#45;&gt;Node2</title>
<g id="a_edge7_Node000007_Node000002"><a xlink:title=" ">
<path fill="none" stroke="#63b8ff" d="M341.75,-73.74C306.26,-71.67 248.54,-68.3 219.08,-66.58"/>
<polygon fill="#63b8ff" stroke="#63b8ff" points="341.8,-77.25 351.99,-74.33 342.21,-70.26 341.8,-77.25"/>
</a>
</g>
</g>
<!-- Node8 -->
<g id="Node000008" class="node">
<title>Node8</title>
<g id="a_Node000008"><a xlink:href="printf_8c.html#a2c37f08c54b3dc54d13030c62cba67a7" target="_top" xlink:title=" ">
<polygon fill="white" stroke="#666666" points="316,-56 255,-56 255,-37 316,-37 316,-56"/>
<text text-anchor="middle" x="285.5" y="-44" font-family="Helvetica,sans-Serif" font-size="10.00">printfloat</text>
</a>
</g>
</g>
<!-- Node7&#45;&gt;Node8 -->
<g id="edge8_Node000007_Node000008" class="edge">
<title>Node7&#45;&gt;Node8</title>
<g id="a_edge8_Node000007_Node000008"><a xlink:title=" ">
<path fill="none" stroke="#63b8ff" d="M342.13,-65.37C333.22,-62.35 323.5,-59.05 314.7,-56.07"/>
<polygon fill="#63b8ff" stroke="#63b8ff" points="341.14,-68.73 351.74,-68.63 343.39,-62.1 341.14,-68.73"/>
</a>
</g>
</g>
<!-- Node8&#45;&gt;Node2 -->
<g id="edge9_Node000008_Node000002" class="edge">
<title>Node8&#45;&gt;Node2</title>
<g id="a_edge9_Node000008_Node000002"><a xlink:title=" ">
<path fill="none" stroke="#63b8ff" d="M244.67,-55.51C235.7,-57.54 226.61,-59.6 219.02,-61.31"/>
<polygon fill="#63b8ff" stroke="#63b8ff" points="245.67,-58.87 254.65,-53.25 244.12,-52.04 245.67,-58.87"/>
</a>
</g>
</g>
<!-- Node9&#45;&gt;Node2 -->
<g id="edge11_Node000009_Node000002" class="edge">
<title>Node9&#45;&gt;Node2</title>
<g id="a_edge11_Node000009_Node000002"><a xlink:title=" ">
<path fill="none" stroke="#63b8ff" d="M259.58,-24.56C258.02,-25.54 256.49,-26.53 255,-27.5 240.71,-36.83 224.72,-48.07 213.78,-55.9"/>
<polygon fill="#63b8ff" stroke="#63b8ff" points="261.82,-27.29 268.47,-19.04 258.12,-21.34 261.82,-27.29"/>
</a>
</g>
</g>
</g>
</svg>
