<?xml version="1.0" encoding="UTF-8" standalone="no"?>
<!DOCTYPE svg PUBLIC "-//W3C//DTD SVG 1.1//EN"
 "http://www.w3.org/Graphics/SVG/1.1/DTD/svg11.dtd">
<!-- Generated by graphviz version 2.43.0 (0)
 -->
<!-- Title: putchar Pages: 1 -->
<svg width="663pt" height="193pt"
 viewBox="0.00 0.00 663.00 193.15" xmlns="http://www.w3.org/2000/svg" xmlns:xlink="http://www.w3.org/1999/xlink">
<g id="graph0" class="graph" transform="scale(1 1) rotate(0) translate(4 189.15)">
<title>putchar</title>
<!-- Node1 -->
<g id="Node000001" class="node">
<title>Node1</title>
<g id="a_Node000001"><a xlink:title=" ">
<polygon fill="#999999" stroke="#666666" points="655,-133 602,-133 602,-114 655,-114 655,-133"/>
<text text-anchor="middle" x="628.5" y="-121" font-family="Helvetica,sans-Serif" font-size="10.00">putchar</text>
</a>
</g>
</g>
<!-- Node2 -->
<g id="Node000002" class="node">
<title>Node2</title>
<g id="a_Node000002"><a xlink:href="printf_8c.html#a7db7a232586308b02fc3760686d33e28" target="_top" xlink:title=" ">
<polygon fill="white" stroke="#666666" points="566,-133 506,-133 506,-114 566,-114 566,-133"/>
<text text-anchor="middle" x="536" y="-121" font-family="Helvetica,sans-Serif" font-size="10.00">printchar</text>
</a>
</g>
</g>
<!-- Node1&#45;&gt;Node2 -->
<g id="edge1_Node000001_Node000002" class="edge">
<title>Node1&#45;&gt;Node2</title>
<g id="a_edge1_Node000001_Node000002"><a xlink:title=" ">
<path fill="none" stroke="#63b8ff" d="M591.8,-123.5C583.34,-123.5 574.41,-123.5 566.27,-123.5"/>
<polygon fill="#63b8ff" stroke="#63b8ff" points="591.81,-127 601.81,-123.5 591.81,-120 591.81,-127"/>
</a>
</g>
</g>
<!-- Node3 -->
<g id="Node000003" class="node">
<title>Node3</title>
<g id="a_Node000003"><a xlink:href="printf_8c.html#aa0585acb8fbf31a90ffbf65ba543abe1" target="_top" xlink:title=" ">
<polygon fill="white" stroke="#666666" points="215,-133 176,-133 176,-114 215,-114 215,-133"/>
<text text-anchor="middle" x="195.5" y="-121" font-family="Helvetica,sans-Serif" font-size="10.00">print</text>
</a>
</g>
</g>
<!-- Node2&#45;&gt;Node3 -->
<g id="edge2_Node000002_Node000003" class="edge">
<title>Node2&#45;&gt;Node3</title>
<g id="a_edge2_Node000002_Node000003"><a xlink:title=" ">
<path fill="none" stroke="#63b8ff" d="M510,-138.09C498.14,-144.61 483.62,-152.05 470,-157.5 435.66,-171.25 426.63,-175.34 390,-180.5 328.26,-189.2 308.4,-185.85 251,-161.5 234.43,-154.47 217.82,-141.9 207.37,-133.15"/>
<polygon fill="#63b8ff" stroke="#63b8ff" points="511.87,-141.06 518.87,-133.11 508.44,-134.95 511.87,-141.06"/>
</a>
</g>
</g>
<!-- Node8 -->
<g id="Node000008" class="node">
<title>Node8</title>
<g id="a_Node000008"><a xlink:href="printf_8c.html#a4e12f38d03cb05b93d73df6a33fcf44d" target="_top" xlink:title=" ">
<polygon fill="white" stroke="#666666" points="312,-133 251,-133 251,-114 312,-114 312,-133"/>
<text text-anchor="middle" x="281.5" y="-121" font-family="Helvetica,sans-Serif" font-size="10.00">printfloat</text>
</a>
</g>
</g>
<!-- Node2&#45;&gt;Node8 -->
<g id="edge7_Node000002_Node000008" class="edge">
<title>Node2&#45;&gt;Node8</title>
<g id="a_edge7_Node000002_Node000008"><a xlink:title=" ">
<path fill="none" stroke="#63b8ff" d="M495.27,-123.5C444.45,-123.5 357.59,-123.5 312.16,-123.5"/>
<polygon fill="#63b8ff" stroke="#63b8ff" points="495.54,-127 505.54,-123.5 495.54,-120 495.54,-127"/>
</a>
</g>
</g>
<!-- Node9 -->
<g id="Node000009" class="node">
<title>Node9</title>
<g id="a_Node000009"><a xlink:href="printf_8c.html#adfff6d9f2c0e097309c2eecbaefffadc" target="_top" xlink:title=" ">
<polygon fill="white" stroke="#666666" points="390,-171 348,-171 348,-152 390,-152 390,-171"/>
<text text-anchor="middle" x="369" y="-159" font-family="Helvetica,sans-Serif" font-size="10.00">printi</text>
</a>
</g>
</g>
<!-- Node2&#45;&gt;Node9 -->
<g id="edge9_Node000002_Node000009" class="edge">
<title>Node2&#45;&gt;Node9</title>
<g id="a_edge9_Node000002_Node000009"><a xlink:title=" ">
<path fill="none" stroke="#63b8ff" d="M496.01,-132.48C462.73,-140.14 416.22,-150.86 390.01,-156.89"/>
<polygon fill="#63b8ff" stroke="#63b8ff" points="496.92,-135.86 505.88,-130.21 495.35,-129.04 496.92,-135.86"/>
</a>
</g>
</g>
<!-- Node10 -->
<g id="Node000010" class="node">
<title>Node10</title>
<g id="a_Node000010"><a xlink:href="printf_8c.html#a44b3fa8064b83d7df40fc6a87f821298" target="_top" xlink:title=" ">
<polygon fill="white" stroke="#666666" points="390,-19 348,-19 348,0 390,0 390,-19"/>
<text text-anchor="middle" x="369" y="-7" font-family="Helvetica,sans-Serif" font-size="10.00">printl</text>
</a>
</g>
</g>
<!-- Node2&#45;&gt;Node10 -->
<g id="edge12_Node000002_Node000010" class="edge">
<title>Node2&#45;&gt;Node10</title>
<g id="a_edge12_Node000002_Node000010"><a xlink:title=" ">
<path fill="none" stroke="#63b8ff" d="M517.89,-106.78C505.23,-94.84 487.25,-78.79 470,-66.5 443.47,-47.6 410.18,-29.66 389.5,-19.12"/>
<polygon fill="#63b8ff" stroke="#63b8ff" points="515.74,-109.57 525.39,-113.95 520.58,-104.51 515.74,-109.57"/>
</a>
</g>
</g>
<!-- Node11 -->
<g id="Node000011" class="node">
<title>Node11</title>
<g id="a_Node000011"><a xlink:href="printf_8c.html#a82b717dcaae3a36d5c6a088c211f0b26" target="_top" xlink:title=" ">
<polygon fill="white" stroke="#666666" points="470,-95 426,-95 426,-76 470,-76 470,-95"/>
<text text-anchor="middle" x="448" y="-83" font-family="Helvetica,sans-Serif" font-size="10.00">prints</text>
</a>
</g>
</g>
<!-- Node2&#45;&gt;Node11 -->
<g id="edge14_Node000002_Node000011" class="edge">
<title>Node2&#45;&gt;Node11</title>
<g id="a_edge14_Node000002_Node000011"><a xlink:title=" ">
<path fill="none" stroke="#63b8ff" d="M503.83,-109.73C492.62,-104.78 480.25,-99.31 470.1,-94.82"/>
<polygon fill="#63b8ff" stroke="#63b8ff" points="502.74,-113.07 513.3,-113.91 505.57,-106.67 502.74,-113.07"/>
</a>
</g>
</g>
<!-- Node4 -->
<g id="Node000004" class="node">
<title>Node4</title>
<g id="a_Node000004"><a xlink:href="printf_8h.html#a65fa2c2b1fdeb49ee1d35b47be733d17" target="_top" xlink:title=" ">
<polygon fill="white" stroke="#666666" points="140,-152 85,-152 85,-133 140,-133 140,-152"/>
<text text-anchor="middle" x="112.5" y="-140" font-family="Helvetica,sans-Serif" font-size="10.00">vbprintf</text>
</a>
</g>
</g>
<!-- Node3&#45;&gt;Node4 -->
<g id="edge3_Node000003_Node000004" class="edge">
<title>Node3&#45;&gt;Node4</title>
<g id="a_edge3_Node000003_Node000004"><a xlink:title=" ">
<path fill="none" stroke="#63b8ff" d="M165.96,-130.19C157.57,-132.16 148.43,-134.31 140.16,-136.25"/>
<polygon fill="#63b8ff" stroke="#63b8ff" points="166.78,-133.6 175.71,-127.91 165.18,-126.78 166.78,-133.6"/>
</a>
</g>
</g>
<!-- Node6 -->
<g id="Node000006" class="node">
<title>Node6</title>
<g id="a_Node000006"><a xlink:href="printf_8h.html#a984687e0cb1dfa69b33161177d270337" target="_top" xlink:title=" ">
<polygon fill="white" stroke="#666666" points="139.5,-115 85.5,-115 85.5,-96 139.5,-96 139.5,-115"/>
<text text-anchor="middle" x="112.5" y="-103" font-family="Helvetica,sans-Serif" font-size="10.00">vsprintf</text>
</a>
</g>
</g>
<!-- Node3&#45;&gt;Node6 -->
<g id="edge5_Node000003_Node000006" class="edge">
<title>Node3&#45;&gt;Node6</title>
<g id="a_edge5_Node000003_Node000006"><a xlink:title=" ">
<path fill="none" stroke="#63b8ff" d="M165.78,-117.12C157.23,-115.22 147.92,-113.15 139.55,-111.29"/>
<polygon fill="#63b8ff" stroke="#63b8ff" points="165.19,-120.57 175.71,-119.33 166.71,-113.74 165.19,-120.57"/>
</a>
</g>
</g>
<!-- Node5 -->
<g id="Node000005" class="node">
<title>Node5</title>
<g id="a_Node000005"><a xlink:href="printf_8h.html#a30e09ab10214b5e9b93f4c765f373649" target="_top" xlink:title=" ">
<polygon fill="white" stroke="#666666" points="49,-152 0,-152 0,-133 49,-133 49,-152"/>
<text text-anchor="middle" x="24.5" y="-140" font-family="Helvetica,sans-Serif" font-size="10.00">bprintf</text>
</a>
</g>
</g>
<!-- Node4&#45;&gt;Node5 -->
<g id="edge4_Node000004_Node000005" class="edge">
<title>Node4&#45;&gt;Node5</title>
<g id="a_edge4_Node000004_Node000005"><a xlink:title=" ">
<path fill="none" stroke="#63b8ff" d="M74.49,-142.5C65.85,-142.5 56.88,-142.5 49.02,-142.5"/>
<polygon fill="#63b8ff" stroke="#63b8ff" points="74.76,-146 84.76,-142.5 74.76,-139 74.76,-146"/>
</a>
</g>
</g>
<!-- Node7 -->
<g id="Node000007" class="node">
<title>Node7</title>
<g id="a_Node000007"><a xlink:href="printf_8h.html#a014f72d1eb635d44f4547d6153c9afd1" target="_top" xlink:title=" ">
<polygon fill="white" stroke="#666666" points="48.5,-115 0.5,-115 0.5,-96 48.5,-96 48.5,-115"/>
<text text-anchor="middle" x="24.5" y="-103" font-family="Helvetica,sans-Serif" font-size="10.00">sprintf</text>
</a>
</g>
</g>
<!-- Node6&#45;&gt;Node7 -->
<g id="edge6_Node000006_Node000007" class="edge">
<title>Node6&#45;&gt;Node7</title>
<g id="a_edge6_Node000006_Node000007"><a xlink:title=" ">
<path fill="none" stroke="#63b8ff" d="M75.03,-105.5C66.11,-105.5 56.8,-105.5 48.69,-105.5"/>
<polygon fill="#63b8ff" stroke="#63b8ff" points="75.23,-109 85.23,-105.5 75.23,-102 75.23,-109"/>
</a>
</g>
</g>
<!-- Node8&#45;&gt;Node3 -->
<g id="edge8_Node000008_Node000003" class="edge">
<title>Node8&#45;&gt;Node3</title>
<g id="a_edge8_Node000008_Node000003"><a xlink:title=" ">
<path fill="none" stroke="#63b8ff" d="M240.38,-123.5C231.51,-123.5 222.52,-123.5 215.02,-123.5"/>
<polygon fill="#63b8ff" stroke="#63b8ff" points="240.65,-127 250.65,-123.5 240.65,-120 240.65,-127"/>
</a>
</g>
</g>
<!-- Node9&#45;&gt;Node3 -->
<g id="edge10_Node000009_Node000003" class="edge">
<title>Node9&#45;&gt;Node3</title>
<g id="a_edge10_Node000009_Node000003"><a xlink:title=" ">
<path fill="none" stroke="#63b8ff" d="M337.74,-158.06C313.94,-155 280.06,-149.87 251,-142.5 238.96,-139.45 225.79,-134.89 215.42,-131.01"/>
<polygon fill="#63b8ff" stroke="#63b8ff" points="337.55,-161.56 347.91,-159.32 338.42,-154.62 337.55,-161.56"/>
</a>
</g>
</g>
<!-- Node9&#45;&gt;Node8 -->
<g id="edge11_Node000009_Node000008" class="edge">
<title>Node9&#45;&gt;Node8</title>
<g id="a_edge11_Node000009_Node000008"><a xlink:title=" ">
<path fill="none" stroke="#63b8ff" d="M338.29,-148.3C327.05,-143.3 314.47,-137.71 304.11,-133.11"/>
<polygon fill="#63b8ff" stroke="#63b8ff" points="337.18,-151.63 347.74,-152.49 340.02,-145.23 337.18,-151.63"/>
</a>
</g>
</g>
<!-- Node10&#45;&gt;Node3 -->
<g id="edge13_Node000010_Node000003" class="edge">
<title>Node10&#45;&gt;Node3</title>
<g id="a_edge13_Node000010_Node000003"><a xlink:title=" ">
<path fill="none" stroke="#63b8ff" d="M337.76,-9.2C312.46,-10.38 276.5,-15.51 251,-33.5 222.04,-53.93 205.68,-95.08 199.45,-113.81"/>
<polygon fill="#63b8ff" stroke="#63b8ff" points="337.99,-12.7 347.89,-8.92 337.79,-5.7 337.99,-12.7"/>
</a>
</g>
</g>
<!-- Node11&#45;&gt;Node3 -->
<g id="edge15_Node000011_Node000003" class="edge">
<title>Node11&#45;&gt;Node3</title>
<g id="a_edge15_Node000011_Node000003"><a xlink:title=" ">
<path fill="none" stroke="#63b8ff" d="M415.68,-86.49C376.7,-88.23 308.26,-92.94 251,-105.5 238.93,-108.15 225.77,-112.45 215.4,-116.19"/>
<polygon fill="#63b8ff" stroke="#63b8ff" points="416.02,-89.98 425.87,-86.08 415.73,-82.99 416.02,-89.98"/>
</a>
</g>
</g>
<!-- Node11&#45;&gt;Node8 -->
<g id="edge16_Node000011_Node000008" class="edge">
<title>Node11&#45;&gt;Node8</title>
<g id="a_edge16_Node000011_Node000008"><a xlink:title=" ">
<path fill="none" stroke="#63b8ff" d="M415.97,-92.67C386.19,-99.55 341.54,-109.86 312.21,-116.64"/>
<polygon fill="#63b8ff" stroke="#63b8ff" points="416.88,-96.05 425.83,-90.39 415.3,-89.23 416.88,-96.05"/>
</a>
</g>
</g>
<!-- Node11&#45;&gt;Node9 -->
<g id="edge17_Node000011_Node000009" class="edge">
<title>Node11&#45;&gt;Node9</title>
<g id="a_edge17_Node000011_Node000009"><a xlink:title=" ">
<path fill="none" stroke="#63b8ff" d="M429.91,-102.37C414.56,-117.52 392.54,-139.25 379.92,-151.71"/>
<polygon fill="#63b8ff" stroke="#63b8ff" points="432.59,-104.64 437.25,-95.13 427.67,-99.66 432.59,-104.64"/>
</a>
</g>
</g>
<!-- Node11&#45;&gt;Node10 -->
<g id="edge18_Node000011_Node000010" class="edge">
<title>Node11&#45;&gt;Node10</title>
<g id="a_edge18_Node000011_Node000010"><a xlink:title=" ">
<path fill="none" stroke="#63b8ff" d="M429.91,-68.63C414.56,-53.48 392.54,-31.75 379.92,-19.29"/>
<polygon fill="#63b8ff" stroke="#63b8ff" points="427.67,-71.34 437.25,-75.87 432.59,-66.36 427.67,-71.34"/>
</a>
</g>
</g>
</g>
</svg>
