<?xml version="1.0" encoding="UTF-8" standalone="no"?>
<!DOCTYPE svg PUBLIC "-//W3C//DTD SVG 1.1//EN"
 "http://www.w3.org/Graphics/SVG/1.1/DTD/svg11.dtd">
<!-- Generated by graphviz version 2.43.0 (0)
 -->
<!-- Title: print Pages: 1 -->
<svg width="487pt" height="164pt"
 viewBox="0.00 0.00 487.00 164.04" xmlns="http://www.w3.org/2000/svg" xmlns:xlink="http://www.w3.org/1999/xlink">
<g id="graph0" class="graph" transform="scale(1 1) rotate(0) translate(4 160.04)">
<title>print</title>
<!-- Node1 -->
<g id="Node000001" class="node">
<title>Node1</title>
<g id="a_Node000001"><a xlink:title=" ">
<polygon fill="#999999" stroke="#666666" points="39,-95 0,-95 0,-76 39,-76 39,-95"/>
<text text-anchor="middle" x="19.5" y="-83" font-family="Helvetica,sans-Serif" font-size="10.00">print</text>
</a>
</g>
</g>
<!-- Node2 -->
<g id="Node000002" class="node">
<title>Node2</title>
<g id="a_Node000002"><a xlink:href="printf_8c.html#a467a00da8c720b8dddc7088e2805291c" target="_top" xlink:title=" ">
<polygon fill="white" stroke="#666666" points="390,-95 330,-95 330,-76 390,-76 390,-95"/>
<text text-anchor="middle" x="360" y="-83" font-family="Helvetica,sans-Serif" font-size="10.00">printchar</text>
</a>
</g>
</g>
<!-- Node1&#45;&gt;Node2 -->
<g id="edge1_Node000001_Node000002" class="edge">
<title>Node1&#45;&gt;Node2</title>
<g id="a_edge1_Node000001_Node000002"><a xlink:title=" ">
<path fill="none" stroke="#63b8ff" d="M26.07,-95.03C34.6,-108.57 52.34,-132.81 75,-142.5 165.36,-181.12 283.24,-127.57 333.99,-100.06"/>
<polygon fill="#63b8ff" stroke="#63b8ff" points="335.89,-103.01 342.94,-95.1 332.49,-96.89 335.89,-103.01"/>
</a>
</g>
</g>
<!-- Node4 -->
<g id="Node000004" class="node">
<title>Node4</title>
<g id="a_Node000004"><a xlink:href="printf_8c.html#a2c37f08c54b3dc54d13030c62cba67a7" target="_top" xlink:title=" ">
<polygon fill="white" stroke="#666666" points="136,-133 75,-133 75,-114 136,-114 136,-133"/>
<text text-anchor="middle" x="105.5" y="-121" font-family="Helvetica,sans-Serif" font-size="10.00">printfloat</text>
</a>
</g>
</g>
<!-- Node1&#45;&gt;Node4 -->
<g id="edge3_Node000001_Node000004" class="edge">
<title>Node1&#45;&gt;Node4</title>
<g id="a_edge3_Node000001_Node000004"><a xlink:title=" ">
<path fill="none" stroke="#63b8ff" d="M39.14,-93.93C49.34,-98.55 62.23,-104.38 73.86,-109.64"/>
<polygon fill="#63b8ff" stroke="#63b8ff" points="72.69,-112.95 83.25,-113.88 75.58,-106.57 72.69,-112.95"/>
</a>
</g>
</g>
<!-- Node5 -->
<g id="Node000005" class="node">
<title>Node5</title>
<g id="a_Node000005"><a xlink:href="printf_8c.html#ad9c642f8af1fe47d03e648b146da3b8d" target="_top" xlink:title=" ">
<polygon fill="white" stroke="#666666" points="214,-95 172,-95 172,-76 214,-76 214,-95"/>
<text text-anchor="middle" x="193" y="-83" font-family="Helvetica,sans-Serif" font-size="10.00">printi</text>
</a>
</g>
</g>
<!-- Node1&#45;&gt;Node5 -->
<g id="edge9_Node000001_Node000005" class="edge">
<title>Node1&#45;&gt;Node5</title>
<g id="a_edge9_Node000001_Node000005"><a xlink:title=" ">
<path fill="none" stroke="#63b8ff" d="M39.18,-85.5C68.6,-85.5 126.04,-85.5 161.51,-85.5"/>
<polygon fill="#63b8ff" stroke="#63b8ff" points="161.76,-89 171.76,-85.5 161.76,-82 161.76,-89"/>
</a>
</g>
</g>
<!-- Node6 -->
<g id="Node000006" class="node">
<title>Node6</title>
<g id="a_Node000006"><a xlink:href="printf_8c.html#a6ce76a789a6153b7e1b16bc3a6969563" target="_top" xlink:title=" ">
<polygon fill="white" stroke="#666666" points="294,-57 250,-57 250,-38 294,-38 294,-57"/>
<text text-anchor="middle" x="272" y="-45" font-family="Helvetica,sans-Serif" font-size="10.00">prints</text>
</a>
</g>
</g>
<!-- Node1&#45;&gt;Node6 -->
<g id="edge13_Node000001_Node000006" class="edge">
<title>Node1&#45;&gt;Node6</title>
<g id="a_edge13_Node000001_Node000006"><a xlink:title=" ">
<path fill="none" stroke="#63b8ff" d="M39.33,-82.64C82.12,-76.15 187.05,-60.24 239.74,-52.24"/>
<polygon fill="#63b8ff" stroke="#63b8ff" points="240.49,-55.67 249.85,-50.71 239.44,-48.75 240.49,-55.67"/>
</a>
</g>
</g>
<!-- Node7 -->
<g id="Node000007" class="node">
<title>Node7</title>
<g id="a_Node000007"><a xlink:href="printf_8c.html#a700fcb0af9d5d9311fe8a86380747db7" target="_top" xlink:title=" ">
<polygon fill="white" stroke="#666666" points="214,-19 172,-19 172,0 214,0 214,-19"/>
<text text-anchor="middle" x="193" y="-7" font-family="Helvetica,sans-Serif" font-size="10.00">printl</text>
</a>
</g>
</g>
<!-- Node1&#45;&gt;Node7 -->
<g id="edge10_Node000001_Node000007" class="edge">
<title>Node1&#45;&gt;Node7</title>
<g id="a_edge10_Node000001_Node000007"><a xlink:title=" ">
<path fill="none" stroke="#63b8ff" d="M27.82,-75.75C37.32,-63.82 55.07,-43.93 75,-33.5 102.21,-19.26 137.09,-13.47 161.66,-11.11"/>
<polygon fill="#63b8ff" stroke="#63b8ff" points="162.15,-14.58 171.83,-10.27 161.58,-7.6 162.15,-14.58"/>
</a>
</g>
</g>
<!-- Node3 -->
<g id="Node000003" class="node">
<title>Node3</title>
<g id="a_Node000003"><a xlink:href="printf_8c.html#af4de2514b7778805db3815e8dd6cf09a" target="_top" xlink:title=" ">
<polygon fill="white" stroke="#666666" points="479,-95 426,-95 426,-76 479,-76 479,-95"/>
<text text-anchor="middle" x="452.5" y="-83" font-family="Helvetica,sans-Serif" font-size="10.00">putchar</text>
</a>
</g>
</g>
<!-- Node2&#45;&gt;Node3 -->
<g id="edge2_Node000002_Node000003" class="edge">
<title>Node2&#45;&gt;Node3</title>
<g id="a_edge2_Node000002_Node000003"><a xlink:title=" ">
<path fill="none" stroke="#63b8ff" d="M390.13,-85.5C398.29,-85.5 407.25,-85.5 415.74,-85.5"/>
<polygon fill="#63b8ff" stroke="#63b8ff" points="415.78,-89 425.78,-85.5 415.78,-82 415.78,-89"/>
</a>
</g>
</g>
<!-- Node4&#45;&gt;Node2 -->
<g id="edge4_Node000004_Node000002" class="edge">
<title>Node4&#45;&gt;Node2</title>
<g id="a_edge4_Node000004_Node000002"><a xlink:title=" ">
<path fill="none" stroke="#63b8ff" d="M136.17,-120.49C173.23,-116.55 238.53,-109.01 294,-99.5 302.5,-98.04 311.58,-96.24 320.18,-94.42"/>
<polygon fill="#63b8ff" stroke="#63b8ff" points="320.95,-97.84 329.98,-92.3 319.47,-91 320.95,-97.84"/>
</a>
</g>
</g>
<!-- Node4&#45;&gt;Node5 -->
<g id="edge5_Node000004_Node000005" class="edge">
<title>Node4&#45;&gt;Node5</title>
<g id="a_edge5_Node000004_Node000005"><a xlink:title=" ">
<path fill="none" stroke="#63b8ff" d="M128.08,-113.91C138.59,-109.24 151.39,-103.55 162.76,-98.5"/>
<polygon fill="#63b8ff" stroke="#63b8ff" points="164.18,-101.69 171.9,-94.43 161.34,-95.3 164.18,-101.69"/>
</a>
</g>
</g>
<!-- Node5&#45;&gt;Node2 -->
<g id="edge6_Node000005_Node000002" class="edge">
<title>Node5&#45;&gt;Node2</title>
<g id="a_edge6_Node000005_Node000002"><a xlink:title=" ">
<path fill="none" stroke="#63b8ff" d="M214.23,-85.5C240.4,-85.5 286.55,-85.5 319.72,-85.5"/>
<polygon fill="#63b8ff" stroke="#63b8ff" points="319.99,-89 329.99,-85.5 319.99,-82 319.99,-89"/>
</a>
</g>
</g>
<!-- Node5&#45;&gt;Node6 -->
<g id="edge7_Node000005_Node000006" class="edge">
<title>Node5&#45;&gt;Node6</title>
<g id="a_edge7_Node000005_Node000006"><a xlink:title=" ">
<path fill="none" stroke="#63b8ff" d="M213.43,-75.91C222.18,-71.59 232.7,-66.4 242.33,-61.65"/>
<polygon fill="#63b8ff" stroke="#63b8ff" points="244.16,-64.65 251.58,-57.09 241.06,-58.37 244.16,-64.65"/>
</a>
</g>
</g>
<!-- Node6&#45;&gt;Node2 -->
<g id="edge8_Node000006_Node000002" class="edge">
<title>Node6&#45;&gt;Node2</title>
<g id="a_edge8_Node000006_Node000002"><a xlink:title=" ">
<path fill="none" stroke="#63b8ff" d="M294.26,-56.89C304.41,-61.38 316.77,-66.84 327.95,-71.78"/>
<polygon fill="#63b8ff" stroke="#63b8ff" points="326.83,-75.11 337.39,-75.95 329.66,-68.71 326.83,-75.11"/>
</a>
</g>
</g>
<!-- Node7&#45;&gt;Node2 -->
<g id="edge11_Node000007_Node000002" class="edge">
<title>Node7&#45;&gt;Node2</title>
<g id="a_edge11_Node000007_Node000002"><a xlink:title=" ">
<path fill="none" stroke="#63b8ff" d="M214.12,-10.52C235.03,-12.25 268.23,-16.91 294,-29.5 313.32,-38.94 331.53,-55.54 343.72,-68.23"/>
<polygon fill="#63b8ff" stroke="#63b8ff" points="341.46,-70.93 350.83,-75.88 346.59,-66.17 341.46,-70.93"/>
</a>
</g>
</g>
<!-- Node7&#45;&gt;Node6 -->
<g id="edge12_Node000007_Node000006" class="edge">
<title>Node7&#45;&gt;Node6</title>
<g id="a_edge12_Node000007_Node000006"><a xlink:title=" ">
<path fill="none" stroke="#63b8ff" d="M213.43,-19.09C222.18,-23.41 232.7,-28.6 242.33,-33.35"/>
<polygon fill="#63b8ff" stroke="#63b8ff" points="241.06,-36.63 251.58,-37.91 244.16,-30.35 241.06,-36.63"/>
</a>
</g>
</g>
</g>
</svg>
