<?xml version="1.0" encoding="UTF-8" standalone="no"?>
<!DOCTYPE svg PUBLIC "-//W3C//DTD SVG 1.1//EN"
 "http://www.w3.org/Graphics/SVG/1.1/DTD/svg11.dtd">
<!-- Generated by graphviz version 2.43.0 (0)
 -->
<!-- Title: vbprintf Pages: 1 -->
<!--zoomable 164 -->

<svg id="main" version="1.1" xmlns="http://www.w3.org/2000/svg" xmlns:xlink="http://www.w3.org/1999/xlink" xml:space="preserve" onload="init(evt)">
<style type="text/css"><![CDATA[
.node, .edge {opacity: 0.7;}
.node.selected, .edge.selected {opacity: 1;}
.edge:hover path { stroke: red; }
.edge:hover polygon { stroke: red; fill: red; }
]]></style>

<defs>
  <circle id="rim" cx="0" cy="0" r="7"/>
  <circle id="rim2" cx="0" cy="0" r="3.5"/>
  <g id="zoomPlus">
    <use xlink:href="#rim" fill="#404040"><set attributeName="fill" to="#808080" begin="zoomplus.mouseover" end="zoomplus.mouseout"/></use>
    <path d="M-4,0h8M0,-4v8" fill="none" stroke="white" stroke-width="1.5" pointer-events="none"/>
  </g>
  <g id="zoomMin">
    <use xlink:href="#rim" fill="#404040"><set attributeName="fill" to="#808080" begin="zoomminus.mouseover" end="zoomminus.mouseout"/></use>
    <path d="M-4,0h8" fill="none" stroke="white" stroke-width="1.5" pointer-events="none"/>
  </g>
  <g id="arrowUp" transform="translate(30 24)">
    <use xlink:href="#rim"/>
    <path pointer-events="none" fill="none" stroke="white" stroke-width="1.5" d="M0,-3.0v7 M-2.5,-0.5L0,-3.0L2.5,-0.5"/>
  </g>
  <g id="arrowRight" transform="rotate(90) translate(36 -43)">
    <use xlink:href="#rim"/>
    <path pointer-events="none" fill="none" stroke="white" stroke-width="1.5" d="M0,-3.0v7 M-2.5,-0.5L0,-3.0L2.5,-0.5"/>
  </g>
  <g id="arrowDown" transform="rotate(180) translate(-30 -48)">
    <use xlink:href="#rim"/>
    <path pointer-events="none" fill="none" stroke="white" stroke-width="1.5" d="M0,-3.0v7 M-2.5,-0.5L0,-3.0L2.5,-0.5"/>
  </g>
  <g id="arrowLeft" transform="rotate(270) translate(-36 17)">
    <use xlink:href="#rim"/>
    <path pointer-events="none" fill="none" stroke="white" stroke-width="1.5" d="M0,-3.0v7 M-2.5,-0.5L0,-3.0L2.5,-0.5"/>
  </g>
  <g id="resetDef">
    <use xlink:href="#rim2" fill="#404040"><set attributeName="fill" to="#808080" begin="reset.mouseover" end="reset.mouseout"/></use>
  </g>
</defs>
<script type="application/ecmascript">
var viewWidth = 578;
var viewHeight = 164;
var sectionId = 'dynsection-9';
</script>
<script type="application/ecmascript" xlink:href="svg.min.js"/>
<svg id="graph" class="graph">
<g id="viewport">
<title>vbprintf</title>
<!-- Node1 -->
<g id="Node000001" class="node">
<title>Node1</title>
<g id="a_Node000001"><a xlink:title=" ">
<polygon fill="#999999" stroke="#666666" points="55,-95 0,-95 0,-76 55,-76 55,-95"/>
<text text-anchor="middle" x="27.5" y="-83" font-family="Helvetica,sans-Serif" font-size="10.00">vbprintf</text>
</a>
</g>
</g>
<!-- Node2 -->
<g id="Node000002" class="node">
<title>Node2</title>
<g id="a_Node000002"><a xlink:href="printf_8c.html#a5b328a8f32f082a641944307c97f9a34" target="_top" xlink:title=" ">
<polygon fill="white" stroke="#666666" points="130,-95 91,-95 91,-76 130,-76 130,-95"/>
<text text-anchor="middle" x="110.5" y="-83" font-family="Helvetica,sans-Serif" font-size="10.00">print</text>
</a>
</g>
</g>
<!-- Node1&#45;&gt;Node2 -->
<g id="edge1_Node000001_Node000002" class="edge">
<title>Node1&#45;&gt;Node2</title>
<g id="a_edge1_Node000001_Node000002"><a xlink:title=" ">
<path fill="none" stroke="#63b8ff" d="M55.02,-85.5C63.26,-85.5 72.38,-85.5 80.77,-85.5"/>
<polygon fill="#63b8ff" stroke="#63b8ff" points="80.87,-89 90.87,-85.5 80.87,-82 80.87,-89"/>
</a>
</g>
</g>
<!-- Node3 -->
<g id="Node000003" class="node">
<title>Node3</title>
<g id="a_Node000003"><a xlink:href="printf_8c.html#a467a00da8c720b8dddc7088e2805291c" target="_top" xlink:title=" ">
<polygon fill="white" stroke="#666666" points="481,-95 421,-95 421,-76 481,-76 481,-95"/>
<text text-anchor="middle" x="451" y="-83" font-family="Helvetica,sans-Serif" font-size="10.00">printchar</text>
</a>
</g>
</g>
<!-- Node2&#45;&gt;Node3 -->
<g id="edge2_Node000002_Node000003" class="edge">
<title>Node2&#45;&gt;Node3</title>
<g id="a_edge2_Node000002_Node000003"><a xlink:title=" ">
<path fill="none" stroke="#63b8ff" d="M117.07,-95.03C125.6,-108.57 143.34,-132.81 166,-142.5 256.36,-181.12 374.24,-127.57 424.99,-100.06"/>
<polygon fill="#63b8ff" stroke="#63b8ff" points="426.89,-103.01 433.94,-95.1 423.49,-96.89 426.89,-103.01"/>
</a>
</g>
</g>
<!-- Node5 -->
<g id="Node000005" class="node">
<title>Node5</title>
<g id="a_Node000005"><a xlink:href="printf_8c.html#a2c37f08c54b3dc54d13030c62cba67a7" target="_top" xlink:title=" ">
<polygon fill="white" stroke="#666666" points="227,-133 166,-133 166,-114 227,-114 227,-133"/>
<text text-anchor="middle" x="196.5" y="-121" font-family="Helvetica,sans-Serif" font-size="10.00">printfloat</text>
</a>
</g>
</g>
<!-- Node2&#45;&gt;Node5 -->
<g id="edge4_Node000002_Node000005" class="edge">
<title>Node2&#45;&gt;Node5</title>
<g id="a_edge4_Node000002_Node000005"><a xlink:title=" ">
<path fill="none" stroke="#63b8ff" d="M130.14,-93.93C140.34,-98.55 153.23,-104.38 164.86,-109.64"/>
<polygon fill="#63b8ff" stroke="#63b8ff" points="163.69,-112.95 174.25,-113.88 166.58,-106.57 163.69,-112.95"/>
</a>
</g>
</g>
<!-- Node6 -->
<g id="Node000006" class="node">
<title>Node6</title>
<g id="a_Node000006"><a xlink:href="printf_8c.html#ad9c642f8af1fe47d03e648b146da3b8d" target="_top" xlink:title=" ">
<polygon fill="white" stroke="#666666" points="305,-95 263,-95 263,-76 305,-76 305,-95"/>
<text text-anchor="middle" x="284" y="-83" font-family="Helvetica,sans-Serif" font-size="10.00">printi</text>
</a>
</g>
</g>
<!-- Node2&#45;&gt;Node6 -->
<g id="edge10_Node000002_Node000006" class="edge">
<title>Node2&#45;&gt;Node6</title>
<g id="a_edge10_Node000002_Node000006"><a xlink:title=" ">
<path fill="none" stroke="#63b8ff" d="M130.18,-85.5C159.6,-85.5 217.04,-85.5 252.51,-85.5"/>
<polygon fill="#63b8ff" stroke="#63b8ff" points="252.76,-89 262.76,-85.5 252.76,-82 252.76,-89"/>
</a>
</g>
</g>
<!-- Node7 -->
<g id="Node000007" class="node">
<title>Node7</title>
<g id="a_Node000007"><a xlink:href="printf_8c.html#a6ce76a789a6153b7e1b16bc3a6969563" target="_top" xlink:title=" ">
<polygon fill="white" stroke="#666666" points="385,-57 341,-57 341,-38 385,-38 385,-57"/>
<text text-anchor="middle" x="363" y="-45" font-family="Helvetica,sans-Serif" font-size="10.00">prints</text>
</a>
</g>
</g>
<!-- Node2&#45;&gt;Node7 -->
<g id="edge14_Node000002_Node000007" class="edge">
<title>Node2&#45;&gt;Node7</title>
<g id="a_edge14_Node000002_Node000007"><a xlink:title=" ">
<path fill="none" stroke="#63b8ff" d="M130.33,-82.64C173.12,-76.15 278.05,-60.24 330.74,-52.24"/>
<polygon fill="#63b8ff" stroke="#63b8ff" points="331.49,-55.67 340.85,-50.71 330.44,-48.75 331.49,-55.67"/>
</a>
</g>
</g>
<!-- Node8 -->
<g id="Node000008" class="node">
<title>Node8</title>
<g id="a_Node000008"><a xlink:href="printf_8c.html#a700fcb0af9d5d9311fe8a86380747db7" target="_top" xlink:title=" ">
<polygon fill="white" stroke="#666666" points="305,-19 263,-19 263,0 305,0 305,-19"/>
<text text-anchor="middle" x="284" y="-7" font-family="Helvetica,sans-Serif" font-size="10.00">printl</text>
</a>
</g>
</g>
<!-- Node2&#45;&gt;Node8 -->
<g id="edge11_Node000002_Node000008" class="edge">
<title>Node2&#45;&gt;Node8</title>
<g id="a_edge11_Node000002_Node000008"><a xlink:title=" ">
<path fill="none" stroke="#63b8ff" d="M118.82,-75.75C128.32,-63.82 146.07,-43.93 166,-33.5 193.21,-19.26 228.09,-13.47 252.66,-11.11"/>
<polygon fill="#63b8ff" stroke="#63b8ff" points="253.15,-14.58 262.83,-10.27 252.58,-7.6 253.15,-14.58"/>
</a>
</g>
</g>
<!-- Node4 -->
<g id="Node000004" class="node">
<title>Node4</title>
<g id="a_Node000004"><a xlink:href="printf_8c.html#af4de2514b7778805db3815e8dd6cf09a" target="_top" xlink:title=" ">
<polygon fill="white" stroke="#666666" points="570,-95 517,-95 517,-76 570,-76 570,-95"/>
<text text-anchor="middle" x="543.5" y="-83" font-family="Helvetica,sans-Serif" font-size="10.00">putchar</text>
</a>
</g>
</g>
<!-- Node3&#45;&gt;Node4 -->
<g id="edge3_Node000003_Node000004" class="edge">
<title>Node3&#45;&gt;Node4</title>
<g id="a_edge3_Node000003_Node000004"><a xlink:title=" ">
<path fill="none" stroke="#63b8ff" d="M481.13,-85.5C489.29,-85.5 498.25,-85.5 506.74,-85.5"/>
<polygon fill="#63b8ff" stroke="#63b8ff" points="506.78,-89 516.78,-85.5 506.78,-82 506.78,-89"/>
</a>
</g>
</g>
<!-- Node5&#45;&gt;Node3 -->
<g id="edge5_Node000005_Node000003" class="edge">
<title>Node5&#45;&gt;Node3</title>
<g id="a_edge5_Node000005_Node000003"><a xlink:title=" ">
<path fill="none" stroke="#63b8ff" d="M227.17,-120.49C264.23,-116.55 329.53,-109.01 385,-99.5 393.5,-98.04 402.58,-96.24 411.18,-94.42"/>
<polygon fill="#63b8ff" stroke="#63b8ff" points="411.95,-97.84 420.98,-92.3 410.47,-91 411.95,-97.84"/>
</a>
</g>
</g>
<!-- Node5&#45;&gt;Node6 -->
<g id="edge6_Node000005_Node000006" class="edge">
<title>Node5&#45;&gt;Node6</title>
<g id="a_edge6_Node000005_Node000006"><a xlink:title=" ">
<path fill="none" stroke="#63b8ff" d="M219.08,-113.91C229.59,-109.24 242.39,-103.55 253.76,-98.5"/>
<polygon fill="#63b8ff" stroke="#63b8ff" points="255.18,-101.69 262.9,-94.43 252.34,-95.3 255.18,-101.69"/>
</a>
</g>
</g>
<!-- Node6&#45;&gt;Node3 -->
<g id="edge7_Node000006_Node000003" class="edge">
<title>Node6&#45;&gt;Node3</title>
<g id="a_edge7_Node000006_Node000003"><a xlink:title=" ">
<path fill="none" stroke="#63b8ff" d="M305.23,-85.5C331.4,-85.5 377.55,-85.5 410.72,-85.5"/>
<polygon fill="#63b8ff" stroke="#63b8ff" points="410.99,-89 420.99,-85.5 410.99,-82 410.99,-89"/>
</a>
</g>
</g>
<!-- Node6&#45;&gt;Node7 -->
<g id="edge8_Node000006_Node000007" class="edge">
<title>Node6&#45;&gt;Node7</title>
<g id="a_edge8_Node000006_Node000007"><a xlink:title=" ">
<path fill="none" stroke="#63b8ff" d="M304.43,-75.91C313.18,-71.59 323.7,-66.4 333.33,-61.65"/>
<polygon fill="#63b8ff" stroke="#63b8ff" points="335.16,-64.65 342.58,-57.09 332.06,-58.37 335.16,-64.65"/>
</a>
</g>
</g>
<!-- Node7&#45;&gt;Node3 -->
<g id="edge9_Node000007_Node000003" class="edge">
<title>Node7&#45;&gt;Node3</title>
<g id="a_edge9_Node000007_Node000003"><a xlink:title=" ">
<path fill="none" stroke="#63b8ff" d="M385.26,-56.89C395.41,-61.38 407.77,-66.84 418.95,-71.78"/>
<polygon fill="#63b8ff" stroke="#63b8ff" points="417.83,-75.11 428.39,-75.95 420.66,-68.71 417.83,-75.11"/>
</a>
</g>
</g>
<!-- Node8&#45;&gt;Node3 -->
<g id="edge12_Node000008_Node000003" class="edge">
<title>Node8&#45;&gt;Node3</title>
<g id="a_edge12_Node000008_Node000003"><a xlink:title=" ">
<path fill="none" stroke="#63b8ff" d="M305.12,-10.52C326.03,-12.25 359.23,-16.91 385,-29.5 404.32,-38.94 422.53,-55.54 434.72,-68.23"/>
<polygon fill="#63b8ff" stroke="#63b8ff" points="432.46,-70.93 441.83,-75.88 437.59,-66.17 432.46,-70.93"/>
</a>
</g>
</g>
<!-- Node8&#45;&gt;Node7 -->
<g id="edge13_Node000008_Node000007" class="edge">
<title>Node8&#45;&gt;Node7</title>
<g id="a_edge13_Node000008_Node000007"><a xlink:title=" ">
<path fill="none" stroke="#63b8ff" d="M304.43,-19.09C313.18,-23.41 323.7,-28.6 333.33,-33.35"/>
<polygon fill="#63b8ff" stroke="#63b8ff" points="332.06,-36.63 342.58,-37.91 335.16,-30.35 332.06,-36.63"/>
</a>
</g>
</g>
</g>
</svg>

<g id="navigator" transform="translate(0 0)" fill="#404254">
  <rect fill="#f2f5e9" fill-opacity="0.5" stroke="#606060" stroke-width=".5" x="0" y="0" width="60" height="60"/>
  <use id="zoomplus" xlink:href="#zoomPlus" x="17" y="9" onmousedown="handleZoom(evt,'in')"/>
  <use id="zoomminus" xlink:href="#zoomMin" x="42" y="9" onmousedown="handleZoom(evt,'out')"/>
  <use id="reset" xlink:href="#resetDef" x="30" y="36" onmousedown="handleReset()"/>
   <use id="arrowup" xlink:href="#arrowUp" x="0" y="0" onmousedown="handlePan(0,-1)"/>
  <use id="arrowright" xlink:href="#arrowRight" x="0" y="0" onmousedown="handlePan(1,0)"/>
  <use id="arrowdown" xlink:href="#arrowDown" x="0" y="0" onmousedown="handlePan(0,1)"/>
  <use id="arrowleft" xlink:href="#arrowLeft" x="0" y="0" onmousedown="handlePan(-1,0)"/>
</g>
<svg viewBox="0 0 15 15" width="100%" height="30px" preserveAspectRatio="xMaxYMin meet">
 <g id="arrow_out" transform="scale(0.3 0.3)">
  <a xlink:href="printf_8h_a65fa2c2b1fdeb49ee1d35b47be733d17_cgraph_org.svg" target="_base">
   <rect id="button" ry="5" rx="5" y="6" x="6" height="38" width="38"
        fill="#f2f5e9" fill-opacity="0.5" stroke="#606060" stroke-width="1.0"/>
   <path id="arrow"
     d="M 11.500037,31.436501 C 11.940474,20.09759 22.043105,11.32322 32.158766,21.979434 L 37.068811,17.246167 C 37.068811,17.246167 37.088388,32 37.088388,32 L 22.160133,31.978069 C 22.160133,31.978069 26.997745,27.140456 26.997745,27.140456 C 18.528582,18.264221 13.291696,25.230495 11.500037,31.436501 z"
     style="fill:#404040;"/>
  </a>
 </g>
</svg>

<style type='text/css'>
<![CDATA[
[data-mouse-over-selected='false'] { opacity: 0.7; }
[data-mouse-over-selected='true']  { opacity: 1.0; }
]]>
</style>
<script type="application/ecmascript"><![CDATA[
document.addEventListener('DOMContentLoaded', (event) => {
  highlightEdges();
  highlightAdjacentNodes();
});
]]></script>
</svg>
